<?xml version="1.0" encoding="UTF-8"?>
<!-- Generator: Adobe Illustrator 14.0.0, SVG Export Plug-In . SVG Version: 6.00 Build 43363)  -->
<!DOCTYPE svg PUBLIC "-//W3C//DTD SVG 1.1//EN" "http://www.w3.org/Graphics/SVG/1.1/DTD/svg11.dtd">
<svg version="1.1" id="Ebene_1" xmlns="http://www.w3.org/2000/svg" xmlns:xlink="http://www.w3.org/1999/xlink" x="0px" y="0px" width="841.89px" height="595.275px" viewBox="0 0 841.89 595.275" enable-background="new 0 0 841.89 595.275" xml:space="preserve">
<g>
	<polygon fill="#FFFFFF" points="355.23,198.089 355.23,402.002 486.138,402.002 486.138,198.089  "/>
	<path fill="#1F1E21" d="M470.975,355.348c-0.104-0.06-0.271-0.086-0.502-0.086h-0.354v0.843h0.375c0.174,0,0.305-0.017,0.395-0.052   c0.16-0.063,0.242-0.188,0.242-0.363C471.131,355.52,471.078,355.405,470.975,355.348L470.975,355.348z M470.531,354.978   c0.289,0,0.502,0.028,0.637,0.085c0.244,0.1,0.363,0.298,0.363,0.591c0,0.209-0.076,0.362-0.229,0.461   c-0.082,0.052-0.193,0.089-0.338,0.112c0.186,0.029,0.318,0.104,0.402,0.229c0.086,0.123,0.129,0.244,0.129,0.361v0.17   c0,0.054,0.002,0.112,0.006,0.174c0.002,0.062,0.01,0.104,0.021,0.121l0.014,0.029h-0.385c-0.002-0.008-0.004-0.016-0.008-0.023   c-0.002-0.007-0.004-0.017-0.006-0.023l-0.008-0.075v-0.185c0-0.271-0.074-0.447-0.223-0.534c-0.088-0.05-0.242-0.075-0.461-0.075   h-0.328v0.918h-0.408v-2.333L470.531,354.978L470.531,354.978z M469.27,354.858c-0.355,0.357-0.533,0.79-0.533,1.296   c0,0.511,0.178,0.944,0.529,1.307c0.357,0.356,0.789,0.537,1.301,0.537c0.51,0,0.941-0.181,1.299-0.537   c0.355-0.36,0.535-0.796,0.535-1.307c0-0.506-0.18-0.938-0.535-1.296c-0.357-0.359-0.791-0.539-1.299-0.539   C470.061,354.319,469.627,354.499,469.27,354.858L469.27,354.858z M472.078,357.66c-0.416,0.417-0.92,0.625-1.508,0.625   c-0.59,0-1.094-0.208-1.506-0.625c-0.412-0.415-0.617-0.918-0.617-1.509c0-0.585,0.207-1.085,0.623-1.5   c0.414-0.413,0.914-0.62,1.5-0.62c0.588,0,1.092,0.207,1.508,0.62c0.414,0.413,0.623,0.913,0.623,1.5   C472.701,356.74,472.492,357.242,472.078,357.66L472.078,357.66z"/>
	<path fill="#1F1E21" d="M381.13,358.112h-3.627v6.924c0,2.685-0.843,3.781-2.812,3.781c-1.687,0-2.323-1.073-2.323-3.245v-7.46   h-3.627v8.125c0,3.271,0.97,5.441,4.826,5.441c1.533,0,3.117-0.717,4.036-2.197h0.077v1.839h3.449V358.112L381.13,358.112   L381.13,358.112z"/>
	<path fill="#1F1E21" d="M383.429,371.32h3.627v-6.922c0-2.683,0.843-3.782,2.812-3.782c1.686,0,2.323,1.073,2.323,3.245v7.459   h3.627v-8.123c0-3.271-0.971-5.438-4.827-5.438c-1.354,0-2.938,0.715-3.857,2.194h-0.076v-6.872h-3.627L383.429,371.32   L383.429,371.32L383.429,371.32z"/>
	<polygon fill="#1F1E21" points="398.5,353.081 402.126,353.081 402.126,371.32 398.5,371.32  "/>
	<path fill="#1F1E21" d="M404.344,367.029c0.154,3.499,3.141,4.649,6.208,4.649c3.015,0,6.028-1.125,6.028-4.601   c0-2.45-2.07-3.219-4.189-3.703c-2.067-0.485-4.112-0.663-4.112-1.968c0-1.071,1.2-1.226,2.019-1.226   c1.304,0,2.376,0.382,2.478,1.787h3.449c-0.282-3.244-2.938-4.214-5.825-4.214c-2.835,0-5.748,0.866-5.748,4.238   c0,2.324,2.097,3.064,4.19,3.524c2.604,0.562,4.113,0.945,4.113,2.044c0,1.277-1.328,1.686-2.376,1.686   c-1.433,0-2.761-0.638-2.784-2.222h-3.449L404.344,367.029L404.344,367.029z"/>
	<path fill="#1F1E21" d="M425.363,368.944c-2.354,0-3.168-2.044-3.168-4.188c0-2.146,0.768-4.269,3.143-4.269   c2.324,0,3.168,2.171,3.168,4.269C428.504,366.9,427.74,368.944,425.363,368.944L425.363,368.944L425.363,368.944z    M418.694,375.971h3.63v-6.285h0.051c0.867,1.304,2.375,1.993,3.959,1.993c3.857,0,5.799-3.296,5.799-6.82   c0-3.756-1.865-7.102-6.002-7.102c-1.637,0-3.065,0.638-3.936,2.042h-0.053v-1.688h-3.448V375.971L418.694,375.971L418.694,375.971   z"/>
	<path fill="#1F1E21" d="M437.512,364.73c0-2.121,0.742-4.241,3.195-4.241c2.477,0,3.217,2.12,3.217,4.241   c0,2.094-0.74,4.214-3.217,4.214C438.254,368.944,437.512,366.824,437.512,364.73L437.512,364.73L437.512,364.73z M433.885,364.73   c0,4.189,2.686,6.948,6.822,6.948c4.162,0,6.846-2.759,6.846-6.948c0-4.215-2.684-6.974-6.846-6.974   C436.57,357.759,433.885,360.516,433.885,364.73L433.885,364.73L433.885,364.73z"/>
	<path fill="#1F1E21" d="M449.58,371.32h3.627v-5.952c0-2.323,0.918-4.239,3.576-4.239c0.434,0,0.971,0.052,1.303,0.128v-3.372   c-0.229-0.076-0.537-0.126-0.793-0.126c-1.762,0-3.551,1.146-4.215,2.809h-0.051v-2.453h-3.447V371.32L449.58,371.32L449.58,371.32   z"/>
	<path fill="#1F1E21" d="M465.125,354.153h-3.627v3.959h-2.197v2.431h2.197v7.788c0,2.633,1.941,3.144,4.164,3.144   c0.715,0,1.508-0.025,2.121-0.128v-2.834c-0.383,0.077-0.74,0.103-1.125,0.103c-1.227,0-1.533-0.308-1.533-1.532v-6.538h2.658   v-2.431h-2.658V354.153L465.125,354.153L465.125,354.153z"/>
	<polygon fill="#1F1E21" points="368.76,376.08 372.072,376.08 372.072,376.646 369.431,376.646 369.431,378.249 371.748,378.249    371.748,378.814 369.431,378.814 369.431,381.124 368.76,381.124  "/>
	<path fill="#1F1E21" d="M378.747,379.302c0,1.271-0.729,1.94-1.985,1.94c-1.3,0-2.069-0.602-2.069-1.94v-3.224h0.673v3.224   c0,0.889,0.509,1.377,1.396,1.377c0.848,0,1.313-0.488,1.313-1.377v-3.224h0.671L378.747,379.302L378.747,379.302z"/>
	<path fill="#1F1E21" d="M384.644,377.557c-0.078-0.721-0.558-1.031-1.25-1.031c-0.563,0-1.13,0.205-1.13,0.861   c0,0.622,0.805,0.714,1.618,0.896c0.805,0.186,1.61,0.468,1.61,1.455c0,1.073-1.054,1.505-1.973,1.505   c-1.13,0-2.083-0.552-2.083-1.779h0.638c0,0.849,0.704,1.216,1.469,1.216c0.605,0,1.276-0.19,1.276-0.918   c0-0.692-0.805-0.812-1.609-0.989c-0.807-0.176-1.617-0.409-1.617-1.335c0-1.023,0.911-1.477,1.83-1.477   c1.031,0,1.813,0.486,1.855,1.597H384.644L384.644,377.557z"/>
	<path fill="#1F1E21" d="M391.128,377.557c-0.078-0.721-0.56-1.031-1.25-1.031c-0.565,0-1.13,0.205-1.13,0.861   c0,0.622,0.805,0.714,1.617,0.896c0.805,0.186,1.609,0.468,1.609,1.455c0,1.073-1.053,1.505-1.971,1.505   c-1.13,0-2.084-0.552-2.084-1.779h0.636c0,0.849,0.707,1.216,1.469,1.216c0.607,0,1.278-0.19,1.278-0.918   c0-0.692-0.805-0.812-1.61-0.989c-0.805-0.176-1.615-0.409-1.615-1.335c0-1.023,0.909-1.477,1.827-1.477   c1.031,0,1.815,0.486,1.858,1.597H391.128L391.128,377.557z"/>
	<path fill="#1F1E21" d="M395.366,380.558h1.681c0.579,0,0.947-0.354,0.947-0.903c0-0.657-0.53-0.84-1.097-0.84h-1.531V380.558   L395.366,380.558z M395.366,378.249h1.342c0.763,0,1.074-0.273,1.074-0.805c0-0.7-0.495-0.799-1.074-0.799h-1.342V378.249   L395.366,378.249z M394.695,376.08h1.829c0.445,0,1.031,0,1.335,0.186c0.332,0.198,0.595,0.559,0.595,1.053   c0,0.536-0.282,0.939-0.749,1.13v0.017c0.622,0.127,0.96,0.593,0.96,1.215c0,0.742-0.529,1.448-1.532,1.448h-2.438L394.695,376.08   L394.695,376.08z"/>
	<path fill="#1F1E21" d="M402.309,379.04h1.709l-0.841-2.353h-0.014L402.309,379.04L402.309,379.04z M402.81,376.08h0.742   l1.97,5.044h-0.739l-0.553-1.519h-2.133l-0.563,1.519h-0.692L402.81,376.08L402.81,376.08z"/>
	<polygon fill="#1F1E21" points="407.923,376.08 408.594,376.08 408.594,380.558 411.265,380.558 411.265,381.124 407.923,381.124     "/>
	<polygon fill="#1F1E21" points="413.758,376.08 414.429,376.08 414.429,380.558 417.099,380.558 417.099,381.124 413.758,381.124     "/>
	<path fill="#1F1E21" d="M368.54,291.753c0-28.682,23.254-51.933,51.935-51.933c28.684,0,51.936,23.25,51.936,51.933   c0,28.688-23.252,51.936-51.936,51.936C391.793,343.687,368.54,320.439,368.54,291.753L368.54,291.753L368.54,291.753   L368.54,291.753z"/>
	<path fill="#E2001A" d="M393.039,263.148c-0.574,4.312,0.33,11.954,1.62,14.814c1.283,2.87,4.188,6.979,7.844,9.637   c3.65,2.653,9.587,4.607,14.192,4.607c4.61,0,8.846-0.872,12.542-2.909c3.695-2.032,4.73-3.481,4.73-3.481v-40.385   c0,0,9.764,2.552,17.062,9.049v74.455c0,0-3.393,2.984-8.609,5.656c-2.88,1.474-6.129,2.767-9.453,3.641   c-3.328,0.875-7.832,1.625-11.266,1.625c-1.961,0-3.872-0.014-5.734-0.188c-6.782-0.637-12.905-2.607-18.453-5.625   c-5.344-2.906-10.141-6.781-14.354-11.909c-9.903-12.047-12.33-27.278-10.011-39.461c2.455-12.89,9.526-21.41,13.498-25.331   c3.057-3.018,8.817-7.271,13.188-9.204c0,0-2.292,2.405-2.878,3.416c-0.587,1.004-1.732,3.098-2.104,4.076   c-0.356,0.979-1.113,3.351-1.278,4.188C393.574,259.822,393.126,262.492,393.039,263.148z"/>
	<path fill="#E2001A" d="M454.578,325.461v-67.807c0,0,3.925,3.712,7.405,9.513c3.419,5.698,6.688,13.826,6.688,25.874   c0,6.266-2.126,14.311-4.872,19.879c-3.905,7.919-9.203,12.763-9.203,12.763l-0.02-0.733L454.578,325.461L454.578,325.461z"/>
</g>
</svg>