<?xml version="1.0" standalone="no"?>
<!DOCTYPE svg PUBLIC "-//W3C//DTD SVG 1.1//EN" "http://www.w3.org/Graphics/SVG/1.1/DTD/svg11.dtd" >
<svg xmlns="http://www.w3.org/2000/svg">
<metadata></metadata>
<defs>
<font id="etelka_medium_probold" horiz-adv-x="1112" >
<font-face units-per-em="2048" ascent="1638" descent="-410" />
<missing-glyph horiz-adv-x="505" />
<glyph unicode="&#xfb01;" horiz-adv-x="1298" d="M-6 733v320h166v41q0 115 36.5 194t112 124t175.5 64t241 19q222 0 422 -57l-78 -285q-148 29 -278 29q-131 0 -193.5 -25.5t-62.5 -91.5v-12h634v-1053h-374v733h-260v-733h-375v733h-166z" />
<glyph unicode="&#xfb02;" horiz-adv-x="1310" d="M-6 733v320h166v41q0 116 34 195t103 124t160 63.5t219 18.5q242 0 493 -57v-1119q0 -151 62 -266l-344 -106q-92 128 -92 362v860q-93 13 -129 13q-74 0 -102.5 -26.5t-28.5 -90.5v-12h186v-320h-186v-733h-375v733h-166z" />
<glyph horiz-adv-x="0" />
<glyph horiz-adv-x="682" />
<glyph unicode=" "  horiz-adv-x="505" />
<glyph unicode="&#x09;" horiz-adv-x="505" />
<glyph unicode="&#xa0;" horiz-adv-x="505" />
<glyph unicode="!" horiz-adv-x="684" d="M123 1427h436l-84 -919h-268zM131 188q0 61 10 98t37 57.5t64.5 27t101.5 6.5q128 0 172.5 -35.5t44.5 -153.5q0 -67 -10 -106.5t-37.5 -62t-65.5 -30t-104 -7.5q-64 0 -101.5 7.5t-64.5 30t-37 62t-10 106.5z" />
<glyph unicode="&#x22;" horiz-adv-x="890" d="M92 1427h301l-39 -512h-239zM504 1427h295l-39 -512h-238z" />
<glyph unicode="#" horiz-adv-x="1566" d="M41 301l20 295h238l18 254h-239l18 297h240l20 283h342l-20 -283h227l21 283h342l-21 -283h258l-18 -297h-258l-19 -254h260l-20 -295h-258l-21 -301h-342l21 301h-227l-21 -301h-342l21 301h-240zM641 596h227l19 254h-228z" />
<glyph unicode="$" horiz-adv-x="1271" d="M90 932q0 216 101 328t319 141v289h238v-277q245 -6 401 -65l-74 -318q-147 37 -327 45v-207q207 -35 313 -132t106 -273q0 -219 -96 -320.5t-323 -124.5v-299h-238v291q-252 6 -410 66l74 319q137 -38 336 -47v211q-97 14 -171 41t-131.5 70.5t-87.5 109.5t-30 152z M442 987q0 -34 13.5 -52.5t54.5 -29.5v158q-39 -10 -53.5 -29t-14.5 -47zM748 356q36 10 49.5 28.5t13.5 51.5q0 36 -11 53.5t-52 30.5v-164z" />
<glyph unicode="%" horiz-adv-x="2164" d="M41 991q0 142 21 231.5t74 143.5t131.5 75t203.5 21t204 -21t132 -75t74.5 -143.5t21.5 -231.5q0 -144 -21.5 -237t-74 -150.5t-132.5 -80.5t-204 -23t-203.5 23t-131.5 80.5t-73.5 150.5t-21.5 237zM362 991q0 -111 9 -158.5t29.5 -62t70.5 -14.5t70 15t28.5 62t8.5 158 q0 64 -2.5 100.5t-8 63t-19.5 37t-30.5 14.5t-46.5 4q-50 0 -70.5 -13.5t-29.5 -58t-9 -147.5zM436 0l946 1427h334l-948 -1427h-332zM1262 463q0 142 21 231.5t74 143.5t131.5 75t203.5 21t204 -21t132 -75t74.5 -143.5t21.5 -231.5q0 -192 -42 -297.5t-133.5 -150 t-256.5 -44.5t-256 44.5t-132.5 150t-41.5 297.5zM1583 463q0 -111 9 -158.5t29.5 -62.5t70.5 -15q30 0 46.5 4.5t30 16t19 40t8 68t2.5 107.5q0 104 -8 147.5t-28 57.5t-70 14t-70.5 -13.5t-29.5 -58t-9 -147.5z" />
<glyph unicode="&#x26;" horiz-adv-x="1708" d="M76 369q0 174 97 259.5t302 94.5q-95 7 -156.5 31t-95 68t-46.5 99.5t-13 137.5q0 86 12.5 145.5t46.5 111.5t94.5 82t157 47t232.5 17q163 0 267 -19t166 -64.5t85.5 -112t23.5 -170.5q0 -158 -82.5 -237.5t-271.5 -94.5q114 -6 301 -178q45 95 45 217h408 q0 -269 -207 -492q93 -116 237 -311h-448q-37 50 -72 96q-247 -125 -514 -125q-224 0 -347 39.5t-172.5 123.5t-49.5 235zM492 426q0 -82 31 -109.5t124 -27.5q167 0 305 63q-188 232 -303 232q-84 0 -120.5 -37.5t-36.5 -120.5zM559 1014q0 -74 30 -101.5t109 -27.5 t117.5 28.5t38.5 100.5q0 79 -32 102t-113 23q-85 0 -117.5 -23t-32.5 -102z" />
<glyph unicode="'" horiz-adv-x="485" d="M92 1427h301l-39 -512h-239z" />
<glyph unicode="(" horiz-adv-x="718" d="M139 510q0 237 36.5 425t104 316.5t154.5 211t197 126.5l170 -272q-54 -32 -92.5 -69.5t-73.5 -100t-56.5 -146t-34 -207t-12.5 -284.5q0 -199 18 -340.5t55.5 -231.5t82.5 -142t113 -93l-170 -272q-110 44 -197 126.5t-154.5 211t-104 316.5t-36.5 425z" />
<glyph unicode=")" horiz-adv-x="718" d="M-82 -297q68 41 113 93t82.5 141.5t55 231t17.5 341.5t-17.5 341t-55 231t-83 142t-112.5 93l170 272q110 -44 197 -126.5t154.5 -211t104 -316.5t36.5 -425t-36.5 -425t-104 -316.5t-154.5 -211t-197 -126.5z" />
<glyph unicode="*" horiz-adv-x="1165" d="M61 901v301h258l-131 225l267 152l129 -225l127 225l266 -152l-133 -225h260v-301h-260l131 -223l-266 -150l-125 220l-129 -220l-267 152l131 221h-258z" />
<glyph unicode="+" d="M51 569v361h324v325h360v-325h326v-361h-326v-323h-360v323h-324z" />
<glyph unicode="," horiz-adv-x="643" d="M-6 -326l162 547h417l-247 -547h-332z" />
<glyph unicode="-" horiz-adv-x="677" d="M51 410v360h576v-360h-576z" />
<glyph unicode="." horiz-adv-x="643" d="M106 188q0 61 10 98t37 57.5t64.5 27t101.5 6.5q128 0 173 -35.5t45 -153.5q0 -53 -7.5 -89t-21.5 -59.5t-41.5 -36t-61.5 -17t-86 -4.5q-64 0 -101.5 7.5t-64.5 30t-37 62t-10 106.5z" />
<glyph unicode="/" horiz-adv-x="1038" d="M-23 0l730 1427h395l-729 -1427h-396z" />
<glyph unicode="0" horiz-adv-x="1290" d="M78 733q0 172 24 298t68.5 208.5t116 132t157.5 70t201 20.5t201 -20.5t157.5 -70t116 -132t68.5 -208.5t24 -298q0 -175 -24 -305t-69 -217.5t-115.5 -141t-157.5 -76t-201 -22.5t-201 22.5t-157.5 76t-115.5 141t-69 217.5t-24 305zM469 733q0 -99 1.5 -156t9 -107.5 t17.5 -73t32 -39t48 -20t70 -3.5q33 0 55 2t42 10t31.5 18.5t22 34t15 49t8 71t4 93t0.5 121.5q0 70 -0.5 114.5t-4 87.5t-8 66.5t-15 45t-22 30.5t-32 16.5t-41.5 9t-55 1.5q-33 0 -54 -1.5t-41.5 -8.5t-32 -16.5t-22 -31t-15 -45.5t-8 -66t-4.5 -87.5t-1 -114.5z" />
<glyph unicode="1" horiz-adv-x="1290" d="M117 1219l803 278v-1497h-383v1006l-320 -121z" />
<glyph unicode="2" horiz-adv-x="1290" d="M68 0v319q411 298 511 382q118 97 146 163q18 42 18 117q0 76 -34.5 102.5t-135.5 26.5q-205 0 -391 -55l-80 331q89 33 228.5 54.5t287.5 21.5q115 0 195.5 -10.5t150 -38t110.5 -76.5t64 -126.5t23 -186.5q0 -79 -7 -133.5t-32.5 -110t-58 -96t-102.5 -97.5 t-145.5 -108.5t-205.5 -134.5h564v-344h-1106z" />
<glyph unicode="3" horiz-adv-x="1290" d="M78 16l69 353q51 -14 155.5 -24.5t172.5 -10.5q116 0 171.5 10t75 33.5t19.5 71.5q0 70 -29.5 93t-103.5 23h-241v338h231q76 0 99.5 16.5t23.5 79.5q0 45 -17.5 65.5t-69 30t-159.5 9.5q-68 0 -169 -10.5t-154 -24.5l-70 344q225 49 498 49q165 0 270.5 -18.5t171.5 -64 t92.5 -116t26.5 -180.5q0 -83 -12.5 -138.5t-46 -100t-95 -68.5t-156.5 -31q100 -4 166.5 -28.5t104 -72.5t52.5 -110.5t15 -154.5q0 -226 -133 -317t-456 -91q-117 0 -260 12.5t-242 32.5z" />
<glyph unicode="4" horiz-adv-x="1290" d="M-2 315v140q365 646 588 972h485v-784h178v-328h-178v-315h-373v315h-700zM455 643h243v410q-119 -176 -243 -410z" />
<glyph unicode="5" horiz-adv-x="1290" d="M104 16l70 353q44 -14 151 -24.5t177 -10.5q71 0 106.5 2t67.5 7.5t43.5 19.5t17.5 35t6 57q0 30 -2 47.5t-11.5 33.5t-24 23t-44.5 12.5t-68 7t-99 1.5q-173 0 -326 -17v864h962v-344h-595v-174q78 4 110 4q157 0 257.5 -23t161 -78.5t84 -137.5t23.5 -209 q0 -147 -27.5 -240t-95.5 -151t-172.5 -80.5t-269.5 -22.5q-110 0 -267 13t-235 32z" />
<glyph unicode="6" horiz-adv-x="1290" d="M90 727q0 149 13 257.5t45 192.5t80 137t124 87t170.5 47.5t225.5 13.5q102 0 221 -13.5t200 -35.5l-69 -344q-116 35 -352 35q-44 0 -72 -2t-55.5 -9.5t-43.5 -20.5t-29.5 -36t-21 -55t-12.5 -78q66 10 170 10q158 0 259.5 -23t163.5 -78.5t87 -137.5t25 -209 q0 -147 -27 -240t-94.5 -151t-171.5 -80.5t-269 -22.5q-129 0 -220.5 23t-160 75t-108.5 141t-59 214.5t-19 302.5zM508 578q4 -109 20.5 -161.5t44 -67.5t84.5 -15q94 0 125 25t31 96q0 40 -6 62t-25.5 38.5t-56 22.5t-98.5 6q-2 0 -119 -6z" />
<glyph unicode="7" horiz-adv-x="1290" d="M90 1083v344h1180v-108q-118 -189 -314 -616t-284 -703h-443q113 311 262 630.5t259 452.5h-660z" />
<glyph unicode="8" horiz-adv-x="1290" d="M80 379q0 92 14 154.5t50.5 110.5t102.5 72.5t167 28.5q-95 7 -156.5 31t-95.5 68.5t-47 100.5t-13 138q0 71 8.5 121.5t30.5 95.5t60.5 73.5t99 49.5t145 30t199.5 9t199.5 -9t145 -30t99 -49.5t60.5 -73.5t30.5 -95.5t8.5 -121.5q0 -83 -13 -138.5t-46.5 -100 t-95 -68.5t-156.5 -31q101 -4 166.5 -28.5t102 -72.5t50.5 -110t14 -155q0 -114 -25 -188t-89 -125t-172.5 -73t-276.5 -22h-2q-135 0 -230.5 14.5t-161 44t-103.5 79.5t-54 114.5t-16 155.5zM487 426q0 -81 33 -109t127 -28t126 27.5t32 109.5q0 86 -32.5 122t-125.5 36 q-94 0 -127 -36t-33 -122zM498 1014q0 -73 34.5 -101t114.5 -28q78 0 112 28t34 101q0 78 -32 101.5t-114 23.5q-84 0 -116.5 -23t-32.5 -102z" />
<glyph unicode="9" horiz-adv-x="1290" d="M90 971q0 147 26.5 239t93.5 149.5t171 80t270 22.5q119 0 205 -10t150.5 -35t104.5 -60.5t64.5 -93t34 -126t9.5 -164.5q0 -278 -110 -510t-327 -463h-469q282 313 389 522h-77q-126 0 -215.5 15.5t-152 47.5t-99 86.5t-52.5 126.5t-16 173zM496 979q0 -58 12.5 -82.5 t50 -34.5t123.5 -10q74 0 115 2q4 29 4 86q0 101 -26.5 131.5t-123.5 30.5t-126 -23t-29 -100z" />
<glyph unicode=":" horiz-adv-x="643" d="M106 188q0 61 10 98t37 57.5t64.5 27t101.5 6.5q128 0 173 -35.5t45 -153.5q0 -53 -7.5 -89t-21.5 -59.5t-41.5 -36t-61.5 -17t-86 -4.5q-64 0 -101.5 7.5t-64.5 30t-37 62t-10 106.5zM106 887q0 62 10 98.5t37.5 57t64 26.5t101.5 6q66 0 104 -6t66 -26.5t38 -57 t10 -98.5q0 -127 -45 -166t-173 -39q-64 0 -101.5 7.5t-64.5 30t-37 62t-10 105.5z" />
<glyph unicode=";" horiz-adv-x="643" d="M-6 -326l162 547h417l-247 -547h-332zM106 887q0 62 10 98.5t37.5 57t64 26.5t101.5 6q66 0 104 -6t66 -26.5t38 -57t10 -98.5q0 -127 -45 -166t-173 -39q-64 0 -101.5 7.5t-64.5 30t-37 62t-10 105.5z" />
<glyph unicode="&#x3c;" d="M119 657v181l741 567l193 -272l-443 -381l443 -387l-191 -277z" />
<glyph unicode="=" d="M51 236v360h1010v-360h-1010zM51 909v361h1010v-361h-1010z" />
<glyph unicode="&#x3e;" d="M119 362l442 381l-442 387l190 277l744 -569v-181l-742 -567z" />
<glyph unicode="?" horiz-adv-x="1064" d="M16 1413q81 22 199.5 35.5t220.5 13.5q329 0 471 -101t142 -331q0 -77 -27.5 -152.5t-81.5 -147.5t-107.5 -128.5t-130.5 -126.5h-366q134 163 197 277.5t63 224.5q0 62 -44 94.5t-161 32.5q-195 0 -305 -35zM313 188q0 61 10 98t37 57.5t64.5 27t101.5 6.5 q128 0 172.5 -35.5t44.5 -153.5q0 -67 -10 -106.5t-37.5 -62t-65.5 -30t-104 -7.5q-64 0 -101.5 7.5t-64.5 30t-37 62t-10 106.5z" />
<glyph unicode="@" horiz-adv-x="1937" d="M94 547q0 129 19.5 233.5t55 182t90.5 135.5t120 95.5t149.5 60.5t174 32.5t198.5 9.5q105 0 179 -9.5t136 -34.5t100.5 -66t65 -107.5t37.5 -156t11 -213.5q0 -87 -4.5 -152t-16.5 -119t-29 -90.5t-47 -65t-64 -44.5t-86.5 -26t-108.5 -13.5t-136 -3.5q-104 0 -172.5 10 t-117.5 32t-75 63.5t-37.5 97.5t-11.5 141q0 105 16.5 169t60.5 103.5t111.5 53.5t178.5 14q114 0 203 -19q-1 43 -7 66.5t-27 41.5t-60 24.5t-105 6.5q-102 0 -168 -5.5t-124 -23t-90.5 -46.5t-56 -79.5t-32 -118.5t-8.5 -167q0 -108 8.5 -181.5t33.5 -131t62.5 -90.5 t103 -54.5t145.5 -28.5t200 -7q119 0 202 10t148.5 36.5t104.5 67t64 107.5t34.5 150.5t9.5 203.5q0 90 -10.5 184.5t-28.5 141.5h313q37 -142 37 -338q0 -165 -21.5 -292t-67.5 -223t-114.5 -161.5t-167.5 -106.5t-220 -59t-279 -18q-162 0 -284 15t-223 51t-169 93.5 t-114.5 145t-67.5 203.5t-21 270zM870 549q0 -54 21.5 -70t97.5 -16q57 0 81 16.5t24 63.5v84q-49 8 -119 8q-61 0 -83 -16t-22 -70z" />
<glyph unicode="A" horiz-adv-x="1425" d="M-66 0q77 272 228 703t270 724h596q93 -318 236 -731.5t256 -695.5h-433q-44 103 -102 274h-553q-37 -130 -74 -274h-424zM530 612h342q-87 275 -139 471h-51q-63 -178 -152 -471z" />
<glyph unicode="B" horiz-adv-x="1505" d="M156 0v1427h850q107 0 176.5 -19.5t110.5 -63t57 -105.5t16 -156q0 -83 -13 -138.5t-46.5 -100t-95 -68.5t-156.5 -31q101 -4 167 -28.5t102.5 -72.5t50.5 -110.5t14 -154.5q0 -107 -26.5 -182t-79 -117.5t-119.5 -61t-158 -18.5h-850zM547 334h344q35 0 54.5 26t19.5 91 q0 69 -21 96.5t-61 27.5h-336v-241zM547 893h338q30 0 44.5 18.5t14.5 79.5q0 59 -15 81t-44 22h-338v-201z" />
<glyph unicode="C" horiz-adv-x="1193" d="M90 727q0 174 27.5 300.5t79.5 210.5t137 133.5t190 70t250 20.5q102 0 220.5 -13.5t199.5 -35.5l-70 -344q-110 35 -258 35q-54 0 -91 -2t-75.5 -8t-62.5 -17.5t-48 -31t-37.5 -47t-24 -67.5t-15 -91t-4.5 -117q0 -89 7.5 -151.5t27.5 -106t45 -69t69.5 -39.5 t90.5 -18.5t118 -4.5q148 0 258 35l70 -353q-185 -45 -420 -45q-180 0 -303.5 36.5t-211 123t-128.5 233t-41 363.5z" />
<glyph unicode="D" horiz-adv-x="1576" d="M156 0v1427h647q119 0 211 -13.5t171 -45t133.5 -84.5t93.5 -131t57 -184.5t18 -245.5q0 -208 -41 -348t-129 -222.5t-211.5 -117.5t-302.5 -35h-647zM547 346h205q72 0 115.5 4t82.5 18t59 37t35.5 66.5t20 101t4.5 144.5q0 66 -2.5 114t-10.5 87.5t-17.5 65t-30 44.5 t-40.5 29.5t-56 16.5t-70.5 7.5t-89.5 1.5h-205v-737z" />
<glyph unicode="E" horiz-adv-x="1292" d="M156 0v1427h1093v-344h-702v-180h506v-338h-506v-221h702v-344h-1093z" />
<glyph unicode="F" horiz-adv-x="1222" d="M156 0v1427h1067v-344h-676v-258h506v-338h-506v-487h-391z" />
<glyph unicode="G" horiz-adv-x="1482" d="M90 727q0 173 33.5 300.5t94 210.5t157 133t210.5 70.5t267 20.5q105 0 244 -14t217 -35l-64 -344q-45 14 -165 24.5t-191 10.5q-69 0 -113 -2.5t-89 -11t-71.5 -25.5t-50.5 -44t-36 -68.5t-18.5 -97.5t-6.5 -132q0 -89 7.5 -151.5t27.5 -106t45 -69t69.5 -39.5 t90.5 -18.5t118 -4.5q30 0 84 4v227h-252v338h656v-856q-96 -30 -263.5 -53t-316.5 -23q-180 0 -303.5 36.5t-211 123t-128.5 233t-41 363.5z" />
<glyph unicode="H" horiz-adv-x="1554" d="M156 0v1427h391v-493h463v493h389v-1427h-389v569h-463v-569h-391z" />
<glyph unicode="I" horiz-adv-x="702" d="M156 0v1427h391v-1427h-391z" />
<glyph unicode="J" horiz-adv-x="989" d="M0 23l57 346q113 -35 258 -35q136 0 136 131v962h393l2 -1034q0 -94 -27.5 -168.5t-73 -121t-108.5 -77.5t-128.5 -43t-139.5 -12q-208 0 -369 52z" />
<glyph unicode="K" horiz-adv-x="1447" d="M156 0v1427h391v-1427h-391zM549 754q58 54 180.5 235.5t261.5 437.5h461q-143 -251 -260.5 -426t-167.5 -229q53 -46 182 -250.5t281 -521.5h-465q-159 329 -288 527.5t-185 226.5z" />
<glyph unicode="L" horiz-adv-x="1138" d="M156 0v1427h391v-1083h610v-344h-1001z" />
<glyph unicode="M" horiz-adv-x="1972" d="M156 0v1427h516q149 -297 334 -755q152 405 317 755h494v-1427h-379v864q-62 -140 -155.5 -370t-152.5 -388h-313q-194 555 -285 758v-864h-376z" />
<glyph unicode="N" horiz-adv-x="1675" d="M156 0v1427h506q248 -420 471 -849v849h387v-1427h-486q-225 414 -497 874v-874h-381z" />
<glyph unicode="O" horiz-adv-x="1599" d="M90 733q0 143 20 254.5t62 191.5t99.5 135t139.5 87.5t176 46.5t214 14t213 -14t175 -46.5t139.5 -87.5t99 -135t61.5 -191.5t20 -254.5q0 -175 -30 -305t-86 -217.5t-144.5 -141t-196.5 -76t-251 -22.5q-144 0 -252.5 22.5t-197 76t-145 141t-86.5 217.5t-30 305z M508 729q0 -98 3 -156t15 -107.5t29 -72.5t53.5 -39.5t78.5 -20t114 -3.5q53 0 88 2t68 10t51.5 18.5t35.5 33.5t25 49t14 71t7.5 93.5t1.5 121.5q0 69 -1.5 114.5t-7.5 87.5t-13.5 66t-25 45.5t-36 31t-52 16.5t-67.5 8.5t-88 1.5q-73 0 -114 -3t-78.5 -18t-53.5 -35.5 t-29 -67t-15.5 -101t-2.5 -146.5z" />
<glyph unicode="P" horiz-adv-x="1425" d="M156 0v1427h850q387 0 387 -514q0 -138 -42.5 -248t-131.5 -177.5t-213 -67.5h-459v-420h-391zM547 737h307q111 0 111 176q0 98 -27.5 139.5t-81.5 41.5h-309v-357z" />
<glyph unicode="Q" horiz-adv-x="1599" d="M90 733q0 143 20 254.5t62 191.5t99.5 135t139.5 87.5t176 46.5t214 14t213 -14t175 -46.5t139.5 -87.5t99 -135t61.5 -191.5t20 -254.5q0 -294 -86 -452.5t-252 -202.5q128 -48 416 -471h-444q-206 348 -342 364q-144 0 -252.5 22.5t-197 76t-145 141t-86.5 217.5 t-30 305zM508 729q0 -98 3 -156t15 -107.5t29 -72.5t53.5 -39.5t78.5 -20t114 -3.5q53 0 88 2t68 10t51.5 18.5t35.5 33.5t25 49t14 71t7.5 93.5t1.5 121.5q0 69 -1.5 114.5t-7.5 87.5t-13.5 66t-25 45.5t-36 31t-52 16.5t-67.5 8.5t-88 1.5q-73 0 -114 -3t-78.5 -18 t-53.5 -35.5t-29 -67t-15.5 -101t-2.5 -146.5z" />
<glyph unicode="R" horiz-adv-x="1511" d="M156 0v1427h850q104 0 180 -31t120.5 -88t65.5 -131t21 -167q0 -81 -17.5 -148.5t-55 -124t-105 -91.5t-160.5 -42q50 -19 99 -68t132 -173t225 -363h-485q-110 194 -178 295t-111.5 139.5t-85.5 38.5h-104v-473h-391zM547 791h327q35 0 58.5 34.5t23.5 114.5 q0 154 -79 154h-330v-303z" />
<glyph unicode="S" horiz-adv-x="1271" d="M70 950q0 274 153 393t494 119q290 0 477 -71l-76 -332q-184 45 -405 45q-96 0 -147.5 -12t-66 -30t-14.5 -50q0 -39 18 -58t71.5 -32.5t175.5 -28.5q244 -31 354 -133.5t110 -306.5q0 -140 -34 -231.5t-114 -148t-200 -79.5t-303 -23q-287 0 -483 72l78 334 q188 -47 399 -47q101 0 150.5 9t66.5 28t17 57q0 39 -18.5 58t-78.5 34t-194 31q-225 27 -327.5 118t-102.5 285z" />
<glyph unicode="T" horiz-adv-x="1331" d="M0 1083v344h1331v-344h-469v-1083h-393v1083h-469z" />
<glyph unicode="U" horiz-adv-x="1529" d="M141 369v1058h394v-972q0 -61 50 -89t179 -28t180 28t51 89v972h394v-1058q0 -93 -30 -162.5t-82 -114t-132.5 -72t-172 -38.5t-208.5 -11q-118 0 -209.5 11t-171 38.5t-131.5 72t-81.5 114t-29.5 162.5z" />
<glyph unicode="V" horiz-adv-x="1347" d="M-90 1427h430q77 -184 184 -492t160 -499q65 177 158 482t147 509h422q-73 -265 -226.5 -692.5t-279.5 -734.5h-497q-103 348 -244.5 757.5t-253.5 669.5z" />
<glyph unicode="W" horiz-adv-x="2142" d="M-20 1427h423q62 -183 137 -449t117 -458q183 603 244 907h348q58 -184 136.5 -465.5t117.5 -441.5q59 190 125.5 452.5t102.5 454.5h411q-61 -267 -183 -695.5t-220 -731.5h-498q-65 333 -166 743q-76 -321 -201 -743h-497q-81 345 -194 755.5t-203 671.5z" />
<glyph unicode="X" horiz-adv-x="1435" d="M-43 1427h516q151 -206 260 -356q158 232 223 356h492q-157 -247 -469 -702q377 -538 494 -725h-494q-102 164 -248 375q-204 -280 -280 -375h-492q154 194 526 721q-364 503 -528 706z" />
<glyph unicode="Y" horiz-adv-x="1370" d="M-145 1427h520q156 -206 338 -464q237 345 303 464h485q-214 -340 -596 -880v-547h-391v545q-476 662 -659 882z" />
<glyph unicode="Z" horiz-adv-x="1298" d="M27 0v74q130 200 332.5 527.5t291.5 481.5h-588v344h1215v-69q-82 -158 -304 -516t-321 -498h633v-344h-1259z" />
<glyph unicode="[" horiz-adv-x="851" d="M193 -532v2078h696v-323h-309v-1434h309v-321h-696z" />
<glyph unicode="\" horiz-adv-x="1038" d="M-20 1427h395l729 -1427h-395z" />
<glyph unicode="]" horiz-adv-x="851" d="M-37 -211h309v1434h-309v323h696v-2078h-696v321z" />
<glyph unicode="^" horiz-adv-x="1210" d="M35 606l395 821h346l402 -821h-408l-168 400l-164 -400h-403z" />
<glyph unicode="_" d="M51 -55h1010v-361h-1010v361z" />
<glyph unicode="`" horiz-adv-x="960" d="M172 1427h373l254 -264h-307z" />
<glyph unicode="a" horiz-adv-x="1183" d="M86 319q0 87 19 149t51 99.5t86 58.5t112.5 28.5t141.5 7.5q94 0 219 -25q0 46 -6 70.5t-28.5 44t-64.5 26t-116 6.5q-150 0 -334 -51l-53 293q233 57 485 57q246 0 358.5 -92t112.5 -317v-621q-110 -38 -255 -60t-269 -22q-140 0 -225 15t-139.5 56t-74.5 105.5 t-20 171.5zM469 330q0 -56 19.5 -72t86.5 -16q79 0 140 22v142q-46 10 -133 10q-66 0 -89.5 -16t-23.5 -70z" />
<glyph unicode="b" horiz-adv-x="1236" d="M129 43v1436h375v-449q49 22 120 37.5t134 15.5q100 0 170.5 -25.5t122.5 -86t77 -166.5t25 -262q0 -162 -30.5 -271.5t-97 -176.5t-163.5 -95.5t-239 -28.5q-131 0 -269.5 20.5t-224.5 51.5zM504 287q56 -23 119 -23q49 0 75.5 7.5t47 35.5t27.5 80.5t7 144.5 q0 136 -30.5 184t-116.5 48q-56 0 -92.5 -13.5t-36.5 -35.5v-428z" />
<glyph unicode="c" horiz-adv-x="970" d="M82 532q0 156 38.5 266t112 171t165.5 87.5t214 26.5q212 0 342 -45l-73 -311q-141 41 -232 41q-36 0 -58 -2t-46.5 -10t-38.5 -24t-26.5 -42.5t-17.5 -67t-5 -96.5q0 -79 11.5 -127.5t38.5 -72t58 -30.5t84 -7q108 0 232 45l73 -311q-62 -24 -158.5 -38t-183.5 -14 q-97 0 -175 16.5t-145.5 56.5t-113 103.5t-71 160.5t-25.5 224z" />
<glyph unicode="d" horiz-adv-x="1236" d="M82 532q0 153 34 263t95.5 171.5t137 89t169.5 27.5q107 0 215 -32v428h375v-1436q-87 -31 -225.5 -51.5t-268.5 -20.5q-143 0 -239.5 27t-164 91.5t-98 172.5t-30.5 270zM457 539q0 -111 15.5 -166t47 -73.5t94.5 -18.5q70 0 119 18v426q0 23 -35.5 40t-89.5 17 q-86 0 -118.5 -52.5t-32.5 -190.5z" />
<glyph unicode="e" horiz-adv-x="1144" d="M82 532q0 156 36 265.5t105 171t157 88t206 26.5q117 0 196 -15.5t144 -57.5t99 -118t47 -194q7 -62 7 -138q0 -70 -6 -152h-608q3 -78 47 -103.5t145 -25.5q60 0 148 8t141 20l53 -278q-78 -26 -186 -42t-205 -16q-526 0 -526 561zM467 676h291q-1 79 -32.5 105 t-109.5 26q-75 0 -105 -28t-44 -103z" />
<glyph unicode="f" horiz-adv-x="815" d="M-6 733v320h166v41q0 401 420 401q190 0 342 -57l-78 -285q-89 29 -178 29q-74 0 -102.5 -26.5t-28.5 -90.5v-12h309v-320h-309v-733h-375v733h-166z" />
<glyph unicode="g" horiz-adv-x="1236" d="M82 514q0 161 30.5 270t97.5 175.5t164.5 95t239.5 28.5q131 0 269 -20t225 -51v-926q0 -91 -16 -164t-44 -125t-71.5 -90.5t-92 -62t-112.5 -38t-126.5 -19.5t-139.5 -5q-219 0 -400 62l62 284q193 -43 332 -43q115 0 174 33t59 113q-116 -51 -244 -51 q-80 0 -140.5 14.5t-112 51.5t-84.5 97t-51.5 153t-18.5 218zM457 524q0 -138 29.5 -185.5t117.5 -47.5q55 0 92 14t37 35v428q-61 25 -119 25q-65 0 -95.5 -17t-46 -74.5t-15.5 -177.5z" />
<glyph unicode="h" horiz-adv-x="1253" d="M129 0v1479h375v-455q156 59 272 59q68 0 118 -9.5t98.5 -39t79 -79.5t49 -135t18.5 -202v-618h-375v602q0 152 -148 152q-48 0 -80 -10t-32 -29v-715h-375z" />
<glyph unicode="i" horiz-adv-x="628" d="M106 1356q0 57 9.5 90.5t36.5 52t63 24t100 5.5t100 -5.5t63 -24t36.5 -52t9.5 -90.5q0 -119 -43 -156t-166 -37t-166 37t-43 156zM129 0h375v1053h-375v-1053z" />
<glyph unicode="j" horiz-adv-x="628" d="M-16 -117v-299q285 0 402.5 97t117.5 333v1039h-375v-1051q0 -56 -37 -87.5t-108 -31.5zM106 1356q0 57 9.5 90.5t36.5 52t63 24t100 5.5t100 -5.5t63 -24t36.5 -52t9.5 -90.5q0 -119 -43 -156t-166 -37t-166 37t-43 156z" />
<glyph unicode="k" horiz-adv-x="1280" d="M129 0v1479h375v-1479h-375zM504 557q29 -18 107.5 -145t240.5 -412h428q-115 237 -212.5 391t-137.5 184q39 37 126.5 164t196.5 314h-428q-247 -418 -321 -496z" />
<glyph unicode="l" horiz-adv-x="645" d="M129 309v1170h375v-1160q0 -153 61 -266l-344 -106q-92 128 -92 362z" />
<glyph unicode="m" horiz-adv-x="1847" d="M129 0v985q294 98 559 98q162 0 256 -67q191 67 359 67q222 0 325 -114.5t103 -388.5v-580h-373v555q0 116 -25.5 156.5t-111.5 40.5q-21 0 -117 -11q14 -86 14 -161v-580h-375v555q0 116 -25.5 156.5t-111.5 40.5q-40 0 -102 -15v-737h-375z" />
<glyph unicode="n" horiz-adv-x="1253" d="M129 0v985q294 98 569 98q224 0 332.5 -115.5t108.5 -387.5v-580h-375v555q0 115 -28 156t-120 41q-31 0 -112 -15v-737h-375z" />
<glyph unicode="o" horiz-adv-x="1212" d="M82 532q0 159 33 267t101.5 170t161.5 88t226 26q135 0 229 -26t163 -88t101.5 -170t32.5 -267q0 -160 -32.5 -269.5t-101 -173.5t-163 -91t-229.5 -27q-134 0 -227.5 27t-161.5 91t-100.5 173.5t-32.5 269.5zM457 526q0 -62 2.5 -103.5t10 -72.5t17 -48t27.5 -27.5 t38 -13.5t52 -3q39 0 62 5t42 20t28 45.5t13.5 77t4.5 120.5q0 95 -6 147.5t-25 81t-44.5 35.5t-74.5 7q-64 0 -92 -16.5t-41.5 -73t-13.5 -181.5z" />
<glyph unicode="p" horiz-adv-x="1236" d="M129 -393v1405q85 31 224 51t270 20q143 0 239.5 -27t163.5 -91.5t97 -172t30 -268.5q0 -154 -34 -264.5t-95.5 -172t-137 -89t-169.5 -27.5t-213 35v-399h-375zM504 330q0 -22 35 -39t88 -17q87 0 120 52.5t33 189.5q0 111 -15.5 166t-47 73.5t-94.5 18.5 q-74 0 -119 -18v-426z" />
<glyph unicode="q" horiz-adv-x="1236" d="M82 514q0 161 30.5 270t97.5 175.5t164.5 95t239.5 28.5q131 0 269 -20t225 -51v-1405h-375v420q-127 -56 -256 -56q-100 0 -170.5 25.5t-122.5 86.5t-77 167.5t-25 263.5zM457 524q0 -138 29.5 -185.5t117.5 -47.5q55 0 92 14t37 35v428q-61 25 -119 25q-65 0 -95.5 -17 t-46 -74.5t-15.5 -177.5z" />
<glyph unicode="r" horiz-adv-x="849" d="M129 0v1053h375v-84q30 56 82.5 85t158.5 29q47 0 105 -6v-346q-64 21 -160 21q-77 0 -131.5 -27t-54.5 -70v-655h-375z" />
<glyph unicode="s" horiz-adv-x="978" d="M61 713q0 87 26 152.5t69 106.5t106.5 66.5t131.5 35t151 9.5q89 0 191.5 -16.5t170.5 -42.5l-65 -270q-168 41 -314 41q-63 0 -86.5 -10t-23.5 -48q0 -29 25.5 -38t144.5 -27q185 -27 263.5 -97t78.5 -231q0 -373 -494 -373q-90 0 -197 16t-176 42l68 276 q156 -39 287 -39q88 0 121.5 11t33.5 49q0 21 -14 32.5t-55 20t-125 16.5q-83 8 -138.5 25.5t-98 53t-62 94.5t-19.5 145z" />
<glyph unicode="t" horiz-adv-x="897" d="M14 733v320h166v135l375 151v-286h309v-320h-309v-334q0 -63 26 -88.5t99 -25.5q71 0 158 26l59 -282q-143 -58 -346 -58q-73 0 -127 9.5t-102 35t-78 68.5t-47 111t-17 161v377h-166z" />
<glyph unicode="u" horiz-adv-x="1253" d="M117 473v580h372v-555q0 -115 28 -156t120 -41q36 0 115 14v738h372v-985q-297 -99 -569 -99q-223 0 -330.5 115.5t-107.5 388.5z" />
<glyph unicode="v" horiz-adv-x="1050" d="M-49 1053h377q103 -285 198 -668q124 376 191 668h368q-162 -556 -362 -1053h-438q-140 509 -334 1053z" />
<glyph unicode="w" horiz-adv-x="1734" d="M-49 1053h377q111 -307 198 -658q84 265 183 658h323q41 -134 95.5 -334t82.5 -324q131 400 191 658h368q-175 -588 -362 -1053h-440q-46 253 -107 518q-20 -105 -61.5 -259.5t-75.5 -258.5h-438q-140 509 -334 1053z" />
<glyph unicode="x" horiz-adv-x="1064" d="M-39 0q98 116 395 524q-264 375 -389 529h422q28 -37 168 -236q69 99 152 236h401q-99 -158 -354 -518q269 -394 356 -535h-405q-49 86 -158 244q-29 -38 -71 -95.5t-69 -92.5t-44 -56h-404z" />
<glyph unicode="y" horiz-adv-x="1050" d="M-49 1053h377q103 -285 198 -668q124 376 191 668h368q-101 -359 -242.5 -738.5t-297.5 -707.5h-410q83 142 172 340q-122 448 -356 1106z" />
<glyph unicode="z" horiz-adv-x="1021" d="M2 0v49q108 149 247.5 366t194.5 318h-405v320h977v-52q-82 -142 -210.5 -339.5t-230.5 -342.5h408v-319h-981z" />
<glyph unicode="{" horiz-adv-x="856" d="M96 352v314q230 0 230 411q0 100 22.5 181.5t57 134.5t86 95t98 65t104.5 42l176 -274q-71 -30 -108.5 -67t-59.5 -119t-22 -222q0 -86 -12.5 -155t-31 -111.5t-44 -72.5t-47.5 -43.5t-45 -20.5q23 -7 45 -21t47.5 -45.5t44 -75t31 -113.5t12.5 -157q0 -107 9.5 -175 t35 -112.5t57.5 -69t88 -48.5l-176 -268q-58 19 -104.5 42t-98 65t-86 95t-57 134.5t-22.5 181.5q0 411 -230 411v-2z" />
<glyph unicode="|" horiz-adv-x="882" d="M246 -524v2070h391v-2070h-391z" />
<glyph unicode="}" horiz-adv-x="856" d="M-14 -301q53 23 85 47t57.5 69t36.5 115t11 176t18 186t47.5 123t57 64.5t57.5 30.5q-23 7 -45 21t-47.5 45.5t-44 75t-31 113.5t-12.5 157q0 107 -9.5 175t-35 112.5t-57.5 69t-88 48.5l176 268q58 -19 104.5 -42t98 -65t86 -95t57 -134.5t22.5 -181.5q0 -411 230 -411 v2v-314q-230 0 -230 -411q0 -100 -22.5 -181.5t-57 -134.5t-86 -95t-98 -65t-104.5 -42z" />
<glyph unicode="~" d="M16 766q129 219 316 219q60 0 113 -17t91 -41t71.5 -48t68.5 -41t69 -17q46 0 72 26.5t55 104.5l230 -186q-41 -109 -135.5 -185.5t-223.5 -76.5q-51 0 -98.5 17.5t-83 42t-69 49t-70.5 42t-74 17.5q-39 0 -67 -24t-56 -89z" />
<glyph unicode="&#xa1;" horiz-adv-x="684" d="M123 877q0 67 10 106.5t37.5 62t65.5 30t104 7.5q64 0 101.5 -7.5t64.5 -30t37 -62t10 -106.5q0 -61 -10 -98t-37 -57.5t-64.5 -27t-101.5 -6.5q-128 0 -172.5 35.5t-44.5 153.5zM125 -362l84 919h268l84 -919h-436z" />
<glyph unicode="&#xa2;" horiz-adv-x="923" d="M82 766q0 133 28 233t81.5 162t121.5 97t156 49v221h279v-221q93 -10 167 -35l-69 -275q-39 13 -98 17v-506q60 4 98 20l69 -272q-72 -28 -167 -41v-244h-279v242q-89 14 -157 50.5t-121 100.5t-81 165.5t-28 236.5zM420 760q0 -145 49 -201v408q-49 -59 -49 -207z" />
<glyph unicode="&#xa3;" horiz-adv-x="1271" d="M51 547v305h105v98q0 262 145 387t477 125q290 0 477 -71l-75 -332q-184 45 -406 45q-98 0 -147.5 -13.5t-64.5 -37t-15 -70.5v-131h414v-305h-414v-203h651v-344h-1042v547h-105z" />
<glyph unicode="&#xa5;" horiz-adv-x="1370" d="M-145 1427h520q156 -206 338 -464q237 345 303 464h485q-176 -279 -450 -673h139v-256h-285v-121h285v-256h-285v-121h-391v121h-311v256h311v121h-311v256h159q-393 534 -507 673z" />
<glyph unicode="&#xa7;" horiz-adv-x="1271" d="M51 526q0 149 96 256q-53 80 -53 203q0 252 157.5 364.5t475.5 112.5q269 0 436 -67l-69 -310q-161 43 -371 43q-87 0 -134 -11.5t-60 -28t-13 -46.5q0 -37 16.5 -54.5t64 -29.5t161.5 -26q229 -30 347 -128t118 -284q0 -133 -107 -244q64 -86 64 -215 q0 -252 -157.5 -364.5t-475.5 -112.5q-267 0 -436 68l69 309q161 -43 371 -43q87 0 134 11.5t60 28t13 46.5q0 37 -16.5 55t-64.5 30t-161 26q-229 31 -347 128.5t-118 282.5zM438 553q0 -37 18.5 -54.5t81.5 -31.5t207 -29q7 -1 23 -3t23 -3q45 22 45 62q0 37 -18.5 54.5 t-82 31t-207.5 28.5q-8 1 -24 2t-23 2q-43 -18 -43 -59z" />
<glyph unicode="&#xa8;" horiz-adv-x="1058" d="M106 1298q0 92 32.5 120t125.5 28q94 0 127 -28t33 -120q0 -101 -33 -132t-127 -31q-93 0 -125.5 31t-32.5 132zM592 1298q0 93 32.5 120.5t127.5 27.5q93 0 125 -28t32 -120q0 -101 -32.5 -132t-124.5 -31q-95 0 -127.5 31t-32.5 132z" />
<glyph unicode="&#xa9;" horiz-adv-x="1640" d="M90 733q0 171 32.5 297.5t91 209t151 132.5t202 70t254.5 20q144 0 253.5 -20t201.5 -70t150.5 -132.5t91 -209t32.5 -297.5q0 -174 -32 -305t-91 -217.5t-150.5 -140.5t-202 -76.5t-253.5 -22.5q-119 0 -215 16t-180 51t-144.5 93.5t-104.5 142.5t-65.5 198.5 t-21.5 260.5zM393 733q0 -87 4.5 -152.5t16.5 -118.5t27.5 -90t42.5 -64t56.5 -42.5t75 -25t92 -12.5t113.5 -3q66 0 112.5 3t92 12.5t75 25t56.5 42.5t42 64t27 90t16.5 118.5t4.5 152.5q0 82 -4.5 143.5t-16.5 110.5t-27 82.5t-42.5 58t-56 39t-74.5 22.5t-92 10.5 t-113 2.5q-68 0 -113.5 -2.5t-92 -10.5t-75.5 -22.5t-56.5 -39t-42.5 -58t-27 -82.5t-16.5 -110.5t-4.5 -143.5zM479 723q0 103 16.5 175t46 117t82.5 70t115 34t154 9q154 0 252 -36l-58 -238q-82 23 -167 23q-41 0 -63.5 -4.5t-41.5 -20.5t-26 -48t-7 -85q0 -95 30 -125.5 t108 -30.5q100 0 167 25l58 -238q-106 -41 -252 -41q-92 0 -154 9.5t-115 35.5t-83 72.5t-46 119t-16 177.5z" />
<glyph unicode="&#xaa;" horiz-adv-x="950" d="M123 918q0 62 13.5 106t36 70.5t60.5 41.5t79 20t100 5q76 0 151 -16q0 42 -9.5 61t-40.5 28t-99 9q-126 0 -234 -31l-37 209q168 41 340 41q173 0 258.5 -64t85.5 -214v-455q-76 -27 -184 -42t-199 -15q-99 0 -158 10.5t-97 39t-52 74.5t-14 122zM395 926 q0 -40 13.5 -52t60.5 -12q48 0 94 17v100q-33 8 -90 8q-45 0 -61.5 -11.5t-16.5 -49.5z" />
<glyph unicode="&#xab;" horiz-adv-x="1519" d="M41 666l557 596l213 -211l-279 -381l279 -387l-211 -215zM709 666l557 596l213 -211l-279 -381l279 -387l-211 -215z" />
<glyph unicode="&#xac;" d="M51 569v361h1010v-930h-387v569h-623z" />
<glyph unicode="&#xad;" horiz-adv-x="677" d="M51 410v360h576v-360h-576z" />
<glyph unicode="&#xae;" horiz-adv-x="1179" d="M63 926q0 157 31.5 261.5t100 165t163 85t234.5 24.5q139 0 233 -24.5t161.5 -85t98.5 -165t31 -261.5q0 -155 -31 -259.5t-97.5 -167t-161.5 -88.5t-234 -26q-140 0 -235.5 26t-163 88t-99 167t-31.5 260zM285 926q0 -142 29.5 -214.5t92.5 -99t185 -26.5 q92 0 147.5 13.5t93.5 51.5t53 103t15 172q0 76 -6.5 129t-22.5 91.5t-37.5 61.5t-59 36t-79 17.5t-104.5 4.5q-76 0 -122.5 -7t-85.5 -26.5t-58.5 -58t-30 -98t-10.5 -150.5zM356 649v557h363q76 0 114.5 -52t38.5 -132q0 -90 -35.5 -124t-111.5 -34q24 -11 38.5 -21.5 t32 -33t27.5 -62.5t13 -98h-209q0 59 -15 95t-34 36h-17v-131h-205zM561 971h72q26 0 26 37q0 36 -26 36h-72v-73z" />
<glyph unicode="&#xb0;" horiz-adv-x="944" d="M41 991q0 142 21 231.5t74 143.5t131.5 75t203.5 21t204 -21t132 -75t74.5 -143.5t21.5 -231.5q0 -144 -21.5 -237t-74 -150.5t-132.5 -80.5t-204 -23t-203.5 23t-131.5 80.5t-73.5 150.5t-21.5 237zM362 991q0 -111 9 -158.5t29.5 -62t70.5 -14.5t70 15t28.5 62t8.5 158 q0 64 -2.5 100.5t-8 63t-19.5 37t-30.5 14.5t-46.5 4q-50 0 -70.5 -13.5t-29.5 -58t-9 -147.5z" />
<glyph unicode="&#xb1;" d="M51 -4v360h1010v-360h-1010zM51 741v361h324v325h360v-325h326v-361h-326v-323h-360v323h-324z" />
<glyph unicode="&#xb4;" horiz-adv-x="960" d="M172 1163l254 264h373l-320 -264h-307z" />
<glyph unicode="&#xb6;" horiz-adv-x="1425" d="M33 913q0 514 387 514h850v-1427h-330v420h-154v-420h-329v420h-37q-124 0 -213 67.5t-131.5 177.5t-42.5 248z" />
<glyph unicode="&#xb7;" horiz-adv-x="677" d="M106 625q0 66 11 105t40.5 61t69.5 29t109 7q71 0 112.5 -7t71 -29t40.5 -61t11 -105q0 -71 -11 -114.5t-40.5 -68t-71 -33t-112.5 -8.5q-134 0 -182 43.5t-48 180.5z" />
<glyph unicode="&#xb8;" horiz-adv-x="1288" d="M528 -393l54 135q28 -14 110 -14q29 0 41 9.5t12 29.5q0 29 -31.5 37.5t-107.5 2.5l74 193h133v-74q205 0 205 -166q0 -99 -67.5 -137.5t-237.5 -38.5q-105 0 -185 23z" />
<glyph unicode="&#xba;" horiz-adv-x="983" d="M104 1049q0 221 98.5 317t286.5 96q192 0 291 -96t99 -317q0 -222 -99.5 -320t-290.5 -98q-188 0 -286.5 98t-98.5 320zM377 1044q0 -85 11.5 -128t34 -57.5t66.5 -14.5q45 0 68 14.5t35 57.5t12 128q0 87 -12 131t-35 58t-68 14q-44 0 -66.5 -14t-34 -58t-11.5 -131z " />
<glyph unicode="&#xbb;" horiz-adv-x="1519" d="M41 281l278 381l-278 387l211 215l559 -598l-557 -596zM709 281l278 381l-278 387l211 215l559 -598l-557 -596z" />
<glyph unicode="&#xbf;" horiz-adv-x="1064" d="M16 35q0 -230 142 -331t471 -101q102 0 220.5 13.5t199.5 35.5l-70 344q-110 -35 -305 -35q-117 0 -161 32.5t-44 94.5q0 110 63 224.5t197 277.5h-367q-76 -69 -130 -126t-107.5 -129t-81 -147.5t-27.5 -152.5zM322 877q0 67 10 106.5t37.5 62t65.5 30t104 7.5 q64 0 101.5 -7.5t64.5 -30t37 -62t10 -106.5q0 -61 -10 -98t-37 -57.5t-64.5 -27t-101.5 -6.5q-128 0 -172.5 35.5t-44.5 153.5z" />
<glyph unicode="&#xf7;" d="M51 569v361h1010v-361h-1010zM332 305q0 61 10 98t37 57.5t64.5 27t101.5 6.5q128 0 172.5 -35.5t44.5 -153.5q0 -67 -10 -107t-37.5 -62.5t-66 -30t-103.5 -7.5q-125 0 -169 39.5t-44 167.5zM332 1208q0 62 10 99t37 57t64 26.5t102 6.5q66 0 104 -6.5t65.5 -26.5 t37.5 -57t10 -99q0 -127 -44.5 -165.5t-172.5 -38.5q-64 0 -101.5 7.5t-64.5 29.5t-37 61.5t-10 105.5z" />
<glyph unicode="&#x192;" horiz-adv-x="815" d="M-403 -365l106 269q110 -35 252 -35q71 0 114.5 33.5t53.5 97.5h2l129 733h-186l57 320h186l6 41q70 401 492 401q94 0 192 -16t160 -41l-129 -285q-82 29 -192 29q-74 0 -107.5 -26.5t-44.5 -90.5l-2 -12h330l-58 -320h-329l-129 -733h-2q-22 -115 -77.5 -199 t-132.5 -129.5t-159 -66.5t-174 -21q-207 0 -358 51z" />
<glyph unicode="&#x2c6;" horiz-adv-x="1312" d="M258 1163l250 264h352l258 -264h-311l-125 135l-121 -135h-303z" />
<glyph unicode="&#x2da;" horiz-adv-x="1437" d="M471 1315q0 120 61 164.5t205 44.5q142 0 202 -44t60 -165q0 -122 -60 -165.5t-202 -43.5q-144 0 -205 43.5t-61 165.5zM649 1313q0 -42 16 -56t72 -14q54 0 70 14.5t16 55.5q0 43 -16 57t-70 14q-55 0 -71.5 -14.5t-16.5 -56.5z" />
<glyph unicode="&#x2dc;" horiz-adv-x="1439" d="M289 1286q94 162 233 162q55 0 103.5 -12.5t76.5 -27.5t62.5 -27.5t64.5 -12.5q34 0 54 19.5t41 76.5l170 -137q-31 -81 -101 -137.5t-166 -56.5q-58 0 -110 21t-96.5 42t-85.5 21q-29 0 -49.5 -18t-41.5 -66z" />
<glyph unicode="&#x3a9;" horiz-adv-x="1681" d="M0 0v360h272q-48 39 -95.5 177.5t-47.5 277.5q0 184 45 310t138 200t220.5 105.5t307.5 31.5q143 0 251.5 -19.5t196.5 -65.5t144 -120t86 -184t30 -258q0 -139 -47.5 -277.5t-95.5 -177.5h276v-360h-733v338q49 10 81.5 34t52.5 58.5t30.5 93.5t14 123t3.5 164 q0 71 -3 112.5t-14.5 77.5t-28.5 52.5t-53 28.5t-78 15t-113 3t-113.5 -3t-79 -15t-53.5 -28.5t-29 -52.5t-15 -78t-3 -112q0 -82 2 -137.5t9 -109.5t19 -88t31.5 -63.5t48.5 -46.5t68 -26v-340h-725z" />
<glyph unicode="&#x3c0;" horiz-adv-x="1378" d="M41 692v361h1296v-361h-163v-692h-375v692h-228v-495q0 -218 -137 -326l-268 229q31 36 31 90v502h-156z" />
<glyph unicode="&#x401;" horiz-adv-x="1292" d="M156 0h1093v344h-702v221h506v338h-506v180h702v344h-1093v-1427zM291 1657q0 92 32.5 119.5t125.5 27.5q94 0 126.5 -27.5t32.5 -119.5q0 -101 -32.5 -132.5t-126.5 -31.5q-92 0 -125 31.5t-33 132.5zM776 1657q0 92 32 119.5t128 27.5q93 0 125.5 -27.5t32.5 -119.5 q0 -101 -33 -132.5t-125 -31.5q-95 0 -127.5 31t-32.5 133z" />
<glyph unicode="&#x402;" horiz-adv-x="1599" d="M0 1083v344h1331v-344h-469v-223q159 60 273 60q76 0 130 -12t104.5 -48t81.5 -98.5t49 -166.5t18 -249q0 -157 -22 -285.5t-61.5 -217t-88 -148t-107.5 -94.5l-291 241q61 42 96.5 94.5t56.5 149t21 244.5q0 87 -8 139t-28 78.5t-44.5 34.5t-66.5 8q-45 0 -77.5 -9 t-35.5 -26v-555h-393v1083h-469z" />
<glyph unicode="&#x403;" horiz-adv-x="1138" d="M156 0h391v1083h651v344h-1042v-1427zM451 1530l254 264h372l-319 -264h-307z" />
<glyph unicode="&#x404;" horiz-adv-x="1277" d="M90 727q0 145 19.5 257t60.5 193t98 136.5t138.5 88t175 46.5t213.5 14q104 0 232 -14t208 -35l-70 -344q-46 15 -129.5 25t-148.5 10q-70 0 -115.5 -3.5t-92 -15t-75 -33t-50.5 -58.5t-32 -91h510v-338h-514q9 -61 30 -103.5t49.5 -67.5t76 -38.5t94.5 -17.5t119 -4 q65 0 148.5 10t129.5 25l70 -353q-81 -20 -208.5 -32.5t-231.5 -12.5q-180 0 -306.5 36.5t-218.5 122.5t-136 233.5t-44 363.5z" />
<glyph unicode="&#x405;" horiz-adv-x="1271" d="M70 950q0 274 153 393t494 119q290 0 477 -71l-76 -332q-184 45 -405 45q-96 0 -147.5 -12t-66 -30t-14.5 -50q0 -39 18 -58t71.5 -32.5t175.5 -28.5q244 -31 354 -133.5t110 -306.5q0 -140 -34 -231.5t-114 -148t-200 -79.5t-303 -23q-287 0 -483 72l78 334 q188 -47 399 -47q101 0 150.5 9t66.5 28t17 57q0 39 -18.5 58t-78.5 34t-194 31q-225 27 -327.5 118t-102.5 285z" />
<glyph unicode="&#x406;" horiz-adv-x="702" d="M156 0v1427h391v-1427h-391z" />
<glyph unicode="&#x407;" horiz-adv-x="702" d="M-51 1657q0 92 32 119.5t125 27.5q95 0 127.5 -27.5t32.5 -119.5q0 -101 -33 -132.5t-127 -31.5q-92 0 -124.5 31.5t-32.5 132.5zM156 0h391v1427h-391v-1427zM434 1657q0 92 32 119.5t128 27.5q93 0 125.5 -27.5t32.5 -119.5q0 -101 -33 -132.5t-125 -31.5 q-95 0 -127.5 31t-32.5 133z" />
<glyph unicode="&#x408;" horiz-adv-x="989" d="M0 23l57 346q113 -35 258 -35q136 0 136 131v962h393l2 -1034q0 -94 -27.5 -168.5t-73 -121t-108.5 -77.5t-128.5 -43t-139.5 -12q-208 0 -369 52z" />
<glyph unicode="&#x409;" horiz-adv-x="2281" d="M41 0q261 796 289 1427h1038v-419h459q124 0 213 -68t131.5 -178t42.5 -248q0 -514 -387 -514h-850v1063h-287q-58 -556 -235 -1063h-414zM1368 334h309q54 0 81.5 41t27.5 139q0 176 -111 176h-307v-356z" />
<glyph unicode="&#x40a;" horiz-adv-x="2314" d="M156 0v1427h391v-434h463v434h391v-436h459q124 0 213 -66.5t131.5 -175.5t42.5 -247q0 -244 -91 -373t-296 -129h-850v662h-463v-662h-391zM1401 334h309q55 0 82 35.5t27 132.5q0 95 -29 127.5t-82 32.5h-307v-328z" />
<glyph unicode="&#x40b;" horiz-adv-x="1611" d="M0 1083v344h1331v-344h-469v-223q159 60 273 60q68 0 118 -9.5t98.5 -39t78.5 -79.5t48.5 -135t18.5 -202v-455h-375v438q0 152 -147 152q-45 0 -77.5 -9t-35.5 -26v-555h-393v1083h-469z" />
<glyph unicode="&#x40c;" horiz-adv-x="1456" d="M156 0h391v653q77 -10 136 -42t118 -104.5t114 -196t113 -310.5h465q-50 175 -101 308t-94 213.5t-90.5 137t-84.5 83t-83 46.5q48 51 157 217.5t255 421.5h-461q-107 -197 -229.5 -381t-214.5 -298v679h-391v-1427zM582 1530l254 264h372l-319 -264h-307z" />
<glyph unicode="&#x40e;" horiz-adv-x="1370" d="M-51 1427q121 -200 274 -516t240 -534q-120 -213 -244 -377h502q182 309 376 699t326 728h-458q-97 -282 -256 -618q-142 362 -285 618h-475zM360 1784h238q0 -56 26 -75t85 -19q57 0 82.5 19.5t25.5 74.5h221q0 -303 -340 -303q-161 0 -249.5 75t-88.5 228z" />
<glyph unicode="&#x40f;" horiz-adv-x="1554" d="M156 0v1427h391v-1062h463v1062h389v-1427h-451l-43 -393h-252l-43 393h-454z" />
<glyph unicode="&#x410;" horiz-adv-x="1425" d="M-66 0q77 272 228 703t270 724h596q93 -318 236 -731.5t256 -695.5h-433q-44 103 -102 274h-553q-37 -130 -74 -274h-424zM530 612h342q-87 275 -139 471h-51q-63 -178 -152 -471z" />
<glyph unicode="&#x411;" horiz-adv-x="1503" d="M156 0v1427h1144v-344h-753v-190h459q180 0 281.5 -111t101.5 -336q0 -132 -26.5 -221t-79.5 -137.5t-119 -68t-158 -19.5h-850zM547 334h344q35 0 54.5 26t19.5 91q0 69 -21 96.5t-61 27.5h-336v-241z" />
<glyph unicode="&#x412;" horiz-adv-x="1505" d="M156 0v1427h850q107 0 176.5 -19.5t110.5 -63t57 -105.5t16 -156q0 -83 -13 -138.5t-46.5 -100t-95 -68.5t-156.5 -31q101 -4 167 -28.5t102.5 -72.5t50.5 -110.5t14 -154.5q0 -107 -26.5 -182t-79 -117.5t-119.5 -61t-158 -18.5h-850zM547 334h344q35 0 54.5 26t19.5 91 q0 69 -21 96.5t-61 27.5h-336v-241zM547 893h338q30 0 44.5 18.5t14.5 79.5q0 59 -15 81t-44 22h-338v-201z" />
<glyph unicode="&#x413;" horiz-adv-x="1138" d="M156 0v1427h1042v-344h-651v-1083h-391z" />
<glyph unicode="&#x414;" horiz-adv-x="1724" d="M18 365h238q164 575 184 1062h1037v-1062h247l-47 -680h-348v315h-913v-315h-350zM672 365h415v718h-286q-44 -409 -129 -718z" />
<glyph unicode="&#x415;" horiz-adv-x="1292" d="M156 0v1427h1093v-344h-702v-180h506v-338h-506v-221h702v-344h-1093z" />
<glyph unicode="&#x416;" horiz-adv-x="2168" d="M-37 0q51 176 100.5 308t91 213.5t87.5 137.5t82.5 82.5t81.5 46.5q-95 102 -402 639h461q213 -393 424 -677v677h391v-677q211 284 424 677h461q-307 -537 -402 -639q45 -20 81.5 -46.5t82.5 -82.5t87.5 -137.5t91 -213.5t100.5 -308h-465q-77 250 -148 389t-142 195 t-171 69v-653h-391v653q-102 -13 -173 -69.5t-141.5 -195t-146.5 -388.5h-465z" />
<glyph unicode="&#x417;" horiz-adv-x="1327" d="M78 16l69 353q50 -14 164 -24.5t185 -10.5q171 0 228.5 23t57.5 92t-37.5 92.5t-115.5 23.5h-262v338h251q80 0 112 17.5t32 78.5q0 63 -53 84t-213 21q-70 0 -181 -10.5t-163 -24.5l-70 344q98 21 245.5 35t272.5 14q326 0 454 -82.5t128 -296.5q0 -83 -12.5 -138.5 t-46 -100t-95 -68.5t-156.5 -31q100 -4 166.5 -28.5t104 -72.5t52.5 -110.5t15 -154.5q0 -224 -142 -316t-468 -92q-119 0 -271.5 12.5t-250.5 32.5z" />
<glyph unicode="&#x418;" horiz-adv-x="1675" d="M156 0v1427h383v-880q305 515 503 880h478v-1427h-385v850q-227 -437 -471 -850h-508z" />
<glyph unicode="&#x419;" horiz-adv-x="1675" d="M156 0h508q244 413 471 850v-850h385v1427h-478q-198 -365 -503 -880v880h-383v-1427zM489 1784h238q0 -56 26 -75t85 -19q57 0 82.5 19.5t25.5 74.5h221q0 -303 -340 -303q-161 0 -249.5 75t-88.5 228z" />
<glyph unicode="&#x41a;" horiz-adv-x="1456" d="M156 0v1427h391v-679q92 114 214.5 298t229.5 381h461q-146 -255 -255 -421.5t-157 -217.5q46 -20 83 -46.5t84.5 -83t90.5 -137t94 -213.5t101 -308h-465q-58 187 -113 310.5t-114 196t-118 104.5t-136 42v-653h-391z" />
<glyph unicode="&#x41b;" horiz-adv-x="1521" d="M41 0q261 796 289 1427h1036v-1427h-389v1083h-287q-61 -585 -235 -1083h-414z" />
<glyph unicode="&#x41c;" horiz-adv-x="1972" d="M156 0v1427h516q149 -297 334 -755q152 405 317 755h494v-1427h-379v864q-62 -140 -155.5 -370t-152.5 -388h-313q-194 555 -285 758v-864h-376z" />
<glyph unicode="&#x41d;" horiz-adv-x="1554" d="M156 0v1427h391v-493h463v493h389v-1427h-389v569h-463v-569h-391z" />
<glyph unicode="&#x41e;" horiz-adv-x="1599" d="M90 733q0 143 20 254.5t62 191.5t99.5 135t139.5 87.5t176 46.5t214 14t213 -14t175 -46.5t139.5 -87.5t99 -135t61.5 -191.5t20 -254.5q0 -175 -30 -305t-86 -217.5t-144.5 -141t-196.5 -76t-251 -22.5q-144 0 -252.5 22.5t-197 76t-145 141t-86.5 217.5t-30 305z M508 729q0 -98 3 -156t15 -107.5t29 -72.5t53.5 -39.5t78.5 -20t114 -3.5q53 0 88 2t68 10t51.5 18.5t35.5 33.5t25 49t14 71t7.5 93.5t1.5 121.5q0 69 -1.5 114.5t-7.5 87.5t-13.5 66t-25 45.5t-36 31t-52 16.5t-67.5 8.5t-88 1.5q-73 0 -114 -3t-78.5 -18t-53.5 -35.5 t-29 -67t-15.5 -101t-2.5 -146.5z" />
<glyph unicode="&#x41f;" horiz-adv-x="1554" d="M156 0v1427h1243v-1427h-389v1083h-463v-1083h-391z" />
<glyph unicode="&#x420;" horiz-adv-x="1425" d="M156 0v1427h850q387 0 387 -514q0 -138 -42.5 -248t-131.5 -177.5t-213 -67.5h-459v-420h-391zM547 737h307q111 0 111 176q0 98 -27.5 139.5t-81.5 41.5h-309v-357z" />
<glyph unicode="&#x421;" horiz-adv-x="1193" d="M90 727q0 174 27.5 300.5t79.5 210.5t137 133.5t190 70t250 20.5q102 0 220.5 -13.5t199.5 -35.5l-70 -344q-110 35 -258 35q-54 0 -91 -2t-75.5 -8t-62.5 -17.5t-48 -31t-37.5 -47t-24 -67.5t-15 -91t-4.5 -117q0 -89 7.5 -151.5t27.5 -106t45 -69t69.5 -39.5 t90.5 -18.5t118 -4.5q148 0 258 35l70 -353q-185 -45 -420 -45q-180 0 -303.5 36.5t-211 123t-128.5 233t-41 363.5z" />
<glyph unicode="&#x422;" horiz-adv-x="1331" d="M0 1083v344h1331v-344h-469v-1083h-393v1083h-469z" />
<glyph unicode="&#x423;" horiz-adv-x="1370" d="M-51 1427h475q143 -256 285 -618q159 336 256 618h458q-132 -338 -326 -728t-376 -699h-502q124 164 244 377q-87 218 -240 534t-274 516z" />
<glyph unicode="&#x424;" horiz-adv-x="1757" d="M66 717q0 149 27 246.5t96.5 167t185.5 103.5t297 44v149h391v-149q184 -11 303.5 -45.5t192.5 -103.5t103 -167t30 -245q0 -197 -57 -311.5t-193 -174.5t-379 -75v-156h-391v154q-181 11 -297 45t-185.5 103.5t-96.5 167t-27 247.5zM463 717q0 -73 7.5 -115.5t30.5 -73 t63 -42.5t108 -15v487q-69 -2 -109 -13t-63 -40.5t-30 -71.5t-7 -116zM1063 471q51 2 86 7t61 18t40 29.5t22.5 46t11 62t2.5 83.5t-2.5 83t-11 62t-22.5 46t-40 28.5t-61 17.5t-86 7v-490z" />
<glyph unicode="&#x425;" horiz-adv-x="1435" d="M-43 1427h516q151 -206 260 -356q158 232 223 356h492q-157 -247 -469 -702q377 -538 494 -725h-494q-102 164 -248 375q-204 -280 -280 -375h-492q154 194 526 721q-364 503 -528 706z" />
<glyph unicode="&#x426;" horiz-adv-x="1646" d="M156 0v1427h391v-1062h463v1062h389v-1062h248l-48 -680h-348v315h-1095z" />
<glyph unicode="&#x427;" horiz-adv-x="1503" d="M102 897v530h394v-522q0 -98 43.5 -133t175.5 -35q130 0 185.5 28.5t55.5 88.5v573h392v-1427h-392v418q-120 -47 -344 -47q-87 0 -158 13.5t-138.5 50t-113 94t-73 151.5t-27.5 217z" />
<glyph unicode="&#x428;" horiz-adv-x="2138" d="M156 0v1427h391v-1062h327v1062h392v-1062h327v1062h389v-1427h-1826z" />
<glyph unicode="&#x429;" horiz-adv-x="2230" d="M156 0v1427h391v-1062h327v1062h392v-1062h327v1062h389v-1062h248l-47 -680h-348v315h-1679z" />
<glyph unicode="&#x42a;" horiz-adv-x="1562" d="M41 1083v344h608v-413h459q124 0 213 -69.5t131.5 -181t42.5 -249.5q0 -514 -387 -514h-850v1083h-217zM649 334h309q54 0 81.5 41t27.5 139q0 96 -30 133t-81 37h-307v-350z" />
<glyph unicode="&#x42b;" horiz-adv-x="2054" d="M156 0v1427h391v-413h459q124 0 213 -69.5t131.5 -181t42.5 -249.5q0 -514 -387 -514h-850zM547 334h309q54 0 81.5 41t27.5 139q0 96 -30 133t-81 37h-307v-350zM1507 0v1427h391v-1427h-391z" />
<glyph unicode="&#x42c;" horiz-adv-x="1460" d="M156 0v1427h391v-413h459q124 0 213 -69.5t131.5 -181t42.5 -249.5q0 -514 -387 -514h-850zM547 334h309q54 0 81.5 41t27.5 139q0 96 -30 133t-81 37h-307v-350z" />
<glyph unicode="&#x42d;" horiz-adv-x="1277" d="M43 16l70 353q46 -15 129.5 -25t148.5 -10q72 0 119 4t94.5 17.5t76 38.5t49.5 67.5t30 103.5h-514v338h510q-10 54 -32 91t-50.5 58.5t-75 33t-92 15t-115.5 3.5q-65 0 -148.5 -10t-129.5 -25l-70 344q80 21 208 35t232 14q120 0 213.5 -14t175 -46.5t138.5 -88 t98 -136.5t60.5 -193t19.5 -257q0 -216 -44 -363.5t-136 -233.5t-218.5 -122.5t-306.5 -36.5q-104 0 -231.5 12.5t-208.5 32.5z" />
<glyph unicode="&#x42e;" horiz-adv-x="2070" d="M156 0v1427h391v-493h235q13 122 49 214t88.5 151t126 96t154.5 52t182 15q116 0 204.5 -20t164.5 -70t125 -132t76.5 -209t27.5 -298q0 -174 -27 -305t-76.5 -217.5t-125 -140.5t-165 -76.5t-204.5 -22.5q-103 0 -187 18t-158 61t-126 111t-86.5 170.5t-44.5 237.5h-233 v-569h-391zM1186 733q0 -94 3 -156t12.5 -108.5t22 -71.5t37.5 -40t52 -19t71 -4q45 0 71.5 4t50 19.5t35 39.5t20 72t10.5 108t2 156q0 90 -2 146.5t-11 101t-20 66.5t-35 36.5t-50 17.5t-71 3t-71.5 -3.5t-51.5 -17t-37 -36.5t-22 -66t-13 -101.5t-3 -146.5z" />
<glyph unicode="&#x42f;" horiz-adv-x="1511" d="M41 0q48 155 89.5 261t78 171.5t78 102t79 50.5t91.5 19q-93 7 -160.5 42t-105 91.5t-55 124t-17.5 148.5q0 93 21 167t65.5 131t120.5 88t180 31h850v-1427h-391v473h-185q-45 0 -75.5 -11.5t-58 -38t-51.5 -83.5t-48 -135t-55 -205h-451zM555 940q0 -80 23.5 -114.5 t58.5 -34.5h328v303h-330q-80 0 -80 -154z" />
<glyph unicode="&#x430;" horiz-adv-x="1183" d="M86 319q0 87 19 149t51 99.5t86 58.5t112.5 28.5t141.5 7.5q94 0 219 -25q0 37 -4 57.5t-15.5 38.5t-36 26.5t-62 12.5t-97.5 4q-179 0 -334 -43l-53 293q233 57 485 57q246 0 358.5 -92t112.5 -317v-621q-110 -38 -255 -60t-269 -22q-140 0 -225 15t-139.5 56 t-74.5 105.5t-20 171.5zM469 330q0 -56 19.5 -72t86.5 -16q79 0 140 22v142q-46 10 -133 10q-66 0 -89.5 -16t-23.5 -70z" />
<glyph unicode="&#x431;" horiz-adv-x="1200" d="M92 631q0 133 6.5 235.5t22.5 185t37 141.5t56.5 103t74.5 72t97 47t118 28t143 15q267 19 420 74v-320q-60 -24 -150.5 -37.5t-242.5 -25.5q-110 -8 -152 -58.5t-55 -156.5q39 50 103 75t135 25q81 0 141 -12.5t113.5 -46.5t87 -91t52.5 -148t19 -216q0 -161 -30.5 -267 t-98 -168.5t-163.5 -88t-240 -25.5q-69 0 -122.5 6.5t-107 24t-92 48t-72.5 80.5t-55 119t-33 164.5t-12 217.5zM467 508q0 -110 14 -163.5t39 -68t78 -14.5q31 0 48 1.5t36.5 9.5t28.5 23t17.5 43t11.5 69.5t3 101.5q0 71 -6 111.5t-24 64t-44 30.5t-73 7q-82 0 -105.5 -41 t-23.5 -174z" />
<glyph unicode="&#x432;" horiz-adv-x="1247" d="M129 0v1053h709q121 0 189 -28t94 -81t26 -145q0 -61 -11.5 -102.5t-40.5 -74.5t-82 -50.5t-134 -22.5q86 -3 142.5 -21t88 -53.5t43.5 -81.5t12 -114q0 -153 -83.5 -216t-243.5 -63h-709zM504 270h213q31 0 47 14t16 52q0 42 -17.5 56t-53.5 14h-205v-136zM504 659h207 q26 0 38.5 11.5t12.5 48.5t-12.5 50t-38.5 13h-207v-123z" />
<glyph unicode="&#x433;" horiz-adv-x="919" d="M129 0v1053h791v-320h-416v-733h-375z" />
<glyph unicode="&#x434;" horiz-adv-x="1468" d="M0 319h205q103 423 123 734h927v-734h213l-82 -634h-307v315h-688v-315h-309zM596 319h285v414h-215q-9 -171 -70 -414z" />
<glyph unicode="&#x435;" horiz-adv-x="1144" d="M82 532q0 156 36 265.5t105 171t157 88t206 26.5q117 0 196 -15.5t144 -57.5t99 -118t47 -194.5t1 -289.5h-608q3 -78 47 -103.5t145 -25.5q60 0 148 8t141 20l53 -278q-78 -26 -186 -42t-205 -16q-526 0 -526 561zM467 676h291q-1 79 -32.5 105t-109.5 26 q-75 0 -105 -28t-44 -103z" />
<glyph unicode="&#x436;" horiz-adv-x="1886" d="M10 0q54 159 103.5 268t94 168.5t78 87t74.5 45.5q-51 51 -144 178.5t-189 305.5h424q176 -316 305 -498v498h374v-498q149 215 306 498h424q-96 -178 -189.5 -305.5t-144.5 -178.5q41 -18 74.5 -45.5t78 -87t94 -168.5t103.5 -268h-424q-84 222 -162 327.5t-160 135.5 v-463h-374v463q-83 -31 -161.5 -136.5t-160.5 -326.5h-424z" />
<glyph unicode="&#x437;" horiz-adv-x="1091" d="M47 8l68 332q63 -22 163 -39.5t191 -17.5q67 0 99.5 6.5t43.5 19.5t11 39q0 36 -30 47t-104 11h-165v264h165q69 0 92 9.5t23 37.5q0 34 -24.5 45.5t-108.5 11.5q-176 0 -352 -49l-68 317q208 41 428 41q162 0 258 -11.5t157 -44.5t83 -85.5t22 -140.5q0 -127 -52 -184.5 t-193 -67.5q146 -7 207 -73.5t61 -201.5q0 -92 -26 -149.5t-92 -92.5t-165.5 -48t-259.5 -13q-193 0 -432 37z" />
<glyph unicode="&#x438;" horiz-adv-x="1294" d="M129 0v1053h375v-486q110 125 287 486h374v-1053h-374v463q-124 -245 -287 -463h-375z" />
<glyph unicode="&#x439;" horiz-adv-x="1294" d="M129 0v1053h375v-486q110 125 287 486h374v-1053h-374v463q-124 -245 -287 -463h-375zM301 1427h238q0 -56 25.5 -75t84.5 -19q57 0 83 19.5t26 74.5h221q0 -303 -340 -303q-161 0 -249.5 75t-88.5 228z" />
<glyph unicode="&#x43a;" horiz-adv-x="1280" d="M129 0v1053h375v-506q124 176 321 506h428q-108 -186 -198.5 -316t-130.5 -168q41 -17 74 -45t75.5 -88t91 -168t105.5 -268h-428q-61 165 -116.5 261.5t-105 139t-116.5 62.5v-463h-375z" />
<glyph unicode="&#x43b;" horiz-adv-x="1267" d="M53 0q116 431 158 1053h928v-1053h-375v733h-199q-25 -403 -123 -733h-389z" />
<glyph unicode="&#x43c;" horiz-adv-x="1683" d="M129 0v1053h516q22 -42 43.5 -85.5t45 -96.5t38.5 -88t44 -103.5t42 -99.5q124 311 203 473h493v-1053h-368v604q-46 -99 -111.5 -264.5t-109.5 -290.5h-258q-36 114 -99.5 286t-107.5 269v-604h-371z" />
<glyph unicode="&#x43d;" horiz-adv-x="1267" d="M129 0v1053h375v-353h260v353h375v-1053h-375v381h-260v-381h-375z" />
<glyph unicode="&#x43e;" horiz-adv-x="1212" d="M82 532q0 159 33 267t101.5 170t161.5 88t226 26q135 0 229 -26t163 -88t101.5 -170t32.5 -267q0 -160 -32.5 -269.5t-101 -173.5t-163 -91t-229.5 -27q-134 0 -227.5 27t-161.5 91t-100.5 173.5t-32.5 269.5zM457 526q0 -62 2.5 -103.5t10 -72.5t17 -48t27.5 -27.5 t38 -13.5t52 -3q39 0 62 5t42 20t28 45.5t13.5 77t4.5 120.5q0 95 -6 147.5t-25 81t-44.5 35.5t-74.5 7q-64 0 -92 -16.5t-41.5 -73t-13.5 -181.5z" />
<glyph unicode="&#x43f;" horiz-adv-x="1267" d="M129 0v1053h1010v-1053h-375v733h-260v-733h-375z" />
<glyph unicode="&#x440;" horiz-adv-x="1236" d="M129 -393v1405q85 31 224 51t270 20q143 0 239.5 -27t163.5 -91.5t97 -172t30 -268.5q0 -154 -34 -264.5t-95.5 -172t-137 -89t-169.5 -27.5t-213 35v-399h-375zM504 330q0 -22 35 -39t88 -17q87 0 120 52.5t33 189.5q0 111 -15.5 166t-47 73.5t-94.5 18.5 q-74 0 -119 -18v-426z" />
<glyph unicode="&#x441;" horiz-adv-x="970" d="M82 532q0 156 38.5 266t112 171t165.5 87.5t214 26.5q212 0 342 -45l-73 -311q-141 41 -232 41q-36 0 -58 -2t-46.5 -10t-38.5 -24t-26.5 -42.5t-17.5 -67t-5 -96.5q0 -79 11.5 -127.5t38.5 -72t58 -30.5t84 -7q108 0 232 45l73 -311q-62 -24 -158.5 -38t-183.5 -14 q-97 0 -175 16.5t-145.5 56.5t-113 103.5t-71 160.5t-25.5 224z" />
<glyph unicode="&#x442;" horiz-adv-x="1001" d="M0 733v320h1001v-320h-313v-733h-375v733h-313z" />
<glyph unicode="&#x443;" horiz-adv-x="1050" d="M-49 1053h377q103 -285 198 -668q124 376 191 668h368q-101 -359 -242.5 -738.5t-297.5 -707.5h-410q83 142 172 340q-122 448 -356 1106z" />
<glyph unicode="&#x444;" horiz-adv-x="1705" d="M84 524q0 131 16 223.5t49.5 158.5t92.5 104.5t138.5 55.5t192.5 17q73 0 93 -4v400h374v-400q20 4 93 4q113 0 192.5 -17t138.5 -55.5t92.5 -104.5t49.5 -158.5t16 -223.5q0 -125 -18.5 -220t-51.5 -158t-83 -102.5t-109 -56t-133 -16.5q-108 0 -187 35v-399h-374v399 q-79 -35 -187 -35q-74 0 -133 16.5t-109 56t-83 102.5t-51.5 158t-18.5 220zM436 516q0 -132 32.5 -187t100.5 -55q49 0 73 15t24 37v438q-31 10 -93 10q-53 0 -80 -18t-42 -74.5t-15 -165.5zM1040 326q0 -22 24 -37t73 -15q68 0 100.5 55t32.5 187q0 109 -15 165.5 t-42 74.5t-80 18q-62 0 -93 -10v-438z" />
<glyph unicode="&#x445;" horiz-adv-x="1064" d="M-39 0q98 116 395 524q-264 375 -389 529h422q28 -37 168 -236q69 99 152 236h401q-99 -158 -354 -518q269 -394 356 -535h-405q-49 86 -158 244q-29 -38 -71 -95.5t-69 -92.5t-44 -56h-404z" />
<glyph unicode="&#x446;" horiz-adv-x="1415" d="M129 0v1053h375v-734h260v734h375v-734h276l-84 -634h-307v315h-895z" />
<glyph unicode="&#x447;" horiz-adv-x="1200" d="M61 758v295h375v-279q0 -87 41.5 -119t106.5 -32q48 0 80 10t32 29v391h375v-1053h-375v352q-156 -59 -272 -59q-68 0 -118 9.5t-98.5 39t-79 79.5t-49 135t-18.5 202z" />
<glyph unicode="&#x448;" horiz-adv-x="1902" d="M129 0v1053h375v-734h260v734h375v-734h260v734h375v-1053h-1645z" />
<glyph unicode="&#x449;" horiz-adv-x="2050" d="M129 0v1053h375v-734h260v734h375v-734h260v734h375v-734h276l-84 -634h-307v315h-1530z" />
<glyph unicode="&#x44a;" horiz-adv-x="1288" d="M20 733v320h525v-342h334q151 0 239 -95t88 -266q0 -190 -84 -270t-243 -80h-709v733h-150zM545 256h213q28 0 45.5 24.5t17.5 65.5q0 45 -19 67.5t-52 22.5h-205v-180z" />
<glyph unicode="&#x44b;" horiz-adv-x="1744" d="M129 0v1053h375v-342h334q151 0 239 -95t88 -266q0 -190 -84 -270t-243 -80h-709zM504 256h213q28 0 45.5 23.5t17.5 64.5q0 45 -19 68.5t-52 23.5h-205v-180zM1241 0h375v1053h-375v-1053z" />
<glyph unicode="&#x44c;" horiz-adv-x="1247" d="M129 0v1053h375v-342h334q151 0 239 -95t88 -266q0 -190 -84 -270t-243 -80h-709zM504 256h213q28 0 45.5 24.5t17.5 65.5q0 45 -19 67.5t-52 22.5h-205v-180z" />
<glyph unicode="&#x44d;" horiz-adv-x="980" d="M31 23l69 280q85 -31 240 -31q70 0 115 29t61 107h-354v268h350q-19 63 -62 84.5t-110 21.5q-144 0 -240 -28l-69 284q130 45 342 45q526 0 526 -551q0 -561 -526 -561q-87 0 -183.5 14t-158.5 38z" />
<glyph unicode="&#x44e;" horiz-adv-x="1820" d="M129 0v1053h375v-353h196q17 109 57.5 184t107 118.5t150.5 62t197 18.5q108 0 188.5 -16t146 -54t107 -101t63.5 -157.5t22 -222.5q0 -160 -32.5 -269.5t-101 -173.5t-163.5 -91t-230 -27q-236 0 -361 92.5t-153 317.5h-194v-381h-375zM1065 526q0 -62 2.5 -103.5 t10 -72.5t17 -48t27.5 -27.5t38 -13.5t52 -3q39 0 62 5t42 20t28 45.5t13.5 77t4.5 120.5q0 95 -6 147.5t-25 81t-44.5 35.5t-74.5 7q-64 0 -92 -16.5t-41.5 -73t-13.5 -181.5z" />
<glyph unicode="&#x44f;" horiz-adv-x="1304" d="M31 0q56 170 106.5 258t110.5 126.5t158 51.5q-81 6 -139.5 33t-91 70t-47.5 93.5t-15 110.5q0 142 81 226t257 84h725v-1053h-375v307h-123q-83 0 -126.5 -60t-92.5 -247h-428zM518 678q0 -46 20 -66t50 -20h213v172h-215q-68 0 -68 -86z" />
<glyph unicode="&#x451;" horiz-adv-x="1144" d="M82 532q0 -561 526 -561q97 0 205 16t186 42l-53 278q-53 -12 -141 -20t-148 -8q-101 0 -145 25.5t-47 103.5h608q12 171 -1 289.5t-47 194.5t-99 118t-144 57.5t-196 15.5q-118 0 -206 -26.5t-157 -88t-105 -171t-36 -265.5zM193 1298q0 92 32 120t125 28q94 0 127 -28 t33 -120q0 -101 -33 -132t-127 -31q-92 0 -124.5 31t-32.5 132zM467 676q14 75 44 103t105 28q78 0 109.5 -26t32.5 -105h-291zM678 1298q0 93 32.5 120.5t127.5 27.5q93 0 125 -28t32 -120q0 -101 -32.5 -132t-124.5 -31q-95 0 -127.5 31t-32.5 132z" />
<glyph unicode="&#x452;" horiz-adv-x="1241" d="M49 1161v250h80v68h375v-68h170v-250h-170v-184q138 59 272 59q75 0 130 -14t105 -53t81 -104.5t49 -171.5t18 -251q0 -313 -80 -541.5t-198 -299.5l-291 241q85 59 129.5 208t44.5 376q0 70 -6 117t-16.5 75.5t-30 43.5t-40.5 19.5t-55 4.5q-45 0 -77 -9t-35 -26v-651 h-375v1161h-80z" />
<glyph unicode="&#x453;" horiz-adv-x="919" d="M129 0v1053h791v-320h-416v-733h-375zM291 1163l254 264h373l-320 -264h-307z" />
<glyph unicode="&#x454;" horiz-adv-x="980" d="M82 532q0 551 526 551q212 0 342 -45l-69 -284q-96 28 -240 28q-67 0 -110 -21.5t-62 -84.5h350v-268h-354q16 -78 61 -107t115 -29q155 0 240 31l69 -280q-62 -24 -157 -38t-181 -14q-530 0 -530 561z" />
<glyph unicode="&#x455;" horiz-adv-x="978" d="M61 713q0 87 26 152.5t69 106.5t106.5 66.5t131.5 35t151 9.5q89 0 191.5 -16.5t170.5 -42.5l-65 -270q-168 41 -314 41q-63 0 -86.5 -10t-23.5 -48q0 -29 25.5 -38t144.5 -27q185 -27 263.5 -97t78.5 -231q0 -373 -494 -373q-90 0 -197 16t-176 42l68 276 q156 -39 287 -39q88 0 121.5 11t33.5 49q0 21 -14 32.5t-55 20t-125 16.5q-83 8 -138.5 25.5t-98 53t-62 94.5t-19.5 145z" />
<glyph unicode="&#x456;" horiz-adv-x="628" d="M106 1356q0 57 9.5 90.5t36.5 52t63 24t100 5.5t100 -5.5t63 -24t36.5 -52t9.5 -90.5q0 -119 -43 -156t-166 -37t-166 37t-43 156zM129 0h375v1053h-375v-1053z" />
<glyph unicode="&#x457;" horiz-adv-x="628" d="M-86 1298q0 92 32.5 120t125.5 28q94 0 126.5 -28t32.5 -120q0 -101 -32.5 -132t-126.5 -31q-93 0 -125.5 31t-32.5 132zM129 0v1053h375v-1053h-375zM399 1298q0 93 32.5 120.5t127.5 27.5q93 0 125.5 -28t32.5 -120q0 -101 -32.5 -132t-125.5 -31q-95 0 -127.5 31 t-32.5 132z" />
<glyph unicode="&#x458;" horiz-adv-x="628" d="M-16 -117v-299q285 0 402.5 97t117.5 333v1039h-375v-1051q0 -56 -37 -87.5t-108 -31.5zM106 1356q0 57 9.5 90.5t36.5 52t63 24t100 5.5t100 -5.5t63 -24t36.5 -52t9.5 -90.5q0 -119 -43 -156t-166 -37t-166 37t-43 156z" />
<glyph unicode="&#x459;" horiz-adv-x="1882" d="M53 0q116 431 158 1053h928v-342h334q151 0 239 -95t88 -266q0 -190 -84 -270t-243 -80h-709v733h-199q-25 -403 -123 -733h-389zM1139 256h213q28 0 45.5 24.5t17.5 65.5q0 44 -19.5 67t-52.5 23h-204v-180z" />
<glyph unicode="&#x45a;" horiz-adv-x="1882" d="M129 0v1053h375v-342h260v342h375v-342h334q151 0 239 -95t88 -266q0 -190 -84 -270t-243 -80h-709v436h-260v-436h-375zM1139 256h213q28 0 45.5 25.5t17.5 66.5q0 88 -72 88h-204v-180z" />
<glyph unicode="&#x45b;" horiz-adv-x="1253" d="M49 1161v250h80v68h375v-68h170v-250h-170v-137q156 59 272 59q68 0 118 -9.5t98.5 -39t79 -79.5t49 -135t18.5 -202v-618h-375v602q0 152 -148 152q-48 0 -80 -10t-32 -29v-715h-375v1161h-80z" />
<glyph unicode="&#x45c;" horiz-adv-x="1280" d="M129 0v1053h375v-506q124 176 321 506h428q-108 -186 -198.5 -316t-130.5 -168q41 -17 74 -45t75.5 -88t91 -168t105.5 -268h-428q-61 165 -116.5 261.5t-105 139t-116.5 62.5v-463h-375zM459 1163l254 264h372l-319 -264h-307z" />
<glyph unicode="&#x45e;" horiz-adv-x="1050" d="M-49 1053h377q103 -285 198 -668q124 376 191 668h368q-101 -359 -242.5 -738.5t-297.5 -707.5h-410q83 142 172 340q-122 448 -356 1106zM182 1427h238q0 -56 25.5 -75t84.5 -19q57 0 83 19.5t26 74.5h221q0 -303 -340 -303q-161 0 -249.5 75t-88.5 228z" />
<glyph unicode="&#x45f;" horiz-adv-x="1267" d="M129 0v1053h375v-734h260v734h375v-1053h-334l-43 -393h-252l-43 393h-338z" />
<glyph unicode="&#x490;" horiz-adv-x="1138" d="M156 0v1427h704l86 394h252v-738h-651v-1083h-391z" />
<glyph unicode="&#x491;" horiz-adv-x="919" d="M129 0v1053h494l86 374h211v-694h-416v-733h-375z" />
<glyph unicode="&#x2000;" horiz-adv-x="910" />
<glyph unicode="&#x2001;" horiz-adv-x="1821" />
<glyph unicode="&#x2002;" horiz-adv-x="910" />
<glyph unicode="&#x2003;" horiz-adv-x="1821" />
<glyph unicode="&#x2004;" horiz-adv-x="607" />
<glyph unicode="&#x2005;" horiz-adv-x="455" />
<glyph unicode="&#x2006;" horiz-adv-x="303" />
<glyph unicode="&#x2007;" horiz-adv-x="303" />
<glyph unicode="&#x2008;" horiz-adv-x="227" />
<glyph unicode="&#x2009;" horiz-adv-x="364" />
<glyph unicode="&#x200a;" horiz-adv-x="101" />
<glyph unicode="&#x2010;" horiz-adv-x="677" d="M51 410v360h576v-360h-576z" />
<glyph unicode="&#x2011;" horiz-adv-x="677" d="M51 410v360h576v-360h-576z" />
<glyph unicode="&#x2012;" horiz-adv-x="677" d="M51 410v360h576v-360h-576z" />
<glyph unicode="&#x2013;" horiz-adv-x="1255" d="M92 410v360h1071v-360h-1071z" />
<glyph unicode="&#x2014;" horiz-adv-x="1828" d="M92 410v360h1645v-360h-1645z" />
<glyph unicode="&#x2018;" horiz-adv-x="604" d="M49 1034l223 547h287l-160 -547h-350z" />
<glyph unicode="&#x2019;" horiz-adv-x="604" d="M47 1014l160 547h350l-223 -547h-287z" />
<glyph unicode="&#x201a;" horiz-adv-x="563" d="M27 -326l159 547h351l-224 -547h-286z" />
<glyph unicode="&#x201c;" horiz-adv-x="1071" d="M49 1034l223 547h287l-160 -547h-350zM512 1034l223 547h287l-160 -547h-350z" />
<glyph unicode="&#x201d;" horiz-adv-x="1071" d="M49 1018l160 547h350l-223 -547h-287zM512 1018l160 547h350l-223 -547h-287z" />
<glyph unicode="&#x201e;" horiz-adv-x="1071" d="M49 -346l160 547h350l-223 -547h-287zM512 -346l160 547h350l-223 -547h-287z" />
<glyph unicode="&#x2020;" horiz-adv-x="968" d="M61 901v301h273v273h299v-273h274v-301h-274v-416h-299v416h-273z" />
<glyph unicode="&#x2021;" horiz-adv-x="968" d="M61 473v301h273v127h-273v301h273v273h299v-273h274v-301h-274v-127h274v-301h-274v-272h-299v272h-273z" />
<glyph unicode="&#x2022;" horiz-adv-x="1212" d="M82 676q0 159 33 267t101.5 170t161.5 88t226 26q135 0 229 -26t163 -88t101.5 -170t32.5 -267q0 -160 -32.5 -269.5t-101 -173.5t-163 -91t-229.5 -27q-134 0 -227.5 27t-161.5 91t-100.5 173.5t-32.5 269.5z" />
<glyph unicode="&#x2026;" horiz-adv-x="2193" d="M164 188q0 61 10 98t37 57.5t64.5 27t101.5 6.5q128 0 172.5 -35.5t44.5 -153.5q0 -67 -10 -106.5t-37.5 -62t-65.5 -30t-104 -7.5q-64 0 -101.5 7.5t-64.5 30t-37 62t-10 106.5zM879 188q0 61 10 98t37 57.5t64.5 27t101.5 6.5q128 0 172.5 -35.5t44.5 -153.5 q0 -67 -10 -106.5t-37.5 -62t-65.5 -30t-104 -7.5q-64 0 -101.5 7.5t-64.5 30t-37 62t-10 106.5zM1599 188q0 61 10 98t37 57.5t64.5 27t101.5 6.5q128 0 173 -35.5t45 -153.5q0 -53 -7.5 -89t-21.5 -59.5t-41.5 -36t-61.5 -17t-86 -4.5q-64 0 -101.5 7.5t-64.5 30t-37 62 t-10 106.5z" />
<glyph unicode="&#x202f;" horiz-adv-x="364" />
<glyph unicode="&#x2030;" horiz-adv-x="3072" d="M41 991q0 142 21 231.5t74 143.5t131.5 75t203.5 21t204 -21t132 -75t74.5 -143.5t21.5 -231.5q0 -144 -21.5 -237t-74 -150.5t-132.5 -80.5t-204 -23t-203.5 23t-131.5 80.5t-73.5 150.5t-21.5 237zM362 991q0 -111 9 -158.5t29.5 -62t70.5 -14.5t70 15t28.5 62t8.5 158 q0 64 -2.5 100.5t-8 63t-19.5 37t-30.5 14.5t-46.5 4q-50 0 -70.5 -13.5t-29.5 -58t-9 -147.5zM436 0l946 1427h334l-948 -1427h-332zM1262 463q0 142 21 231.5t74 143.5t131.5 75t203.5 21t204 -21t132 -75t74.5 -143.5t21.5 -231.5q0 -192 -42 -297.5t-133.5 -150 t-256.5 -44.5t-256 44.5t-132.5 150t-41.5 297.5zM1583 463q0 -111 9 -158.5t29.5 -62.5t70.5 -15q30 0 46.5 4.5t30 16t19 40t8 68t2.5 107.5q0 104 -8 147.5t-28 57.5t-70 14t-70.5 -13.5t-29.5 -58t-9 -147.5zM2169 463q0 142 21 231.5t74 143.5t131.5 75t203.5 21 t204 -21t132 -75t74.5 -143.5t21.5 -231.5q0 -192 -42 -297.5t-133.5 -150t-256.5 -44.5t-256 44.5t-132.5 150t-41.5 297.5zM2490 463q0 -111 9 -158.5t29.5 -62.5t70.5 -15q30 0 46.5 4.5t30 16t19 40t8 68t2.5 107.5q0 104 -8 147.5t-28 57.5t-70 14t-70.5 -13.5 t-29.5 -58t-9 -147.5z" />
<glyph unicode="&#x2039;" horiz-adv-x="851" d="M41 666l557 596l213 -211l-279 -381l279 -387l-211 -215z" />
<glyph unicode="&#x203a;" horiz-adv-x="851" d="M41 281l278 381l-278 387l211 215l559 -598l-557 -596z" />
<glyph unicode="&#x2044;" horiz-adv-x="1347" d="M27 0l987 1427h334l-990 -1427h-331z" />
<glyph unicode="&#x205f;" horiz-adv-x="455" />
<glyph unicode="&#x20a3;" horiz-adv-x="1189" d="M92 152v249h64v1026h1067v-344h-676v-258h403v-338h-403v-86h170v-249h-170v-152h-391v152h-64z" />
<glyph unicode="&#x20ac;" horiz-adv-x="1193" d="M90 727q0 174 27.5 300.5t79.5 210.5t137 133.5t190 70t250 20.5q102 0 220.5 -13.5t199.5 -35.5l-70 -344q-110 35 -258 35q-134 0 -205 -20t-108 -83h381v-227h-426v-51v-51h426v-228h-381q36 -67 106.5 -88.5t206.5 -21.5q148 0 258 35l70 -353q-185 -45 -420 -45 q-180 0 -303.5 36.5t-211 123t-128.5 233t-41 363.5z" />
<glyph unicode="&#x2122;" horiz-adv-x="1886" d="M0 1204v223h745v-223h-247v-532h-250v532h-248zM821 672v755h305l187 -393l176 393h295v-755h-242v401l-168 -344h-157l-154 344v-401h-242z" />
<glyph unicode="&#x2202;" horiz-adv-x="1290" d="M90 457q0 127 25 209t87 137.5t163.5 78.5t259.5 23h77q-107 209 -389 522h469q143 -152 236 -296t147 -315.5t54 -360.5q0 -96 -9.5 -164.5t-34 -126t-64.5 -93.5t-104.5 -60.5t-150.5 -35t-205 -10.5q-166 0 -270 22.5t-171 80.5t-93.5 150t-26.5 239zM496 449 q0 -77 29 -100t126 -23t123.5 30t26.5 131q0 57 -4 86q-41 2 -115 2q-66 0 -100 -4t-55 -19t-26 -37t-5 -66z" />
<glyph unicode="&#x220f;" horiz-adv-x="1554" d="M156 0v1427h1243v-1427h-389v1063h-463v-1063h-391z" />
<glyph unicode="&#x2211;" horiz-adv-x="1302" d="M0 0q31 47 86 136.5t103 170t126.5 212t118.5 198.5q-128 209 -245 414t-158 296h1235v-344h-588q54 -95 219 -374q-132 -218 -235 -365h628v-344h-1290z" />
<glyph unicode="&#x221a;" horiz-adv-x="1259" d="M0 676v377h416q103 -285 198 -668q260 791 318 1042h368q-75 -257 -233.5 -722t-255.5 -705h-438q-98 354 -205 676h-168z" />
<glyph unicode="&#x221e;" horiz-adv-x="1587" d="M51 721q0 120 15 202.5t42.5 136t77.5 83t109.5 40.5t148.5 11q85 0 142.5 -11t103.5 -40.5t71 -83.5t34 -137q7 83 32 137t71 83.5t103 40.5t142 11q89 0 148.5 -11t109.5 -40.5t77.5 -83t42.5 -136t15 -202.5t-15 -203.5t-42.5 -137t-77.5 -83t-109.5 -40.5t-148.5 -11 q-85 0 -142.5 11.5t-103 41t-70.5 83.5t-32 136q-9 -83 -34 -136.5t-71 -83t-103.5 -41t-142.5 -11.5q-89 0 -148.5 11t-109.5 40.5t-77.5 83t-42.5 137t-15 203.5zM387 721q0 -73 24 -101t105 -28q76 0 104.5 29.5t28.5 99.5q0 68 -28.5 97.5t-104.5 29.5q-81 0 -105 -27.5 t-24 -99.5zM938 719q0 -68 28.5 -97.5t104.5 -29.5q81 0 105 27.5t24 99.5q0 73 -24 101t-105 28q-76 0 -104.5 -29.5t-28.5 -99.5z" />
<glyph unicode="&#x222b;" horiz-adv-x="663" d="M-313 -365l59 269q116 -35 258 -35q72 0 110 33.5t38 97.5l2 1094q0 92 22 162.5t59 115t91.5 73t114.5 39.5t132 11q94 0 195 -16t168 -41l-78 -285q-89 29 -199 29q-74 0 -102.5 -26.5t-28.5 -90.5v-1065h-2q-1 -93 -28.5 -165.5t-72 -119t-106.5 -76.5t-126.5 -42.5 t-137.5 -12.5q-207 0 -368 51z" />
<glyph unicode="&#x2248;" d="M16 479q129 219 316 219q60 0 113 -17t91 -41t71.5 -47.5t68.5 -40.5t69 -17q46 0 72 26.5t55 104.5l230 -187q-41 -109 -135.5 -185.5t-223.5 -76.5q-51 0 -98.5 17.5t-83 42t-69 49t-70.5 42t-74 17.5q-39 0 -67 -24t-56 -89zM16 971q129 219 316 219q60 0 113 -17 t91 -41t71.5 -48t68.5 -41t69 -17q46 0 72 26.5t55 104.5l230 -186q-41 -109 -135.5 -185.5t-223.5 -76.5q-51 0 -98.5 17.5t-83 42t-69 49t-70.5 42t-74 17.5q-39 0 -67 -24t-56 -89z" />
<glyph unicode="&#x2260;" d="M51 236v360h252l154 313h-406v361h584l67 137h353l-68 -137h74v-361h-252l-154 -313h406v-360h-582l-71 -146h-353l72 146h-76z" />
<glyph unicode="&#x2264;" d="M51 -4v360h1010v-360h-1010zM84 866v154l741 489l193 -235l-443 -328l443 -334l-191 -237z" />
<glyph unicode="&#x2265;" d="M53 -4v360h1010v-360h-1010zM96 612l443 334l-443 328l193 235l741 -489v-154l-743 -491z" />
<glyph unicode="&#x25ca;" horiz-adv-x="1425" d="M18 516q93 227 209 483t205 428h596q145 -397 385 -911q-237 -504 -385 -909h-596q-89 171 -205 426.5t-209 482.5zM410 516q37 -96 134.5 -322t137.5 -315h51q17 51 134 316.5t139 320.5q-24 60 -140 324.5t-133 314.5h-51q-42 -91 -138.5 -317t-133.5 -322z" />
<glyph unicode="&#x25fc;" horiz-adv-x="1054" d="M0 0v1055h1055v-1055h-1055z" />
</font>
</defs>
</svg>
