<?xml version="1.0" standalone="no"?>
<!DOCTYPE svg PUBLIC "-//W3C//DTD SVG 1.1//EN" "http://www.w3.org/Graphics/SVG/1.1/DTD/svg11.dtd" >
<svg xmlns="http://www.w3.org/2000/svg">
<metadata></metadata>
<defs>
<font id="clio_c_bolditbold" horiz-adv-x="968" >
<font-face units-per-em="2048" ascent="1536" descent="-512" />
<missing-glyph horiz-adv-x="389" />
<glyph horiz-adv-x="0" />
<glyph horiz-adv-x="682" />
<glyph unicode=" "  horiz-adv-x="389" />
<glyph unicode="&#x09;" horiz-adv-x="389" />
<glyph unicode="&#xa0;" horiz-adv-x="389" />
<glyph unicode="!" horiz-adv-x="495" d="M133 117q9 79 31.5 101t101.5 22t97.5 -21t9.5 -102q-8 -76 -32 -99.5t-101 -23.5q-80 0 -98 23t-9 100zM160 356l116 1010h236l-117 -1010h-235z" />
<glyph unicode="&#x22;" horiz-adv-x="727" d="M184 920l109 442h229l-145 -442h-193zM459 920l129 442h231l-160 -442h-200z" />
<glyph unicode="#" horiz-adv-x="1077" d="M119 268l14 144h203l22 213h-202l18 153h203l29 269h174l-29 -269h121l30 269h172l-28 -269h205l-17 -153h-205l-24 -213h205l-15 -144h-204l-31 -272h-174l30 272h-120l-31 -272h-176l33 272h-203zM510 412h123l22 213h-120z" />
<glyph unicode="$" horiz-adv-x="921" d="M111 16l22 193q174 -23 340 -23q61 0 94 22.5t39 76.5q4 38 -21.5 69t-69 55.5t-97 49t-105.5 56.5t-94 71.5t-64 100.5t-14 136q17 143 102 219.5t220 87.5l22 199h211l-22 -199q56 -4 110.5 -9t83 -8t29.5 -3l-20 -190q-205 22 -375 22q-93 0 -105 -98q-3 -31 23 -59 t70 -52.5t97.5 -51t106 -61.5t94.5 -77t64 -104t14 -136q-17 -139 -101.5 -215.5t-215.5 -89.5l-21 -186h-211l21 186q-179 6 -227 18z" />
<glyph unicode="%" horiz-adv-x="1318" d="M174.5 942q0.5 47 7.5 109q13 112 30 174.5t52.5 98t80 45t126.5 9.5q53 0 88 -8.5t61 -30.5t35.5 -59t12.5 -93.5t-9 -135.5q-19 -188 -72.5 -257t-195.5 -69q-41 0 -69.5 3t-55 11t-42.5 23.5t-28.5 39t-17 58.5t-4 82zM193 0l860 1366h172l-863 -1366h-169zM349 897.5 q9 -29.5 59 -29.5q18 1 24.5 2t17.5 7t14.5 16.5t10 32t10.5 51t9 76.5q12 117 3 151.5t-53 34.5q-46 0 -60 -32t-26 -154l-6 -37q-12 -89 -3 -118.5zM769.5 196.5q0.5 52.5 8.5 125.5q8 75 17.5 125.5t26 88t35 58.5t51 33.5t67.5 16t90 3.5q53 0 87.5 -8.5t60.5 -30 t36 -58t13.5 -93t-7.5 -135.5q-9 -77 -20.5 -127.5t-30.5 -92t-48 -63.5t-70.5 -33.5t-100.5 -11.5q-48 0 -79.5 4t-60 16.5t-43.5 34.5t-24 58.5t-8.5 89zM941.5 167.5q8.5 -28.5 59.5 -28.5q18 1 24.5 2t17 7t14 15.5t9.5 31t10 50.5t9 77q12 118 4 152t-51 34 q-46 0 -61 -32.5t-27 -153.5l-2 -37q-15 -89 -6.5 -117.5z" />
<glyph unicode="&#x26;" horiz-adv-x="1026" d="M137 332l10 82q8 73 53 150.5t109 115.5q-60 46 -84 103t-18 155l8 84q37 334 444 334q121 0 306 -31l-19 -166q-250 23 -309 23q-92 0 -131.5 -41t-48.5 -131l-6 -70q-11 -91 24 -130.5t111 -39.5h114l9 96h227l-8 -96h86l-21 -184h-86l-63 -559q-214 -43 -330 -43 q-221 0 -305 81t-72 267zM383 342q-11 -108 32.5 -147t131.5 -39q34 0 86 10l47 420h-115q-77 0 -120.5 -38t-53.5 -132z" />
<glyph unicode="'" horiz-adv-x="462" d="M180 920l121 442h229l-151 -442h-199z" />
<glyph unicode="(" horiz-adv-x="536" d="M127 606q26 244 124 519.5t251 465.5l147 -131q-122 -204 -192 -432t-92 -422q-55 -507 96 -854l-174 -133q-113 195 -150.5 469t-9.5 518z" />
<glyph unicode=")" horiz-adv-x="538" d="M4 -248q222 357 281 854q10 122 10.5 253.5t-27 296.5t-80.5 306l181 131q109 -193 145.5 -467.5t9.5 -519.5q-30 -248 -126 -520.5t-248 -464.5z" />
<glyph unicode="*" horiz-adv-x="876" d="M180 1071l64 170l213 -84l28 252h179l-29 -252l227 84l31 -170l-236 -70l117 -204l-141 -117l-113 205l-160 -207l-120 119l155 202z" />
<glyph unicode="+" d="M113 414l20 186h287l37 326h227l-37 -326h289l-21 -186h-288l-37 -340h-228l37 340h-286z" />
<glyph unicode="," horiz-adv-x="487" d="M76 -63q49 30 78 67q-37 10 -47 40.5t-3 94.5q6 48 12 71t23.5 39t42.5 19.5t74 3.5q48 0 71.5 -4.5t38 -19t13 -40.5t-3.5 -69q-12 -99 -71.5 -174.5t-166.5 -140.5z" />
<glyph unicode="-" horiz-adv-x="743" d="M152 465l22 209h500l-23 -209h-499z" />
<glyph unicode="." horiz-adv-x="487" d="M102 47.5q-7 31.5 2 87.5q5 39 10 59.5t13.5 38t25.5 24t40 10t63 3.5q33 0 52.5 -1.5t35.5 -7t23.5 -13.5t11 -24.5t3 -36.5t-4.5 -52q-9 -89 -34.5 -115t-117.5 -26q-63 0 -89.5 11t-33.5 42.5z" />
<glyph unicode="/" horiz-adv-x="786" d="M18 -221l617 1581h239l-618 -1581h-238z" />
<glyph unicode="0" horiz-adv-x="1019" d="M145 301q0 79 19 258q16 135 35.5 224.5t51.5 161.5t80.5 111t117.5 59t167 20q195 0 270 -71t75 -255q0 -41 -19 -250q-16 -133 -35.5 -222t-52 -161.5t-81 -112.5t-118.5 -60.5t-168 -20.5q-195 0 -268.5 68.5t-73.5 250.5zM381 313q0 -92 27 -124.5t98 -32.5 q37 0 61.5 6t45 25t33 44t24 75t19.5 106t18 147q20 185 20 250q0 94 -28.5 126t-100.5 32q-43 0 -70 -11t-47.5 -34t-34.5 -75t-24 -114.5t-23 -173.5q-18 -191 -18 -246z" />
<glyph unicode="1" horiz-adv-x="653" d="M137 915l4 197h480l-121 -1112h-244l111 915h-230z" />
<glyph unicode="2" horiz-adv-x="870" d="M117 10l20 160q74 95 160.5 202t133 164t91 117t64 99.5t22.5 74.5q6 58 -17.5 84.5t-82.5 26.5q-48 0 -150.5 -3t-156.5 -3l20 182l283 4q72 0 123 -5.5t101 -23.5t78 -49.5t42 -85.5t6 -129q-5 -49 -31.5 -105t-74 -121t-93.5 -120.5t-116 -138.5t-115 -141h348 l-20 -189h-635z" />
<glyph unicode="3" horiz-adv-x="915" d="M57 -240l19 170q31 0 88.5 -1t83.5 -1q61 0 101.5 3t80.5 13.5t64 29.5t41 52t22 80l6 70q11 92 -22.5 130t-106.5 38h-221l20 180h222q72 0 114 38t52 126l10 84q5 45 -5 75.5t-28.5 48t-54.5 26.5t-70.5 11.5t-89.5 2.5l-197 -4l21 174l262 6q82 2 137.5 -1.5 t115.5 -22t92.5 -53t50 -98t7.5 -153.5l-12 -100q-7 -63 -29 -110.5t-51 -77t-75 -60.5q57 -38 82.5 -112t15.5 -148l-8 -78q-12 -100 -45 -166.5t-94.5 -105t-143 -54.5t-199.5 -16z" />
<glyph unicode="4" horiz-adv-x="1048" d="M53 174l17 154l548 784h300l-82 -747h176l-21 -191h-176l-45 -403h-231l43 403h-529zM340 365h264l51 466z" />
<glyph unicode="5" horiz-adv-x="899" d="M82 -246l18 170h226q120 0 175.5 38t67.5 142l9 76q11 106 -18.5 139t-117.5 33h-288l82 760h626l-20 -194h-393l-46 -386h68q94 0 156 -11t104.5 -36.5t60 -68t23.5 -105.5t-6 -149l-8 -68q-21 -191 -141 -266.5t-363 -75.5q-63 0 -111 0.5t-73 1t-31 0.5z" />
<glyph unicode="6" horiz-adv-x="1038" d="M168 332q64 571 86 696q25 118 76 189.5t144 108t237 36.5q8 0 307 -23l-21 -188q-225 18 -307 18q-43 -2 -71 -7.5t-52 -24t-37.5 -42.5t-26.5 -73.5t-21 -106t-19 -149.5q103 14 174 14q108 0 179.5 -22t109 -67.5t48.5 -106t1 -146.5l-10 -92q-42 -369 -435 -369 q-209 0 -295.5 92t-66.5 263zM414 328q-10 -92 24.5 -127t112.5 -35q81 0 119 41.5t47 134.5l10 102q9 82 -13.5 116t-97.5 34q-78 0 -176 -29z" />
<glyph unicode="7" horiz-adv-x="823" d="M113 918l20 194h741l-370 -1341h-238l320 1147h-473z" />
<glyph unicode="8" horiz-adv-x="1034" d="M133 332l8 80q10 80 56 155.5t116 112.5q-60 48 -84 105t-14 153l10 82q9 84 35.5 146t63.5 99.5t90 60.5t106 32t121 10q74 0 127.5 -6.5t106 -28t83 -58t45.5 -100t5 -151.5l-9 -84q-10 -95 -47.5 -152.5t-107.5 -105.5q63 -38 91.5 -112.5t18.5 -155.5l-6 -80 q-23 -187 -128.5 -270.5t-303.5 -83.5q-219 0 -312 77.5t-71 274.5zM371 340q-9 -90 26 -137t111 -47q94 0 144.5 44.5t60.5 141.5l8 74q19 170 -137 170h-27q-159 0 -180 -172zM449 938q-11 -91 22 -129.5t104 -38.5h25q71 0 113.5 39.5t52.5 130.5l8 70 q11 105 -19.5 141.5t-103.5 36.5q-45 0 -73 -5t-56 -22.5t-44 -55t-23 -97.5z" />
<glyph unicode="9" horiz-adv-x="993" d="M94 -254l23 188q216 -18 303 -18q43 2 71 7.5t52.5 24t38.5 43t27 73.5t21 105.5t19 149.5q-103 -14 -176 -14q-108 0 -179.5 22t-108 67.5t-47.5 106t-1 146.5l10 92q42 369 433 369q211 0 296.5 -91t67.5 -263q-67 -597 -88 -697q-36 -176 -139.5 -254.5t-317.5 -78.5 q-19 0 -305 22zM383 641q-8 -82 15 -115.5t98 -33.5q81 0 176 28l24 238q10 91 -24.5 126.5t-110.5 35.5q-82 0 -119.5 -41.5t-46.5 -135.5z" />
<glyph unicode=":" horiz-adv-x="512" d="M117 135q9 90 33 112.5t116 22.5t112 -22t11 -113q-9 -89 -35 -115t-118 -26q-91 0 -110.5 25.5t-8.5 115.5zM179.5 653.5q-6.5 31.5 2.5 87.5q9 88 34.5 112t117.5 24q90 0 111 -23.5t10 -112.5q-9 -89 -34.5 -115t-117.5 -26q-64 0 -90.5 11t-33 42.5z" />
<glyph unicode=";" horiz-adv-x="516" d="M92 -63q49 30 78 67q-37 10 -46.5 40.5t-2.5 94.5q7 63 19 88t40 35t92 10q39 0 61 -3.5t37 -10t20 -23.5t5 -37.5t-4 -58.5q-10 -98 -70 -174t-167 -141zM183.5 653.5q-6.5 31.5 2.5 87.5q9 89 34 112.5t118 23.5q90 0 110 -23t11 -113q-9 -88 -35.5 -114.5 t-118.5 -26.5q-63 0 -89 11t-32.5 42.5z" />
<glyph unicode="&#x3c;" horiz-adv-x="1058" d="M111 434l14 133l885 369l-25 -213l-567 -221l516 -223l-23 -213z" />
<glyph unicode="=" horiz-adv-x="1021" d="M143 252l21 192h754l-21 -192h-754zM176 565l23 191h753l-22 -191h-754z" />
<glyph unicode="&#x3e;" horiz-adv-x="1058" d="M119 63l22 216l568 223l-519 219l23 215l805 -371l-14 -133z" />
<glyph unicode="?" horiz-adv-x="874" d="M166 117q9 79 32 101t103 22q77 0 95.5 -21t9.5 -102q-8 -76 -32 -99.5t-102 -23.5q-79 0 -96.5 22.5t-9.5 100.5zM205 1214l20 177h238q92 0 147.5 -4t124.5 -22t104.5 -52.5t56.5 -99.5t11 -158l-6 -49q-21 -184 -120.5 -267.5t-313.5 -83.5l-29 -252h-229l47 437 l229 2q73 0 114.5 38t53.5 128l2 32q6 64 -2 100.5t-40.5 52t-60.5 18.5t-92 3h-9h-246z" />
<glyph unicode="@" horiz-adv-x="1335" d="M160 592q11 99 22.5 172.5t30.5 147t43.5 126t60 101t82 80t108 55.5t139 34.5t173.5 10.5q164 0 267.5 -33.5t158 -105t67 -182t-4.5 -265.5q-22 -191 -66.5 -303t-106.5 -155.5t-155 -43.5q-52 0 -100 26.5t-78 74.5q-100 -47 -172 -47q-116 0 -154.5 73t-19.5 242 q9 83 21.5 142t35.5 112.5t56 85.5t83 51t117 19q86 0 142 -14q50 -12 108 -35q-11 -80 -38 -272.5t-42 -295.5q15 -24 43 -24q33 0 57 24.5t37.5 70t21.5 88t15 99.5q3 22 4 33q21 168 9.5 272t-83 149.5t-233.5 45.5q-69 0 -122 -6.5t-95.5 -23.5t-73.5 -38t-55.5 -59 t-40.5 -77.5t-29.5 -102.5t-22 -124t-18.5 -151q-24 -217 51 -305t275 -88h186q-3 -28 -10 -85t-10 -85h-226q-277 0 -384.5 135.5t-73.5 450.5zM627.5 480q6.5 -40 34.5 -40q57 0 122 25q28 178 58 383q-41 6 -90 6q-57 0 -82 -51.5t-39 -179.5q-10 -103 -3.5 -143z" />
<glyph unicode="A" horiz-adv-x="1150" d="M-2 0l534 1366h332l246 -1366h-244l-61 350h-428l-129 -350h-250zM451 545h321l-98 588z" />
<glyph unicode="B" horiz-adv-x="1087" d="M131 0l152 1368h356q86 0 145 -5.5t123 -26t100 -56.5t55 -102q12 -43 12 -96q0 -28 -3 -60l-12 -88q-8 -89 -45 -144t-107 -102q55 -38 81 -113q18 -54 19 -107q0 -21 -3 -42l-9 -82q-11 -102 -45 -169t-98.5 -105.5t-150.5 -54t-214 -15.5h-356zM393 176h123 q113 0 170.5 40.5t67.5 139.5l8 72q2 20 2 37q0 59 -26 85q-34 34 -109 34h-193zM459 782h192q72 0 114.5 35t53.5 121l6 68q2 22 2 41v10q0 19 -3 35q-6 35 -20 54t-43.5 29t-57 12.5t-74.5 2.5h-123z" />
<glyph unicode="C" horiz-adv-x="1075" d="M142 392v10q0 92 14 214q11 99 20.5 168t22 142.5t26 122t32.5 99t41 81.5t52.5 61.5t66 47t81.5 30.5t100 18.5t121 4.5q19 0 74.5 -2.5t150.5 -11t170 -19.5l-18 -180q-309 26 -355 26q-38 0 -67.5 -2.5t-56 -11.5t-45.5 -19t-36.5 -32t-29.5 -43.5t-24 -60t-20 -75 t-17.5 -96.5t-16 -115t-16.5 -139q-8 -66 -12 -119q-2 -26 -2 -50t2 -45q4 -42 7 -74t17.5 -55.5t24 -39.5t35 -26.5t41.5 -16.5t52 -8.5t57.5 -3t67.5 -0.5q108 0 283 14l-18 -161q-209 -43 -392 -43q-81 0 -136.5 5.5t-109 21t-85.5 44.5t-58 75t-35 114q-9 64 -9 150z " />
<glyph unicode="D" horiz-adv-x="1196" d="M131 0l152 1368l469 2h14q79 0 136 -10q62 -11 113.5 -40t81.5 -78q31 -50 47 -128q16 -75 16 -178v-6q0 -107 -17 -252q-16 -141 -36 -243t-51 -179t-69 -125.5t-93.5 -78t-119.5 -41t-153 -11.5h-490zM395 186l238 -2q58 1 97 20.5t73 72.5t56.5 150.5t39.5 250.5 q13 118 18 198q3 42 3 79q0 33 -2 61q-4 58 -15 91t-36 52.5t-53.5 25t-74.5 5.5h-233z" />
<glyph unicode="E" horiz-adv-x="1052" d="M131 0l152 1368h796l-20 -197h-555l-43 -376h508l-21 -199h-510l-43 -401h553l-18 -195h-799z" />
<glyph unicode="F" horiz-adv-x="1013" d="M131 0l150 1366h806l-20 -192h-561l-43 -383h483l-22 -195h-484l-63 -596h-246z" />
<glyph unicode="G" horiz-adv-x="1095" d="M142 392v10q1 92 14 214q11 99 20.5 168t22 142.5t26 122t32.5 99t41 81.5t52.5 61.5t66 47t81.5 30t100 18.5t121 5q19 0 74.5 -2.5t150.5 -11t170 -19.5l-18 -180q-309 26 -355 26q-47 0 -82.5 -5.5t-65.5 -21.5t-50.5 -35t-38.5 -57.5t-29.5 -77t-23.5 -105 t-20 -129.5t-19 -163q-9 -82 -12 -145q-1 -29 -1 -55q0 -29 1 -54q4 -46 13 -77.5t24 -52t35.5 -31t46.5 -15.5t57 -5h68q12 1 19 1h18.5h20.5h50l39 342h-195l16 160h435l-72 -651q-163 -45 -400 -45q-81 0 -136.5 5.5t-109 21t-85.5 44.5t-58 75t-35 114q-9 64 -9 150z " />
<glyph unicode="H" horiz-adv-x="1230" d="M131 0l152 1368h245l-63 -575h444l64 575h248l-152 -1368h-248l68 604h-445l-67 -604h-246z" />
<glyph unicode="I" horiz-adv-x="530" d="M131 0l150 1366h243l-147 -1366h-246z" />
<glyph unicode="J" horiz-adv-x="618" d="M27 -12l18 166q124 8 156 15q79 20 92 87l2 12l121 1104h237l-121 -1098q-20 -179 -103 -244q-68 -52 -196 -52q-28 0 -59 2z" />
<glyph unicode="K" horiz-adv-x="1132" d="M131 0l152 1368h241l-63 -582h121l374 582h267l-435 -661l302 -707h-265l-260 600h-127l-63 -600h-244z" />
<glyph unicode="L" horiz-adv-x="960" d="M131 0l150 1366h245l-129 -1171h527l-21 -195h-772z" />
<glyph unicode="M" horiz-adv-x="1511" d="M131 0l152 1368h284l238 -786l412 786h292l-151 -1368h-236l103 940l-361 -704h-194l-197 704l-102 -940h-240z" />
<glyph unicode="N" horiz-adv-x="1261" d="M131 0l152 1368h278l344 -950l105 950h243l-151 -1368h-293l-340 922l-100 -922h-238z" />
<glyph unicode="O" horiz-adv-x="1187" d="M158 339v12q0 69 6 141q6 78 18 190q13 114 25.5 195t30.5 155.5t38.5 123.5t51 91.5t67 66.5t87.5 41.5t110.5 24t138.5 6.5q65 0 116 -4t94 -15t74.5 -26t56.5 -40.5t40.5 -54t25.5 -72.5t13 -90q2 -31 2 -71q-1 -19 -1 -41q-2 -66 -7 -133t-15 -157 q-13 -114 -24.5 -194.5t-29.5 -155.5t-38 -123.5t-51 -91t-67.5 -66.5t-88.5 -41.5t-113 -23.5t-143 -6q-81 0 -140.5 7t-106.5 25.5t-78 43t-51.5 68t-30.5 92t-10 123.5zM398 380q1 -12 1 -23q3 -116 44.5 -155.5t152.5 -39.5q57 0 94 6.5t68 30.5t48.5 55.5t34 96.5 t27 137t23.5 194q10 91 15 150q6 60 8 118q1 26 1 47v17q0 16 -1 28q-2 34 -12 67t-24.5 48.5t-39 28t-54.5 16.5t-73 4q-42 0 -73 -4t-57.5 -17.5t-44 -29t-33.5 -49.5t-25.5 -66.5t-19.5 -93.5t-17 -116t-17 -148q-25 -189 -26 -302z" />
<glyph unicode="P" horiz-adv-x="1150" d="M131 0l150 1366h505q75 0 135.5 -9.5t114 -33.5t87.5 -62q33 -38 49 -99q10 -40 10 -88q0 -25 -2 -52l-19 -160q-14 -124 -108 -221t-224 -117q-53 -8 -397 -8l-55 -516h-246zM453 700h256q43 0 75 6t63.5 22t50.5 49.5t24 84.5l18 158q1 15 1 29q0 33 -8 57 q-12 34 -40 51t-57.5 23t-71.5 6h-256z" />
<glyph unicode="Q" horiz-adv-x="1171" d="M148 371q0 130 22 311q17 153 34 251.5t45.5 183.5t64.5 132t94.5 80.5t132 45t180.5 11.5q82 0 141.5 -6.5t107.5 -24.5t79 -42t52 -67.5t30 -91.5t9 -124q1 -6 1 -12q0 -70 -6 -143q-6 -79 -19 -193q-34 -326 -89 -467.5t-187 -191.5l116 -58l-96 -192l-409 213 q-155 16 -222.5 84t-78.5 218q-2 38 -2 83zM387 357q3 -116 44.5 -155.5t152.5 -39.5q57 0 94 6.5t68 30.5t48.5 55.5t33.5 96.5t26 137t23 194q11 91 16.5 150t8.5 118q1 30 1 53t-1 40q-3 34 -12.5 66.5t-24 48t-38.5 28t-54 16.5t-73 4q-34 0 -60.5 -2.5t-50 -11 t-40.5 -17.5t-32.5 -29t-26 -38.5t-20.5 -54t-16.5 -66.5t-14.5 -84.5t-13.5 -100t-13.5 -120.5q-25 -189 -25 -302v-23z" />
<glyph unicode="R" horiz-adv-x="1189" d="M131 0l150 1366h510q75 0 135.5 -9.5t113.5 -33.5t87 -62q33 -38 49 -99q10 -40 10 -88q0 -25 -2 -52l-19 -160q-17 -160 -159 -270l34 -592h-256l-22 518q-41 -2 -330 -2l-55 -516h-246zM453 700h256q43 0 75 6t63.5 22t50.5 49.5t24 84.5l18 158q1 15 1 29q0 33 -8 57 q-12 34 -40 51t-57.5 23t-71.5 6h-256z" />
<glyph unicode="S" horiz-adv-x="1028" d="M133 0l21 195q243 -23 407 -23q74 0 112.5 37.5t47.5 120.5q1 10 1 20q0 33 -13 62q-17 38 -49.5 67.5t-76 58t-92 56t-96.5 57t-90.5 66t-74 79t-46.5 100.5q-10 39 -10 82q0 20 2 42q21 188 132.5 280.5t283.5 92.5q218 0 422 -19l-23 -198q-249 26 -407 26 q-144 0 -158 -145q-1 -9 -1 -17q1 -40 25 -78q30 -44 80.5 -79t113 -70.5t124.5 -78t112 -92.5q49 -52 75 -126q19 -54 19 -115q0 -24 -3 -49q-21 -186 -135 -279t-283 -93q-170 0 -420 20z" />
<glyph unicode="T" horiz-adv-x="1060" d="M158 1174l20 192h969l-21 -192h-360l-129 -1174h-248l129 1174h-360z" />
<glyph unicode="U" horiz-adv-x="1230" d="M173 339v23q1 64 5 130q6 78 17 190l77 688h246l-78 -688q-8 -73 -12 -119t-8 -99t-4 -83.5t3 -66t9.5 -53.5t17.5 -38.5t26 -29.5t36.5 -17.5t47.5 -11t60 -2.5q43 0 74 3.5t59 15.5t46 27.5t34.5 47.5t27 66t21 92t18 117.5t17.5 150.5l78 688h244l-78 -688 q-12 -114 -24 -194.5t-29.5 -155.5t-38 -123.5t-51.5 -91t-68 -66.5t-90 -41.5t-115 -23.5t-145 -6q-82 0 -142.5 7t-108 25.5t-79 43t-52.5 68t-30.5 92t-10.5 123.5z" />
<glyph unicode="V" horiz-adv-x="1165" d="M156 1366h247l179 -1133l440 1133h244l-543 -1366h-332z" />
<glyph unicode="W" horiz-adv-x="1685" d="M176 1366h240l96 -1090l356 1094h228l100 -1098l334 1094h237l-421 -1366h-318l-96 956l-320 -956h-303z" />
<glyph unicode="X" horiz-adv-x="1091" d="M25 0l452 690l-289 676h263l188 -438l289 438h260l-434 -672l301 -694h-262l-203 467l-301 -467h-264z" />
<glyph unicode="Y" horiz-adv-x="1067" d="M139 1368h275l174 -645l323 645h275l-504 -934l-47 -434h-250l47 434z" />
<glyph unicode="Z" horiz-adv-x="1071" d="M63 0l19 172l729 1002h-606l22 196h887l-20 -180l-721 -997h624l-20 -193h-914z" />
<glyph unicode="[" horiz-adv-x="587" d="M78 -274l211 1916h422l-21 -180h-188l-172 -1552h190l-20 -184h-422z" />
<glyph unicode="\" horiz-adv-x="788" d="M193 1358h239l266 -1579h-237z" />
<glyph unicode="]" horiz-adv-x="587" d="M2 -274l21 184h188l170 1552h-188l20 180h422l-211 -1916h-422z" />
<glyph unicode="^" horiz-adv-x="911" d="M143 782l349 596h204l215 -596h-227l-115 367l-194 -367h-232z" />
<glyph unicode="_" horiz-adv-x="1099" d="M84 -141l16 137h856l-14 -137h-858z" />
<glyph unicode="`" horiz-adv-x="647" d="M266 1475l162 88l143 -361l-157 -86z" />
<glyph unicode="a" d="M106 332q0 96 13 246q26 245 107.5 353.5t244.5 108.5q73 0 207.5 -17.5t245.5 -49.5l-103 -979h-174l-18 84q-68 -44 -144.5 -70t-134.5 -26q-73 0 -123 28t-75.5 80t-35.5 109.5t-10 132.5zM342 351q0 -70 8 -128q6 -56 30 -70q11 -7 30 -7t45 8q37 9 168 69l67 641 q-93 13 -156 13h-22q-35 -1 -62 -25t-42.5 -57t-27 -80t-16.5 -84t-9 -78q-1 -8 -1 -12q-12 -104 -12 -190z" />
<glyph unicode="b" d="M113 14l153 1397h234l-45 -401q131 30 209 30q172 0 232 -106q41 -72 41 -209q0 -64 -9 -141q-10 -86 -19 -146.5t-22.5 -123t-30.5 -104.5t-41.5 -82.5t-56 -64.5t-73.5 -43.5t-95 -27.5t-119 -8q-139 0 -358 30zM365 176q33 -2 120 -2h2q39 0 67 9.5t47.5 32.5t32.5 52 t23 77t17 98.5t16 125.5v2q11 83 11 142q0 31 -3 57q-9 72 -55 82q-17 6 -44 6q-59 0 -163 -27z" />
<glyph unicode="c" horiz-adv-x="933" d="M129 301q0 70 10 162q10 91 19.5 155t23.5 125.5t30.5 102t40.5 77t53.5 57t70 36.5t90 22t113.5 6q16 0 69 -3t137.5 -11.5t141.5 -19.5l-19 -174q-273 24 -319 24q-25 0 -44.5 -2t-36.5 -9t-29 -13.5t-23.5 -23t-19 -29.5t-15 -42t-12 -51t-10.5 -65t-10 -76t-11 -92 q-7 -57 -7 -99v-10q0 -36 4 -64q4 -32 15 -52.5t25 -33.5t38 -20t49 -9.5t62 -2.5q87 0 281 18l-19 -155q-74 -21 -177 -34t-181 -13q-61 0 -103.5 4t-84 16t-67.5 34t-47 57t-29.5 86.5t-8.5 121.5z" />
<glyph unicode="d" d="M133 339q0 82 12 185l7 60q33 252 110 356t246 104q105 0 201 -24l41 389h235l-154 -1409h-190q-5 30 -8 70q-164 -82 -254 -82q-154 0 -210 126q-36 80 -36 225zM372 318q0 -26 2 -46q8 -92 60 -92q69 0 187 62l67 602q-56 14 -96 18q-14 2 -27 2q-23 0 -43 -5 q-32 -8 -52 -26t-35.5 -54t-24.5 -83t-17 -118q-21 -167 -21 -260z" />
<glyph unicode="e" d="M127 297q0 67 14 217q13 110 26.5 183.5t36 138t53 101.5t78.5 64t110 37.5t149 10.5q201 0 279.5 -68.5t78.5 -241.5v-39q0 -14 -1 -26.5t-6.5 -40t-16 -49t-32.5 -48.5t-51.5 -45t-77.5 -31t-108 -14l-297 -4q-6 -83 -6 -141q0 -44 9.5 -74.5t22.5 -46.5t38 -24 t44.5 -9.5t53.5 -1.5q124 0 316 25l-13 -147q-199 -41 -376 -41q-180 0 -252 71t-72 244zM383 606h289q61 0 61 94v25q0 97 -32.5 130.5t-118.5 33.5q-29 0 -51.5 -3.5t-40.5 -13t-31 -19t-23.5 -30t-17.5 -38t-13.5 -50t-11 -58.5t-10.5 -71z" />
<glyph unicode="f" horiz-adv-x="727" d="M25 -381l6 113q117 20 135 141q2 13 8 82t29.5 298.5t64.5 604.5h-137l14 164h140q9 87 20 145.5t30.5 105t44 73t64.5 43t87.5 22.5t117.5 6q95 0 207 -16l-12 -148h-180q-32 0 -49 -1.5t-34.5 -10t-25.5 -21.5t-16.5 -41t-12.5 -63.5t-8 -93.5h217l-14 -164h-217 l-109 -950q-32 -299 -262 -299q-38 0 -108 10z" />
<glyph unicode="g" horiz-adv-x="925" d="M125 -348q0 5 22.5 80.5t24.5 79.5q16 -2 59 -10t71 -12.5t73.5 -8.5t87.5 -4q39 0 65.5 13.5t42.5 35t25.5 62t14.5 80.5t11 104v5t0.5 4.5t0.5 4.5q-43 -2 -136 -2q-46 0 -83.5 4t-79.5 14t-73 30.5t-57 51t-39.5 77.5t-13.5 108q0 50 11 125q14 125 33 210.5 t52.5 156.5t84 111t124 61.5t175.5 21.5q67 0 319 -31l-117 -1126q-17 -151 -104.5 -220t-245.5 -69q-166 0 -348 43zM370 371q2 -46 18 -74t47.5 -36.5t80.5 -11.5q21 -1 45 -1q33 0 72 2l74 635q-53 4 -86 4q-142 0 -176.5 -59t-67.5 -334q-7 -65 -7 -107v-18z" />
<glyph unicode="h" horiz-adv-x="1013" d="M115 0l151 1395h234l-47 -420q4 1 36.5 11t43 13t40 11t46 11.5t40.5 8t44 6.5t38 2q229 0 229 -211q0 -22 -3 -47l-86 -780h-238l84 764q1 9 1 16q0 62 -50 62q-114 0 -244 -47l-86 -795h-233z" />
<glyph unicode="i" horiz-adv-x="489" d="M115 0l112 1022h242l-113 -1022h-241zM234 1197q0 22 4 50q9 88 33.5 110.5t113.5 22.5q33 0 51.5 -1t35 -6.5t22.5 -12.5q8 -8 12 -24q3 -10 3 -23v-6v-7q-1 -20 -5 -53q-9 -84 -35 -109.5t-113 -25.5q-62 0 -87.5 11t-31.5 41q-3 14 -3 33z" />
<glyph unicode="j" horiz-adv-x="468" d="M-39 -373l14 129q66 11 91 42t32 85l125 1141h240l-123 -1108q-10 -90 -33.5 -151t-61 -92t-79.5 -43.5t-98 -12.5q-33 0 -107 10zM232 1195q0 22 4 52q9 88 32.5 110.5t112.5 22.5q91 0 111 -21q13 -14 13 -59q0 -23 -3 -53q-9 -84 -36 -109.5t-114 -25.5q-62 0 -87 11 t-31 41q-2 13 -2 31z" />
<glyph unicode="k" horiz-adv-x="1028" d="M115 0l151 1391h236l-80 -709h121l291 487h245l-344 -579l264 -590h-254l-221 496h-123l-53 -496h-233z" />
<glyph unicode="l" horiz-adv-x="509" d="M138 204q0 37 5 81l123 1106h240l-129 -1141q-1 -30 -1 -55t20.5 -43.5t64.5 -26.5l-15 -129q-72 -12 -94 -12q-57 0 -96.5 13t-70.5 45t-41 92q-5 31 -6 70z" />
<glyph unicode="m" horiz-adv-x="1531" d="M115 0l112 1022h197l14 -68q62 28 100.5 43.5t95 30t103.5 14.5q106 0 185 -92q13 5 55 21t58.5 22.5t52 18t57.5 16.5t52 9.5t56 4.5q127 0 185 -66q47 -54 48 -149q0 -23 -3 -47l-86 -780h-242l84 754q1 8 1 16q0 66 -48 66q-91 0 -225 -39q-14 -129 -43 -398.5 t-43 -398.5h-240l84 762q1 8 1 15q0 61 -48 61q-87 0 -242 -56l-84 -782h-237z" />
<glyph unicode="n" horiz-adv-x="1013" d="M115 0l112 1022h199l12 -72q13 5 58 24t65 27t55.5 20t64.5 16.5t58 4.5q113 0 178 -64q54 -53 54 -149q0 -19 -2 -41l-84 -788h-240l82 762q1 10 1 19q0 57 -52 57q-37 0 -106 -16t-132 -40l-84 -782h-239z" />
<glyph unicode="o" horiz-adv-x="1019" d="M129 298q0 27 1 55q3 65 13 159q12 111 26 185.5t38 138t55 100t79.5 62t110.5 35t150 9.5q89 0 150 -10t104 -36.5t66 -63.5q24 -36 34 -100q7 -44 7 -94v-13q-1 -15 -1 -30q-2 -73 -14 -183q-12 -109 -26 -183t-37.5 -137t-55 -100t-80.5 -63.5t-112.5 -36.5 t-151.5 -10q-76 0 -131 8.5t-96.5 24.5t-67 47t-40.5 68.5t-19 97.5q-2 34 -2 70zM361 288q4 -80 34.5 -107t110.5 -27q40 0 66.5 5t48 22.5t34.5 39.5t24 67t18 93.5t16 130.5q10 84 14 134q3 37 3 71v25q-2 46 -10 68.5t-26.5 39.5t-44 22t-65.5 5q-30 0 -52 -3 t-40.5 -12.5t-31.5 -20.5t-24.5 -34.5t-18.5 -47t-14.5 -65t-13 -80.5t-12.5 -102q-16 -114 -16 -188v-8v-15v-13z" />
<glyph unicode="p" d="M70 -387l157 1409h189q1 -15 10 -70q164 82 252 82q154 0 209 -126q35 -81 35 -226q0 -82 -11 -184l-6 -60q-18 -128 -42.5 -211.5t-66 -141.5t-101.5 -83t-148 -25q-99 0 -197 25l-45 -389h-235zM369 178q56 -14 95 -18q15 -2 28 -2q23 0 42 4q32 8 52.5 26.5t36 54.5 t24.5 83.5t17 117.5q20 164 20 256q0 28 -2 50q-8 92 -61 92q-63 0 -187 -62z" />
<glyph unicode="q" horiz-adv-x="970" d="M125 309q0 62 8 137q9 85 18 146t22.5 123.5t30.5 105t41.5 82.5t56 64.5t74 44t95.5 27.5t119 8q131 0 358 -31l-153 -1397h-234l45 401q-128 -30 -209 -30q-171 0 -231 105q-41 73 -41 214zM361 312q0 -29 3 -52q8 -71 54 -82q17 -6 44 -6q58 0 161 27l73 655 q-33 2 -118 2h-5q-39 0 -67 -10t-47 -31.5t-32.5 -53t-22.5 -76t-16 -99t-15 -124.5v-3q-12 -86 -12 -147z" />
<glyph unicode="r" horiz-adv-x="684" d="M115 0l112 1024h213l2 -76q59 29 84 40t90.5 30t137.5 26l-21 -190q-105 -9 -295 -86l-84 -768h-239z" />
<glyph unicode="s" horiz-adv-x="870" d="M117 16l20 181q158 -21 314 -21q54 0 83 19.5t33 66.5q1 5 1 9q0 28 -20 52q-24 28 -63.5 50t-88 45t-96 53t-85.5 66.5t-58 92.5q-14 40 -14 86q0 19 2 38q17 144 110 216t234 72q84 0 172 -5.5t135 -10.5l46 -6l-21 -182q-184 20 -344 20q-81 0 -90 -84 q-3 -28 20.5 -53.5t63.5 -47t89 -45.5t97 -55.5t86 -70t58 -95.5q14 -41 15 -88q0 -19 -3 -38q-17 -143 -111 -215t-235 -72q-83 0 -170.5 5.5t-133.5 10.5z" />
<glyph unicode="t" horiz-adv-x="755" d="M129 852q3 31 10.5 90.5t10.5 81.5h204q4 38 13.5 121.5t13.5 126.5h233l-28 -248h207q-3 -28 -10.5 -86.5t-10.5 -85.5h-209l-61 -604q0 -56 18.5 -73.5t63.5 -20.5q13 -1 27 -1q48 0 106 11q-5 -32 -9 -86.5t-6 -75.5q-85 -20 -147 -20q-163 0 -224 61t-61 190 q0 45 62 619h-203z" />
<glyph unicode="u" horiz-adv-x="1011" d="M133 192q0 20 2 41l86 789h240l-84 -764q-1 -9 -1 -18q0 -56 54 -56q36 0 104.5 16t131.5 40l86 782h239l-112 -1022h-199l-14 72q-13 -5 -58 -24t-65 -27t-55.5 -20t-64.5 -16.5t-58 -4.5q-113 0 -178 63q-54 52 -54 149z" />
<glyph unicode="v" horiz-adv-x="946" d="M131 1024h246l125 -731l284 731h242l-424 -1024h-270z" />
<glyph unicode="w" horiz-adv-x="1404" d="M156 1024h237l51 -627l228 627h254l92 -627l190 627h236l-318 -1024h-272l-94 662l-236 -662h-274z" />
<glyph unicode="x" horiz-adv-x="841" d="M37 0l321 508l-202 514h243l109 -303l172 303h244l-316 -514l211 -508h-239l-119 291l-176 -291h-248z" />
<glyph unicode="y" horiz-adv-x="948" d="M113 -332l51 111q63 -17 65 -17q32 0 62 39.5t65 115.5t39 83h-45l-196 1024h241l127 -668l269 668h235l-494 -1204q-46 -104 -111.5 -158.5t-137.5 -54.5q-93 0 -170 61z" />
<glyph unicode="z" horiz-adv-x="847" d="M66 0l16 147l471 697h-387l20 182h670l-18 -152l-469 -690h401l-20 -184h-684z" />
<glyph unicode="{" horiz-adv-x="634" d="M86 629l14 110q80 59 112 109.5t42 142.5l39 355q8 76 26 126.5t57.5 91t109 59.5t173.5 19h97l-21 -178h-96q-62 0 -80.5 -24t-26.5 -94l-38 -355q-11 -102 -46 -173.5t-108 -133.5q57 -59 77 -131t9 -172l-39 -354q-8 -74 5 -97.5t77 -23.5h94l-20 -180h-94 q-104 0 -170 21t-95 60.5t-38 95t1 124.5l39 354q10 91 -11 141t-89 107z" />
<glyph unicode="|" horiz-adv-x="425" d="M63 -399l220 1974h192l-217 -1974h-195z" />
<glyph unicode="}" horiz-adv-x="634" d="M0 -274l20 180h97q63 0 81.5 23.5t26.5 97.5l39 354q11 101 46.5 173.5t105.5 131.5q-56 61 -75.5 132.5t-8.5 172.5l39 355q7 71 -7 94.5t-77 23.5h-94l18 178h96q105 0 171 -20t95.5 -57.5t38 -93t-1.5 -125.5l-39 -355q-10 -94 10.5 -144t88.5 -110l-15 -106 q-54 -41 -82 -71.5t-45 -73t-24 -105.5l-39 -354q-8 -75 -26.5 -125.5t-58 -93t-110 -62.5t-174.5 -20h-96z" />
<glyph unicode="~" horiz-adv-x="956" d="M147 549q138 123 232 123q52 0 140.5 -29t133.5 -29q57 0 166 93l78 -138q-47 -63 -121 -100t-135 -37q-67 0 -115.5 13.5t-80 29t-50.5 17.5q-31 0 -69 -21t-101 -78q-12 27 -78 156z" />
<glyph unicode="&#xa2;" horiz-adv-x="985" d="M157 451.5q0 71.5 11 166.5q12 112 24 186.5t30.5 143.5t43 109.5t61.5 73t85.5 47.5t115.5 20l19 158h213l-19 -162q89 -8 211 -29l-18 -174q-295 23 -318 23q-117 0 -148.5 -68t-61.5 -334q-7 -65 -7.5 -112t8 -80t22 -53t39 -31.5t54 -15t72.5 -3.5q34 0 79 3 t105.5 7.5t93.5 6.5l-18 -156q-106 -26 -229 -39l-19 -157h-211l19 153q-53 4 -92 15t-71.5 33t-52 57.5t-30.5 87.5t-11 123.5z" />
<glyph unicode="&#xa3;" horiz-adv-x="952" d="M66 0l18 170q78 4 105.5 43t41.5 158l31 274h-106l16 154h107l14 123q25 234 105.5 335t260.5 105q136 0 308 -47l-17 -156q-192 35 -288 35q-27 0 -48 -14.5t-33.5 -35.5t-21.5 -56t-13.5 -64t-8.5 -72l-19 -153h336l-16 -154h-336l-35 -313q-13 -105 -35 -152h420 l-18 -180h-768z" />
<glyph unicode="&#xa5;" horiz-adv-x="1099" d="M199 1372h243l193 -565l323 565h244l-454 -790h221l-21 -172h-704l20 172h215zM223 178l19 170h706l-18 -170h-242l-26 -178h-234l25 178h-230z" />
<glyph unicode="&#xa8;" horiz-adv-x="794" d="M248 1251q9 78 31 99.5t98 21.5q73 0 91.5 -21.5t10.5 -99.5q-8 -71 -31.5 -93.5t-97.5 -22.5q-75 0 -92.5 21.5t-9.5 94.5zM582 1251q9 79 30 100t97 21t94 -21t10 -100q-7 -51 -16 -72.5t-34.5 -32.5t-80.5 -11q-74 0 -91 21.5t-9 94.5z" />
<glyph unicode="&#xa9;" horiz-adv-x="1443" d="M150 670q16 144 76 271t152 220.5t218.5 148t267.5 54.5q189 0 327 -93t200 -251t41 -350q-15 -141 -76 -267t-154.5 -219t-221 -147.5t-269.5 -54.5q-188 0 -324.5 93t-197 249.5t-39.5 345.5zM311 670q-16 -148 29.5 -270.5t147 -195.5t239.5 -73q141 0 261 73 t194 195.5t90 270.5q16 150 -30.5 273.5t-150 196t-243.5 72.5q-139 0 -257 -72.5t-191 -196t-89 -273.5zM511 526q0 49 7 113q8 73 15.5 121t18.5 95t26.5 74.5t36.5 52t50.5 36t67.5 18t90 6.5q11 0 47.5 -2t96 -8t98.5 -14l-14 -119q-164 14 -222 14q-81 0 -103 -48 t-40 -230q-5 -46 -5.5 -79t5.5 -55.5t15 -36t26.5 -21t36.5 -9.5t49 -2q79 0 193 12l-11 -110q-140 -31 -247 -31q-43 0 -72.5 3t-59 11t-47 23.5t-32.5 40t-20.5 60.5t-5.5 85z" />
<glyph unicode="&#xab;" horiz-adv-x="956" d="M117 514l311 444l160 -124l-223 -320l153 -317l-188 -123zM506 514l313 440l162 -120l-225 -320l155 -315l-188 -123z" />
<glyph unicode="&#xad;" horiz-adv-x="743" d="M152 465l22 209h500l-23 -209h-499z" />
<glyph unicode="&#xae;" horiz-adv-x="899" d="M193 1010q18 165 129 277t270 112q106 0 183 -52.5t111.5 -140.5t22.5 -196q-19 -164 -131 -275.5t-272 -111.5q-159 0 -245.5 111.5t-67.5 275.5zM272 1008q-14 -129 55.5 -218.5t186.5 -89.5q119 0 209 89.5t104 218.5q14 131 -54.5 221t-188.5 90q-118 0 -208 -90.5 t-104 -220.5zM406 817l43 379h141q56 0 86 -22.5t24 -75.5l-4 -43q-6 -45 -43 -74l11 -164h-82l-4 141h-78l-17 -141h-77zM506 1018h61q49 0 54 37l4 43q1 24 -10.5 31.5t-34.5 7.5h-60z" />
<glyph unicode="&#xb4;" horiz-adv-x="628" d="M279 1212l223 361l143 -88l-231 -359z" />
<glyph unicode="&#xb8;" horiz-adv-x="651" d="M176 -436q5 22 29 106q19 0 55 -3t55 -3q30 0 37 8.5t10 40.5q0 8 1 15.5t-6.5 13.5t-22.5 6h-6q-17 1 -52 2t-53 2l62 248h157l-36 -139q69 -4 95 -36.5t21 -88.5q-17 -107 -60.5 -149t-125.5 -42q-46 0 -160 19z" />
<glyph unicode="&#xbb;" horiz-adv-x="958" d="M96 201l221 315l-151 320l188 120l213 -440l-311 -438zM487 199l222 317l-150 320l186 125l213 -445l-311 -440z" />
<glyph unicode="&#x2c6;" horiz-adv-x="804" d="M201 1128l340 271l272 -275l-119 -135l-182 182l-236 -178z" />
<glyph unicode="&#x2da;" horiz-adv-x="575" d="M244 1268q8 77 59.5 129.5t128.5 52.5q81 0 122 -52t32 -130q-9 -79 -60.5 -131t-130.5 -52q-80 0 -121 51t-30 132zM350 1268q-4 -35 11.5 -56.5t44.5 -21.5t48.5 21.5t24.5 56.5q3 34 -12.5 56t-44.5 22t-49 -22t-23 -56z" />
<glyph unicode="&#x2dc;" horiz-adv-x="831" d="M238 1192q39 71 94.5 116.5t111.5 45.5q40 0 105 -37t80 -37q30 0 88 76q18 -16 53 -43.5l49 -38.5q-83 -154 -196 -154q-37 0 -100 37t-95 37q-26 0 -75 -60q-4 -5 -11 -15l-8 -9q-15 14 -48 41t-48 41z" />
<glyph unicode="&#x401;" horiz-adv-x="1052" d="M131 0l152 1368h796l-20 -197h-555l-43 -376h508l-21 -199h-510l-43 -401h553l-18 -195h-799zM422 1614q9 79 30 99t97 20q79 0 97.5 -20t8.5 -99q-6 -74 -29 -97.5t-102 -23.5q-75 0 -92.5 23t-9.5 98zM759.5 1540q-5.5 27 2.5 74q9 80 29 99.5t98 19.5q77 0 95 -20 t9 -99q-6 -73 -30.5 -97t-100.5 -24q-52 0 -74.5 10t-28 37z" />
<glyph unicode="&#x402;" horiz-adv-x="1214" d="M158 1174l20 192h971l-21 -192h-360l-35 -316q131 27 191 27q157 0 209 -93.5t26 -330.5v-4q-29 -258 -105.5 -369t-217.5 -111q-11 0 -21 1t-16.5 2t-19 4t-18 4.5t-22.5 6.5t-24 7q12 118 20 172q20 -4 70 -4q36 2 55 23.5t32.5 79.5t27.5 182q14 135 8 174 q-10 61 -64 61q-47 0 -149 -4l-76 -686h-246l129 1174h-364z" />
<glyph unicode="&#x403;" horiz-adv-x="960" d="M131 2l152 1370h774l-23 -194h-526l-129 -1176h-248zM512 1645l346 235l82 -168l-350 -225z" />
<glyph unicode="&#x404;" horiz-adv-x="1085" d="M153.5 442q2.5 104 18.5 246q18 172 48.5 293t72.5 201.5t105.5 126t138 64t178.5 18.5q208 0 411 -54l-36 -176q-225 43 -400 43q-78 0 -125 -33t-79.5 -122t-55.5 -256h531l-21 -189h-530q-11 -113 -12.5 -186t5.5 -124.5t29 -77.5t53.5 -37t81.5 -11q51 0 188 15 t234 34l-16 -170q-241 -65 -432 -65q-88 0 -150.5 13.5t-110.5 46t-75.5 84t-40.5 132t-10.5 184.5z" />
<glyph unicode="&#x405;" horiz-adv-x="1028" d="M133 0l21 195q243 -23 407 -23q74 0 112.5 37.5t47.5 120.5q5 44 -12 82t-49.5 67.5t-76 58t-92 56t-96.5 57t-90.5 66t-74 79t-46.5 100t-8 124.5q21 188 132.5 280.5t283.5 92.5q218 0 422 -19l-23 -198q-249 26 -407 26q-144 0 -158 -145q-6 -51 23.5 -95.5t80.5 -79 t113.5 -70t124.5 -78t111.5 -93t75.5 -125t16 -164.5q-21 -186 -135 -279t-283 -93q-170 0 -420 20z" />
<glyph unicode="&#x406;" horiz-adv-x="520" d="M131 0l150 1366h243l-147 -1366h-246z" />
<glyph unicode="&#x407;" horiz-adv-x="516" d="M127 0l149 1366h244l-149 -1366h-244zM147 1606q8 78 29 99t96 21q78 0 97 -21t10 -99q-8 -74 -31 -97.5t-100 -23.5q-75 0 -92 23t-9 98zM482.5 1532q-5.5 27 2.5 74q4 42 9 62.5t19 35t35.5 18.5t63.5 4q75 0 93.5 -21t11.5 -99q-8 -74 -31 -97.5t-100 -23.5 q-53 0 -75.5 10t-28 37z" />
<glyph unicode="&#x408;" horiz-adv-x="618" d="M27 -12l18 166q124 8 156 15q79 20 92 87l2 12l121 1104h237l-121 -1098q-20 -179 -103 -243.5t-255 -50.5z" />
<glyph unicode="&#x409;" horiz-adv-x="1718" d="M53 -6l15 131q37 6 60 17t34 32t14.5 34.5t7.5 45.5l121 1112h764l-57 -516q274 0 350 -6q70 -6 126.5 -26.5t100.5 -59.5t64.5 -104t11.5 -150l-18 -160q-11 -99 -51 -168t-104.5 -106.5t-139 -53.5t-170.5 -16h-508l127 1167h-277l-94 -880q-11 -90 -35.5 -151t-62 -94 t-81 -46.5t-99.5 -13.5q-27 0 -99 12zM938 180h254q43 0 75.5 6t64.5 22.5t51.5 51t25.5 86.5l18 158q5 51 -7 85t-40.5 50t-59.5 21.5t-75 5.5h-254z" />
<glyph unicode="&#x40a;" horiz-adv-x="1794" d="M131 0l152 1368h247l-59 -520h369l57 518h246l-58 -518h185q99 0 169 -7.5t133.5 -29t100 -59t55.5 -99.5t13 -149l-19 -160q-11 -99 -51 -168t-105 -106.5t-139.5 -53.5t-169.5 -16h-509l71 659h-368l-72 -659h-248zM1012 180h256q43 0 74.5 6t63.5 22.5t51.5 51 t25.5 86.5l18 158q5 51 -7 85t-40 50t-58.5 21.5t-74.5 5.5h-256z" />
<glyph unicode="&#x40b;" horiz-adv-x="1275" d="M158 1174l20 192h971l-21 -192h-362l-39 -353q9 3 47.5 15t55.5 16.5t48 12.5t57 11t52 3q133 0 190.5 -64.5t43.5 -196.5l-70 -618h-240l72 637q3 55 -43 55q-94 0 -231 -49l-72 -643h-246l129 1174h-362z" />
<glyph unicode="&#x40c;" horiz-adv-x="1122" d="M131 0l152 1368h241l-63 -582h121l374 582h267l-435 -661l302 -707h-265l-260 600h-127l-63 -600h-244zM627 1651l348 233l80 -168l-357 -225z" />
<glyph unicode="&#x40e;" horiz-adv-x="948" d="M137 14l53 111q57 -16 64 -16q25 0 51.5 29.5t44 63t40 81.5t30.5 63h-43l-199 1024h242l127 -668l270 668h236l-494 -1204q-49 -104 -114.5 -158.5t-137.5 -54.5q-93 0 -170 61zM362 1624l87 127q110 -102 198 -102q75 0 225 98l52 -123q-46 -49 -130.5 -94t-162.5 -45 q-77 0 -151 42.5t-118 96.5z" />
<glyph unicode="&#x40f;" horiz-adv-x="1255" d="M131 0l150 1364h245l-129 -1174h469l129 1174h248l-149 -1364h-357l-32 -295h-250l32 295h-356z" />
<glyph unicode="&#x410;" horiz-adv-x="1157" d="M-2 0l534 1366h332l246 -1366h-244l-61 350h-428l-129 -350h-250zM451 545h321l-98 588z" />
<glyph unicode="&#x411;" horiz-adv-x="1163" d="M131 0l150 1366h759l-20 -188h-514l-37 -328q325 0 393 -8q65 -8 115 -30.5t87 -62t52 -102t6 -143.5l-18 -160q-11 -99 -51 -168t-105 -106.5t-140 -53.5t-169 -16h-508zM395 180h256q42 0 73.5 6t63.5 22.5t51.5 51t24.5 86.5l19 158q5 51 -7 85t-40 50t-58 21.5 t-73 5.5h-254z" />
<glyph unicode="&#x412;" horiz-adv-x="1087" d="M131 0l152 1368h356q86 0 145 -5.5t123 -26t100 -56.5t55 -101.5t9 -156.5l-12 -88q-8 -89 -45.5 -143.5t-106.5 -102.5q56 -38 81.5 -113t15.5 -149l-9 -82q-11 -102 -45.5 -169t-99.5 -105.5t-151 -54t-212 -15.5h-356zM393 176h123q113 0 170.5 40.5t67.5 139.5l8 72 q10 89 -24.5 126.5t-106.5 37.5h-193zM459 774h192q71 0 114 38t54 126l6 68q5 51 -1.5 86t-20 54t-43 29t-57 12.5t-74.5 2.5h-123z" />
<glyph unicode="&#x413;" horiz-adv-x="960" d="M131 0l150 1366h772l-21 -195h-526l-129 -1171h-246z" />
<glyph unicode="&#x414;" horiz-adv-x="1304" d="M0 -283l47 463h119q60 89 99.5 172t63.5 182.5t35.5 176.5t26.5 215l47 440h803l-131 -1186h133l-51 -463h-240l33 283h-719l-30 -283h-236zM420 180h446l113 1006h-317q-27 -241 -41 -361q-21 -196 -59 -334.5t-142 -310.5z" />
<glyph unicode="&#x415;" horiz-adv-x="1052" d="M131 0l152 1368h796l-20 -197h-555l-43 -376h508l-21 -199h-510l-43 -401h553l-18 -195h-799z" />
<glyph unicode="&#x416;" horiz-adv-x="1574" d="M29 0l403 612l-287 754h250l248 -666h102l76 680h236l-76 -680h98l320 670h250l-375 -758l268 -612h-252l-231 516h-98l-56 -516h-233l55 516h-104l-340 -516h-254z" />
<glyph unicode="&#x417;" horiz-adv-x="921" d="M84 2l18 176q42 0 125 -2t125 -2q117 0 173.5 41t66.5 141l6 74q11 90 -22.5 128t-108.5 38h-225l20 186h225q74 0 116.5 38.5t51.5 127.5l11 84q4 40 0.5 69.5t-17.5 47.5t-29.5 29.5t-43.5 16t-50 6t-59 1.5q-40 0 -138.5 -5t-113.5 -5l21 180q32 1 132.5 4.5 t155.5 3.5q78 0 132.5 -5.5t111.5 -25.5t89 -55t48 -97.5t6 -149.5l-10 -103q-16 -95 -52.5 -151t-103.5 -101q54 -40 81 -116.5t18 -147.5l-8 -82q-23 -197 -135.5 -272.5t-350.5 -75.5h-51q-37 0 -109 2t-106 2z" />
<glyph unicode="&#x418;" horiz-adv-x="1261" d="M131 0l152 1368h245l-102 -928l549 928h278l-151 -1368h-244l103 918l-539 -918h-291z" />
<glyph unicode="&#x419;" horiz-adv-x="1261" d="M131 0l152 1368h245l-102 -928l549 928h278l-151 -1368h-244l103 918l-539 -918h-291zM530 1630l86 127q110 -102 201 -102q75 0 225 98l52 -123q-48 -50 -132 -94.5t-161 -44.5q-78 0 -152.5 42.5t-118.5 96.5z" />
<glyph unicode="&#x41a;" horiz-adv-x="1122" d="M131 0l152 1368h241l-63 -582h121l374 582h267l-435 -661l302 -707h-265l-260 600h-127l-63 -600h-244z" />
<glyph unicode="&#x41b;" horiz-adv-x="1142" d="M53 -6l15 131q36 6 58.5 17.5t33 31.5t14 35.5t6.5 44.5l123 1110h832l-150 -1364h-244l127 1167h-344l-94 -880q-11 -90 -36 -151t-63.5 -94t-82.5 -46.5t-101 -13.5q-28 0 -94 12z" />
<glyph unicode="&#x41c;" horiz-adv-x="1527" d="M131 0l152 1368h284l238 -786l412 786h292l-151 -1368h-236l103 940l-361 -704h-194l-197 704l-102 -940h-240z" />
<glyph unicode="&#x41d;" horiz-adv-x="1230" d="M131 0l152 1368h245l-63 -575h444l64 575h248l-152 -1368h-248l68 604h-445l-67 -604h-246z" />
<glyph unicode="&#x41e;" horiz-adv-x="1181" d="M155.5 434.5q2.5 104.5 18.5 251.5q13 121 26.5 205.5t34 164t48.5 129.5t67 92.5t93 65t122.5 34.5t159.5 12q73 0 126.5 -5t102 -19.5t80.5 -38t58 -62t38.5 -90t18 -123.5t1.5 -161t-17 -204q-17 -150 -38.5 -256t-54.5 -186t-73 -129t-100.5 -79t-130 -41t-167.5 -11 q-96 1 -161.5 13t-117.5 43t-80 80.5t-42.5 129.5t-12 184.5zM400 399q0 -56 3 -92.5t15 -64t25 -42t38 -23t49.5 -11t63.5 -2.5q54 0 90.5 7.5t67 31.5t49 57t35.5 97t29 137.5t26 191.5q21 196 15 311.5t-50 162t-147 46.5q-53 0 -88 -7t-65 -30t-48.5 -56t-35 -95.5 t-27.5 -138t-23 -193.5q-11 -94 -16.5 -162.5t-5.5 -124.5z" />
<glyph unicode="&#x41f;" horiz-adv-x="1124" d="M131 0l150 1364h833l-147 -1364h-246l127 1167h-344l-127 -1167h-246z" />
<glyph unicode="&#x420;" horiz-adv-x="1157" d="M131 0l150 1366h505q75 0 135.5 -9.5t114 -33.5t87.5 -62t49.5 -99t7.5 -140l-19 -160q-14 -124 -108 -221t-224 -117q-53 -8 -397 -8l-55 -516h-246zM453 700h256q43 0 75 6t63.5 22t50.5 49.5t24 84.5l18 158q5 52 -7 86.5t-40 51t-57.5 22.5t-71.5 6h-256z" />
<glyph unicode="&#x421;" horiz-adv-x="1081" d="M142.5 402q0.5 92 13.5 214q11 99 20.5 168t22 142.5t26 122t32.5 99t41 81.5t52.5 61.5t66 47t81.5 30t100 18.5t121 5q19 0 74.5 -2.5t150.5 -11t170 -19.5l-18 -180q-309 26 -355 26q-38 0 -67.5 -2.5t-56 -11.5t-45.5 -19t-36.5 -32t-29.5 -43.5t-24 -60t-20 -75 t-17.5 -96.5t-16 -115t-16.5 -139q-8 -66 -11.5 -119t0 -95t6.5 -74t17.5 -55.5t24 -39.5t35 -26.5t41.5 -16.5t52 -8.5t57.5 -3t67.5 -0.5q108 0 283 14l-18 -161q-209 -43 -392 -43q-81 0 -136.5 5.5t-109 21t-85.5 44.5t-58 75t-35 114t-8.5 160z" />
<glyph unicode="&#x422;" horiz-adv-x="1058" d="M158 1174l20 192h969l-21 -192h-360l-129 -1174h-248l129 1174h-360z" />
<glyph unicode="&#x423;" horiz-adv-x="948" d="M139 18l54 111q57 -16 63 -16q25 0 51.5 29.5t44 63t40 81.5t30.5 63h-45l-197 1024h242l127 -667l270 667h236l-494 -1204q-49 -104 -114.5 -158.5t-137.5 -54.5q-93 0 -170 61z" />
<glyph unicode="&#x424;" horiz-adv-x="1503" d="M132.5 578q0.5 52 6.5 114q12 92 28.5 156.5t46 120.5t72 91.5t106.5 62.5t148.5 40.5t200.5 18.5l21 184h246l-21 -182q81 -2 142 -7.5t115 -17.5t91 -30t66 -46t45.5 -63.5t25 -84.5t8 -108t-9.5 -135q-10 -92 -25.5 -156.5t-43.5 -121t-69.5 -92.5t-105 -64 t-147.5 -43t-200 -22l-21 -193h-246l21 190q-62 2 -111 6t-95 11.5t-81.5 18.5t-67.5 27.5t-54.5 37.5t-40.5 49.5t-28.5 63.5t-16.5 78.5t-5.5 95.5zM366.5 599.5q-0.5 -37.5 4.5 -69.5t19 -53t35 -37t54.5 -25t74.5 -14.5t99 -7.5l64 588q-104 -3 -164 -16t-99 -48 t-55 -86t-26 -141q-6 -53 -6.5 -90.5zM901 393q100 4 158.5 17t98.5 48t57.5 88.5t27.5 145.5q7 60 7.5 100t-8.5 73.5t-27.5 53t-53 34t-80.5 20.5t-114 8z" />
<glyph unicode="&#x425;" horiz-adv-x="1091" d="M25 0l452 690l-289 676h263l188 -438l289 438h260l-434 -672l301 -694h-262l-203 467l-301 -467h-264z" />
<glyph unicode="&#x426;" horiz-adv-x="1298" d="M131 0l150 1364h243l-129 -1171h465l129 1171h248l-129 -1171h129l-45 -404h-236l25 211h-850z" />
<glyph unicode="&#x427;" horiz-adv-x="1021" d="M168 809l61 553h242l-61 -569q-6 -48 41 -48q36 0 113 12.5t143 39.5l61 565h246l-152 -1364h-231l63 602q-139 -53 -295 -53q-258 0 -231 262z" />
<glyph unicode="&#x428;" horiz-adv-x="1718" d="M131 0l150 1366h245l-129 -1176h334l129 1176h246l-129 -1176h338l129 1176h246l-150 -1366h-1409z" />
<glyph unicode="&#x429;" horiz-adv-x="1765" d="M131 0l150 1366h247l-129 -1173h334l129 1173h250l-129 -1173h332l129 1173h246l-129 -1173h131l-43 -404h-240l25 211h-1303z" />
<glyph unicode="&#x42a;" horiz-adv-x="1234" d="M162 1174l20 192h418l-57 -516q318 0 389 -8q133 -15 206 -106.5t58 -231.5l-18 -160q-8 -79 -37 -140t-70.5 -99t-99.5 -62t-120.5 -33.5t-137.5 -9.5h-508l129 1174h-172zM469 180h256q42 0 74 6t64 22.5t52 51t25 86.5l18 158q5 51 -7.5 85t-41 50t-58.5 21.5t-73 5.5 h-254z" />
<glyph unicode="&#x42b;" horiz-adv-x="1515" d="M131 0l150 1366h243l-55 -516q79 0 166 1t106 1q95 0 168 -19t125.5 -59.5t75.5 -108.5t12 -161l-18 -160q-8 -80 -37 -140.5t-70.5 -98.5t-100 -62t-121 -33.5t-138.5 -9.5h-506zM395 180h256q42 0 73.5 6t63.5 22.5t51.5 51t24.5 86.5l19 158q5 51 -7 85t-40 50 t-58 21.5t-73 5.5h-256zM1169 0l148 1366h239l-147 -1366h-240z" />
<glyph unicode="&#x42c;" horiz-adv-x="1159" d="M131 0l150 1366h245l-57 -516q76 0 164 1t108 1q196 0 299 -84t84 -264l-18 -160q-11 -99 -51 -168t-105.5 -106.5t-141 -53.5t-171.5 -16h-506zM395 180h254q42 0 73.5 6t63.5 22.5t51.5 51t24.5 86.5l19 158q5 51 -7 85t-40 50t-58 21.5t-74 5.5h-253z" />
<glyph unicode="&#x42d;" horiz-adv-x="1083" d="M90 47l25 174q93 -20 226 -36.5t183 -16.5q82 0 127.5 36t74.5 127t52 273h-530l18 189h533q11 101 8 173t-11 118.5t-32 73t-54.5 36.5t-78.5 10q-183 0 -408 -43v176q102 26 219.5 40t200.5 14q87 0 149.5 -12t113.5 -43t81 -81.5t46.5 -129.5t16 -186t-15.5 -251 q-19 -170 -46.5 -287.5t-67.5 -201t-99 -130t-134 -67t-181 -20.5q-192 0 -416 65z" />
<glyph unicode="&#x42e;" horiz-adv-x="1560" d="M131 0l150 1366h243l-61 -575h100q16 118 34.5 200.5t47 153.5t67 114t94.5 74t128.5 43.5t171.5 12.5q98 0 163.5 -9.5t120 -38t83.5 -76.5t45 -128t14 -188.5t-19 -262.5q-17 -150 -38.5 -256.5t-54.5 -186.5t-73 -128.5t-100.5 -78.5t-130 -41t-168.5 -11 q-76 1 -133 9t-105.5 26.5t-80.5 50.5t-55 77.5t-32.5 111t-9.5 148.5t11 191h-103l-63 -598h-246zM780 334.5q5 -60.5 15.5 -92.5t38 -50.5t56.5 -23t81 -4.5q55 0 92 7.5t68 31.5t50 57t36 97t28 137.5t25 191.5q21 196 16 311.5t-49.5 162t-149.5 46.5q-52 0 -87 -7 t-64.5 -30t-48 -56t-35 -95.5t-27.5 -138t-24 -193.5q-14 -125 -20 -208t-1 -143.5z" />
<glyph unicode="&#x42f;" horiz-adv-x="1189" d="M119 0q26 92 81 296t81 296q-113 110 -99 270l19 160q11 99 51 168t105 106.5t140 53.5t169 16h512l-150 -1366h-246l56 516h-222q-71 0 -104 2l-139 -518h-254zM422 862q-5 -51 7 -84.5t39.5 -49.5t57.5 -22t72 -6h258l55 486h-258q-32 0 -57.5 -3t-54 -13.5t-48 -28 t-34.5 -48.5t-19 -73z" />
<glyph unicode="&#x430;" horiz-adv-x="964" d="M106 332q0 96 13 246q26 245 107.5 353.5t244.5 108.5q73 0 207.5 -17.5t245.5 -49.5l-103 -979h-174l-18 84q-68 -44 -144.5 -70t-134.5 -26q-73 0 -123 28t-75.5 80t-35.5 109.5t-10 132.5zM350 223q7 -56 30.5 -70t74.5 1q37 9 168 69l67 641q-111 16 -178 13 q-35 -1 -62 -25t-42.5 -57t-27 -80t-16.5 -84t-9 -78q-1 -8 -1 -12q-22 -189 -4 -318z" />
<glyph unicode="&#x431;" horiz-adv-x="995" d="M147 222q-14 123 9 317q64 571 336 779q141 108 379 140q26 3 232 22q49 4 85 9q-21 -156 -23 -184q-25 -3 -87.5 -6.5t-115 -7t-125 -20t-130.5 -43t-117 -79t-98 -125.5q44 18 96 18q129 0 206.5 -32t110.5 -95t38 -157t-11 -219q-11 -107 -25 -181.5t-37 -140.5 t-55 -106.5t-80.5 -70t-112.5 -42t-151 -12.5q-159 0 -234.5 56.5t-89.5 179.5zM382.5 323q-0.5 -48 5.5 -74t18.5 -48t34 -30.5t53.5 -8.5q43 0 73 15.5t49.5 40.5t33.5 76.5t22 103.5t18 141q19 169 14 218q-7 78 -64 98q-27 9 -69 9q-24 0 -42.5 -3.5t-34 -13.5 t-26.5 -21.5t-20.5 -33.5t-15.5 -43.5t-12.5 -57t-10.5 -68.5t-10 -84q-8 -76 -12 -122t-4.5 -94z" />
<glyph unicode="&#x432;" horiz-adv-x="888" d="M115 0l112 1022h285q45 0 79.5 -2t73.5 -8.5t66.5 -18t53.5 -32t40 -48.5t20.5 -69t0.5 -92l-6 -39q-7 -75 -29 -117.5t-70 -81.5q68 -75 56 -209l-4 -35q-18 -156 -107 -213t-287 -57h-284zM371 182h59q76 0 110.5 19.5t41.5 87.5l6 49q11 92 -64 92h-127zM416 598h127 q72 0 84 92l6 49q4 38 -3 60.5t-28 32t-41.5 12t-60.5 2.5h-56z" />
<glyph unicode="&#x433;" horiz-adv-x="788" d="M115 0l112 1022h613l-21 -188h-370l-91 -834h-243z" />
<glyph unicode="&#x434;" horiz-adv-x="1036" d="M14 -199l41 375h95q68 104 95 205.5t44 265.5l43 373h631l-95 -844h97l-41 -375h-230l23 199h-453l-22 -199h-228zM391 176h246l74 668h-168l-19 -182q-11 -103 -20.5 -162t-38 -148.5t-74.5 -175.5z" />
<glyph unicode="&#x435;" horiz-adv-x="987" d="M127 297q0 67 14 217q13 110 26.5 183.5t36 138t53 101.5t78.5 64t110 37.5t149 10.5q201 0 279.5 -68.5t78.5 -241.5v-39q0 -14 -1 -26.5t-6.5 -40t-16 -49t-32.5 -48.5t-51.5 -45t-77.5 -31t-108 -14l-297 -4q-6 -83 -6 -141q0 -44 9.5 -74.5t22.5 -46.5t38 -24 t44.5 -9.5t53.5 -1.5q124 0 316 25l-13 -147q-199 -41 -376 -41q-180 0 -252 71t-72 244zM383 606h289q61 0 61 94v25q0 97 -32.5 130.5t-118.5 33.5q-29 0 -51.5 -3.5t-40.5 -13t-31 -19t-23.5 -30t-17.5 -38t-13.5 -50t-11 -58.5t-10.5 -71z" />
<glyph unicode="&#x436;" horiz-adv-x="1472" d="M2 0l391 471l-239 555h245l203 -481h80l70 481h233l-70 -481h70l297 481h248l-352 -555l256 -467h-250l-221 393h-68l-53 -397h-234l54 397h-80l-330 -397h-250z" />
<glyph unicode="&#x437;" horiz-adv-x="765" d="M80 0l16 166h178q82 0 120 22t44 86l6 52q6 59 -16.5 77.5t-73.5 18.5h-161l18 174h162q52 0 78.5 17t33.5 75l4 62q8 66 -17.5 84t-90.5 18l-209 -2l18 164q35 0 100.5 2t98.5 2q71 0 112 -2.5t94 -16.5t79.5 -40.5t42.5 -77t8 -123.5l-8 -72q-12 -74 -30.5 -109 t-63.5 -67q30 -35 44.5 -87t8.5 -99l-4 -56q-18 -155 -106.5 -212.5t-280.5 -57.5q-38 0 -96.5 1t-108.5 1z" />
<glyph unicode="&#x438;" horiz-adv-x="993" d="M115 0l112 1022h234l-60 -553l328 553h252l-113 -1022h-233l57 545l-317 -545h-260z" />
<glyph unicode="&#x439;" horiz-adv-x="993" d="M115 0l112 1022h236l-62 -553l328 553h252l-113 -1022h-233l57 545l-317 -545h-260zM352 1268q14 22 42.5 65t41.5 64q111 -103 199 -103q84 0 225 99q9 -21 26.5 -63t26.5 -62q-50 -50 -134 -94t-161 -44t-149 42t-117 96z" />
<glyph unicode="&#x43a;" horiz-adv-x="1021" d="M115 0l143 1026h236l-68 -479h106l289 473h250l-346 -549l260 -471h-254l-223 395h-105l-53 -395h-235z" />
<glyph unicode="&#x43b;" horiz-adv-x="933" d="M66 0l16 135q32 6 49 17.5t20.5 22.5t4.5 30l92 821h659l-112 -1026h-236l92 838h-186l-70 -607q-14 -139 -72 -192t-159 -53q-32 0 -98 14z" />
<glyph unicode="&#x43c;" horiz-adv-x="1161" d="M115 0l112 1024h242l154 -502l262 502h248l-111 -1024h-221l57 526l-186 -350h-178l-101 342l-57 -518h-221z" />
<glyph unicode="&#x43d;" horiz-adv-x="989" d="M115 0l112 1022h236l-47 -408h256l45 408h237l-112 -1022h-238l47 430h-256l-45 -430h-235z" />
<glyph unicode="&#x43e;" horiz-adv-x="993" d="M135.5 206q-17.5 120 7.5 318q8 72 16 123.5t21 105t29.5 90t40.5 71.5t55.5 57t73.5 39t95 24.5t120 7.5q173 0 253.5 -51t96 -166t-7.5 -301q-11 -108 -24.5 -181.5t-36.5 -138t-54.5 -103t-80 -67t-112 -39.5t-151.5 -11q-168 0 -246 51t-95.5 171zM369 303.5 q2 -80.5 29.5 -111t97.5 -30.5q37 0 63.5 6.5t47 25.5t33 42.5t23.5 69.5t17.5 93t15.5 125q18 132 16.5 208.5t-31.5 106t-106 29.5q-36 0 -61 -6t-44.5 -23.5t-31.5 -39.5t-22 -65.5t-16.5 -89t-14.5 -120.5q-18 -140 -16 -220.5z" />
<glyph unicode="&#x43f;" horiz-adv-x="911" d="M115 0l112 1024h656l-113 -1024h-235l92 836h-185l-92 -836h-235z" />
<glyph unicode="&#x440;" d="M72 -383l155 1409h189l12 -70q161 82 252 82q153 0 207.5 -126t23.5 -410l-6 -60q-18 -128 -42 -211t-65.5 -141t-101.5 -83t-149 -25q-27 0 -56 2t-70.5 6t-72.5 6l-41 -379h-235zM371 190q71 -14 155 -14h4q29 0 51.5 17.5t36 42.5t24.5 65t16 71.5t10 76.5 q25 214 16.5 301.5t-63.5 87.5q-66 0 -187 -62z" />
<glyph unicode="&#x441;" horiz-adv-x="929" d="M127 301q0 70 10 162q10 91 19.5 155t23.5 126t30 101.5t40 76.5t53 57.5t69.5 36.5t89.5 22t113 6q16 0 69.5 -3t139 -11.5t142.5 -19.5l-19 -174q-276 24 -319 24q-117 0 -149 -69.5t-62 -333.5q-8 -66 -8.5 -112.5t8 -79t21.5 -52t38.5 -30t53.5 -14t71 -3.5 q63 0 283 18l-19 -155q-75 -21 -178 -34t-180 -13q-62 0 -104.5 4t-84 16t-67.5 34t-47 57t-29 86.5t-8 121.5z" />
<glyph unicode="&#x442;" horiz-adv-x="882" d="M123 840l20 184h785l-21 -184h-272l-92 -840h-240l92 840h-272z" />
<glyph unicode="&#x443;" horiz-adv-x="964" d="M113 -332l51 111q63 -17 65 -17q32 0 62 39.5t65 115.5t39 83h-45l-196 1024h241l127 -668l269 668h235l-494 -1204q-46 -104 -111.5 -158.5t-137.5 -54.5q-93 0 -170 61z" />
<glyph unicode="&#x444;" horiz-adv-x="1226" d="M150 221q-19 97 0 266l4 37q18 164 57 253t105 125t178 36q64 0 86 -4l45 407h229l-47 -411q6 1 21 3t29 3.5t26 1.5q71 0 118 -11t82 -39t49 -75t18.5 -118.5t-9.5 -170.5l-4 -37q-13 -114 -36 -194.5t-51 -126t-69.5 -70.5t-78.5 -32t-91 -7q-11 0 -42 2t-58 2 l-49 -448h-230l51 444q-17 0 -50 -1q-121 -2 -168 14q-92 30 -115 151zM372 329q0 -34 3.5 -52t13.5 -29t22 -14t33 -3q36 0 54 2l57 517q-12 2 -35 2q-68 0 -94 -51.5t-39 -180.5q-8 -69 -11.5 -113t-3.5 -78zM729 233q16 -2 49 -2q43 0 63.5 19t35 77.5t30.5 192.5 q16 114 4 173t-71 59q-29 0 -54 -2z" />
<glyph unicode="&#x445;" horiz-adv-x="860" d="M39 0l323 508l-204 514h245l109 -289l170 289h244l-314 -514l209 -508h-239l-117 291l-180 -291h-246z" />
<glyph unicode="&#x446;" horiz-adv-x="1040" d="M115 0l112 1024h236l-94 -842q45 0 134 1t134 1l92 840h240l-92 -840h92l-37 -334h-232l17 150h-602z" />
<glyph unicode="&#x447;" horiz-adv-x="839" d="M139 606l47 418h236l-45 -412q-5 -32 20 -32q60 0 131 22l47 422h234l-113 -1024h-225l45 418q-85 -27 -180 -27q-108 0 -158.5 54t-38.5 161z" />
<glyph unicode="&#x448;" horiz-adv-x="1335" d="M115 0l112 1020h234l-92 -836h178l92 836h235l-92 -836h181l92 836h233l-112 -1020h-1061z" />
<glyph unicode="&#x449;" horiz-adv-x="1374" d="M115 0l112 1022h238l-92 -838h176l92 838h238l-93 -838h179l92 838h237l-92 -838h90l-37 -334h-231l16 150h-925z" />
<glyph unicode="&#x44a;" horiz-adv-x="991" d="M137 836l19 184h360l-41 -367h43q100 0 149.5 -2t116.5 -16t95 -41.5t45.5 -80.5t7.5 -132l-10 -111q-9 -77 -40.5 -131.5t-82 -84t-109 -42t-131.5 -12.5h-395l92 836h-119zM422 176h149q23 0 40.5 3t35.5 12t29 29t14 50l12 111q5 57 -20 73.5t-78 16.5h-149z" />
<glyph unicode="&#x44b;" horiz-adv-x="1261" d="M115 0l112 1026h236l-41 -369q112 0 171.5 -3t130 -17t102 -42.5t50 -81t9.5 -130.5l-11 -113q-32 -270 -368 -270h-391zM369 176h151q24 0 41.5 3t36 12.5t29.5 29.5t14 51l12 111q5 56 -21 74t-79 18h-152zM936 0l113 1026h233l-113 -1026h-233z" />
<glyph unicode="&#x44c;" horiz-adv-x="937" d="M115 0l112 1026h238l-41 -369q223 0 270 -8q98 -19 151.5 -89t41.5 -177l-13 -113q-29 -270 -368 -270h-391zM371 176h151q51 0 82.5 19t36.5 77l12 111q5 56 -21.5 74t-76.5 18h-152z" />
<glyph unicode="&#x44d;" horiz-adv-x="884" d="M84 39l22 172q79 -17 184 -30t142 -13q49 0 74 19.5t42 74t32 170.5h-383l20 184h383q4 83 5 132t-13.5 75t-33 33.5t-54.5 7.5q-125 0 -322 -33v173q165 45 336 45q69 0 118 -9.5t90.5 -32.5t64 -62t37.5 -98t12.5 -141t-11.5 -190q-24 -211 -70.5 -325.5t-126 -161.5 t-216.5 -47q-138 0 -332 57z" />
<glyph unicode="&#x44e;" horiz-adv-x="1327" d="M115 0l112 1022h242l-47 -406h84q13 93 30.5 156.5t49 118t78.5 86t116.5 48.5t165.5 17q173 0 254 -51t97 -166t-7 -301q-12 -108 -26 -181.5t-37.5 -138t-55 -103.5t-80 -67t-112 -39t-150.5 -11q-114 0 -185 24.5t-110.5 78t-48.5 138.5t0 207h-84l-45 -432h-241z M719 301q2 -82 30 -113.5t99 -31.5q39 0 66 7t48 26.5t34 43.5t24 70.5t17.5 94t15.5 126.5l4 27q16 125 12.5 196t-34.5 98t-107 27q-31 0 -54 -5.5t-41 -15t-31 -30.5t-22.5 -43.5t-17.5 -64t-14 -82.5t-13 -107q-18 -141 -16 -223z" />
<glyph unicode="&#x44f;" horiz-adv-x="954" d="M100 0l119 438q-42 41 -56.5 88t-6.5 115l12 113q9 78 40 132.5t81.5 84.5t109 42.5t133.5 12.5h396l-113 -1026h-237l38 369h-176q-5 -19 -98 -369h-242zM385 641q-5 -56 21.5 -73t78.5 -17l152 2l33 295h-154q-50 0 -81 -19t-38 -77z" />
<glyph unicode="&#x451;" horiz-adv-x="987" d="M127 297q0 67 14 217q13 110 26.5 183.5t36 138t53 101.5t78.5 64t110 37.5t149 10.5q201 0 279.5 -68.5t78.5 -241.5v-39q0 -14 -1 -26.5t-6.5 -40t-16 -49t-32.5 -48.5t-51.5 -45t-77.5 -31t-108 -14l-297 -4q-6 -83 -6 -141q0 -44 9.5 -74.5t22.5 -46.5t38 -24 t44.5 -9.5t53.5 -1.5q124 0 316 25l-13 -147q-199 -41 -376 -41q-180 0 -252 71t-72 244zM324 1251q9 78 30.5 99.5t96.5 21.5t93.5 -21.5t10.5 -99.5q-9 -72 -32 -94t-97 -22q-76 0 -93 21.5t-9 94.5zM383 606h289q61 0 61 94v25q0 97 -32.5 130.5t-118.5 33.5 q-29 0 -51.5 -3.5t-40.5 -13t-31 -19t-23.5 -30t-17.5 -38t-13.5 -50t-11 -58.5t-10.5 -71zM657 1251q9 78 30 99.5t95 21.5q78 0 96.5 -21.5t10.5 -99.5q-7 -51 -16 -72.5t-34.5 -32.5t-80.5 -11q-74 0 -91.5 21.5t-9.5 94.5z" />
<glyph unicode="&#x452;" horiz-adv-x="1007" d="M111 0l122 1120h-92l19 166h92l12 109h232l-11 -109h187l-19 -166h-186l-16 -137q174 55 286 55q254 0 224 -258l-99 -874q-10 -91 -33 -151t-59 -91.5t-77.5 -44t-98.5 -12.5q-33 0 -107 10l13 129q67 11 93.5 43t33.5 84l98 903q3 39 -4.5 55.5t-34.5 16.5 q-47 0 -119.5 -13.5t-134.5 -39.5l-88 -795h-233z" />
<glyph unicode="&#x453;" horiz-adv-x="788" d="M115 0l112 1022h613l-21 -188h-370l-91 -834h-243zM403 1284l338 234l82 -164l-346 -224z" />
<glyph unicode="&#x454;" horiz-adv-x="886" d="M128.5 298q-3.5 91 12.5 216q18 162 49.5 264.5t84.5 161.5t120 80.5t170 21.5q171 0 328 -43l-37 -172q-185 33 -313 33q-47 0 -72 -15t-45 -68.5t-35 -162.5h381l-20 -184h-381q-12 -110 -4.5 -168.5t27.5 -77t67 -18.5q39 0 143.5 12t183.5 29l-6 -168 q-210 -57 -348 -57q-83 0 -138 15t-94 51.5t-54.5 97.5t-19 152z" />
<glyph unicode="&#x455;" horiz-adv-x="876" d="M117 16l20 181q158 -21 314 -21q54 0 83 19.5t33 66.5q4 33 -19.5 61t-63 50t-88 45t-96 53t-85.5 66.5t-58 92t-12 124.5q17 144 110 216t234 72q84 0 172 -5.5t135 -10.5l46 -6l-21 -182q-184 20 -344 20q-81 0 -90 -84q-3 -28 20.5 -53.5t63.5 -47t89 -45.5t97 -55.5 t86 -70t58 -95.5t12 -126q-17 -143 -111 -215t-235 -72q-83 0 -170.5 5.5t-133.5 10.5z" />
<glyph unicode="&#x456;" horiz-adv-x="485" d="M115 0l112 1022h242l-113 -1022h-241zM239.5 1180.5q-6.5 31.5 2.5 87.5q9 91 33.5 115t113.5 24q32 0 50.5 -1.5t34.5 -7t23 -13.5t10.5 -25t3 -37.5t-4.5 -54.5q-9 -88 -34.5 -115t-113.5 -27q-61 0 -86.5 11.5t-32 43z" />
<glyph unicode="&#x457;" horiz-adv-x="485" d="M92 1251q8 77 29 99t96 22t94.5 -22.5t10.5 -98.5q-8 -71 -32 -94.5t-100 -23.5q-75 0 -90.5 21t-7.5 97zM115 0l112 1022h242l-113 -1022h-241zM424 1251q8 77 29.5 99t95.5 22q77 0 95 -22t9 -99q-8 -73 -30.5 -95.5t-100.5 -22.5q-74 0 -90 21.5t-8 96.5z" />
<glyph unicode="&#x458;" horiz-adv-x="485" d="M-39 -373l14 129q66 11 91 42t32 85l125 1141h240l-123 -1108q-10 -90 -33.5 -151t-61 -92t-79.5 -43.5t-98 -12.5q-33 0 -107 10zM237.5 1184.5q-5.5 31.5 2.5 87.5q9 91 33 115t112 24q89 0 109.5 -22.5t11.5 -116.5q-11 -88 -38 -115t-114 -27q-61 0 -86 11.5 t-30.5 43z" />
<glyph unicode="&#x459;" horiz-adv-x="1343" d="M66 2l16 133q25 4 41 11t23 17.5t9 19t3 22.5l90 823h610l-39 -371q54 0 111 1t65 1q68 0 121.5 -14t95 -45t60 -85.5t10.5 -129.5l-12 -115q-7 -62 -30.5 -109.5t-56.5 -77.5t-79 -49t-95 -26.5t-108 -7.5h-395l92 840h-133l-70 -609q-13 -138 -71.5 -191.5 t-159.5 -53.5q-26 0 -98 16zM764 176h151q51 0 83.5 19t39.5 77l13 113q5 54 -23 72t-80 18h-149z" />
<glyph unicode="&#x45a;" horiz-adv-x="1384" d="M115 0l112 1024h240l-41 -369h201l41 367h235l-41 -365q139 0 244 -6q104 -10 166 -80t49 -188l-10 -113q-18 -149 -112.5 -209.5t-252.5 -60.5h-391l51 469h-200l-52 -469h-239zM809 178h149q25 0 42.5 3t36 11.5t29 28t13.5 49.5l13 113q5 55 -21.5 72.5t-79.5 17.5 h-149z" />
<glyph unicode="&#x45b;" horiz-adv-x="1013" d="M111 0l122 1122h-92l19 166h92l12 107h232l-11 -107h207l-18 -166h-207l-16 -139q174 55 284 55q256 0 226 -258l-87 -780h-235l86 770q3 40 -5 60t-34 20q-131 0 -254 -55l-88 -795h-233z" />
<glyph unicode="&#x45c;" horiz-adv-x="1026" d="M115 0l143 1026h236l-68 -479h106l289 473h250l-346 -549l260 -471h-254l-223 395h-105l-53 -395h-235zM557 1268l340 231l80 -164l-344 -223z" />
<glyph unicode="&#x45e;" horiz-adv-x="964" d="M113 -332l51 111q63 -17 65 -17q32 0 62 39.5t65 115.5t39 83h-45l-196 1024h241l127 -668l269 668h235l-494 -1204q-46 -104 -111.5 -158.5t-137.5 -54.5q-93 0 -170 61zM352 1268l84 129q111 -103 199 -103q78 0 225 99l51 -125q-48 -50 -132.5 -94t-162.5 -44 q-76 0 -147.5 42t-116.5 96z" />
<glyph unicode="&#x45f;" horiz-adv-x="1007" d="M115 0l112 1028h238l-92 -844h272l92 844h238l-113 -1028h-256l-24 -209h-238l25 209h-254z" />
<glyph unicode="&#x2000;" horiz-adv-x="942" />
<glyph unicode="&#x2001;" horiz-adv-x="1884" />
<glyph unicode="&#x2002;" horiz-adv-x="942" />
<glyph unicode="&#x2003;" horiz-adv-x="1884" />
<glyph unicode="&#x2004;" horiz-adv-x="628" />
<glyph unicode="&#x2005;" horiz-adv-x="471" />
<glyph unicode="&#x2006;" horiz-adv-x="314" />
<glyph unicode="&#x2007;" horiz-adv-x="314" />
<glyph unicode="&#x2008;" horiz-adv-x="235" />
<glyph unicode="&#x2009;" horiz-adv-x="376" />
<glyph unicode="&#x200a;" horiz-adv-x="104" />
<glyph unicode="&#x2010;" horiz-adv-x="743" d="M152 465l22 209h500l-23 -209h-499z" />
<glyph unicode="&#x2011;" horiz-adv-x="743" d="M152 465l22 209h500l-23 -209h-499z" />
<glyph unicode="&#x2012;" horiz-adv-x="743" d="M152 465l22 209h500l-23 -209h-499z" />
<glyph unicode="&#x2013;" horiz-adv-x="940" d="M152 465l22 217h686l-22 -217h-686z" />
<glyph unicode="&#x2014;" horiz-adv-x="1193" d="M152 465l22 217h956l-24 -217h-954z" />
<glyph unicode="&#x2018;" horiz-adv-x="468" d="M180.5 909.5q1.5 26.5 3.5 69.5q10 101 66.5 171t179.5 140l53 -112q-50 -29 -75 -68q36 -9 45 -40t0 -91q-9 -89 -33.5 -112t-116.5 -23q-48 0 -71.5 5t-38 19.5t-13 41z" />
<glyph unicode="&#x2019;" horiz-adv-x="454" d="M186 967q52 32 80 67q-39 10 -47.5 38t-3.5 95q6 47 12 70t23.5 39t42.5 20t74 4q48 0 71.5 -4.5t37.5 -19t12.5 -40.5t-3.5 -69q-12 -101 -67 -171t-174 -140z" />
<glyph unicode="&#x201a;" horiz-adv-x="487" d="M78 -59q56 33 76 65q-37 10 -46 39t-2 94q9 88 34.5 110.5t117.5 22.5q88 0 108 -23t11 -110q-12 -101 -67.5 -171t-176.5 -140z" />
<glyph unicode="&#x201c;" horiz-adv-x="778" d="M180.5 910q1.5 26 3.5 69q12 103 67 172t177 141l55 -112q-46 -27 -75 -68q25 -7 36.5 -23t12.5 -43t-4 -67q-9 -87 -34 -110t-116 -23q-48 0 -71.5 4.5t-38 19t-13 40.5zM512 979q12 102 67.5 171.5t178.5 141.5l53 -112q-51 -31 -76 -68q36 -10 44.5 -39t2.5 -94 q-5 -38 -9.5 -58.5t-13 -37.5t-25 -23.5t-39.5 -10t-62 -3.5q-91 0 -110.5 22.5t-10.5 110.5z" />
<glyph unicode="&#x201d;" horiz-adv-x="761" d="M184 961q59 37 76 67q-25 6 -36.5 21.5t-13 42.5t2.5 67q6 48 11.5 71t22.5 39.5t41.5 20.5t73.5 4q91 0 110.5 -23.5t10.5 -111.5q-10 -101 -66 -171t-177 -140zM512 961q61 35 76 67q-36 9 -45 40t0 91q9 89 33.5 112t115.5 23q48 0 71.5 -5t38 -19.5t13 -41 t-3.5 -69.5q-10 -101 -66 -171t-178 -140z" />
<glyph unicode="&#x201e;" horiz-adv-x="792" d="M78 -59q56 33 76 65q-37 10 -46 39t-2 94q9 88 34.5 110.5t117.5 22.5q88 0 108 -23t11 -110q-12 -101 -67.5 -171t-176.5 -140zM406 -59q59 34 75 65q-36 10 -44.5 39t-2.5 94q6 48 12 71t23.5 39t42.5 19.5t74 3.5q48 0 71.5 -4.5t38 -19t13 -40.5t-3.5 -69 q-10 -101 -66.5 -170.5t-177.5 -140.5z" />
<glyph unicode="&#x2026;" horiz-adv-x="1265" d="M102 49q-7 31 2 86q8 63 19.5 89t40 37t92.5 11q91 0 112 -23.5t11 -113.5q-9 -86 -36 -112.5t-118 -26.5q-63 0 -89.5 11t-33.5 42zM499 49q-7 31 3 86q9 90 33.5 113.5t117.5 23.5q91 0 111.5 -23t11.5 -114q-9 -86 -36 -112.5t-117 -26.5q-64 0 -90.5 11t-33.5 42z M889 135q9 90 34 113.5t117 23.5q91 0 111.5 -23t11.5 -114q-9 -87 -36 -113t-119 -26q-90 0 -110 25.5t-9 113.5z" />
<glyph unicode="&#x202f;" horiz-adv-x="376" />
<glyph unicode="&#x2039;" horiz-adv-x="593" d="M117 514l311 440l162 -120l-225 -320l155 -315l-190 -123z" />
<glyph unicode="&#x203a;" horiz-adv-x="593" d="M94 199l223 315l-153 320l190 120l213 -440l-311 -438z" />
<glyph unicode="&#x205f;" horiz-adv-x="471" />
<glyph unicode="&#x20ac;" horiz-adv-x="1198" d="M119 522l12 105h139l15 112h-142l13 105h143q23 153 55 249.5t91.5 167t152.5 100.5t233 30q19 0 74.5 -2.5t150.5 -11t171 -19.5l-21 -180q-307 26 -352 26q-77 0 -126 -16t-83.5 -59.5t-54.5 -109t-37 -175.5h461l-10 -105h-465q-9 -51 -15 -112h465l-10 -105h-463 q-4 -51 -5.5 -92.5t2 -74.5t7.5 -58t16 -44t21.5 -31.5t29.5 -21.5t35 -13.5t43.5 -7t49 -3t57.5 -0.5q84 0 334 8l-19 -157q-163 -45 -399 -45q-103 0 -174 14t-126.5 49.5t-85 97.5t-40 154.5t-0.5 224.5h-143z" />
<glyph unicode="&#x2122;" horiz-adv-x="1021" d="M242 1282l10 92h321l-12 -92h-110l-37 -356h-101l39 356h-110zM557 926l49 448h109l65 -219l117 219h107l-50 -448h-96l27 229l-84 -154h-74l-45 156l-27 -231h-98z" />
<glyph unicode="&#x25fc;" horiz-adv-x="1020" d="M0 0v1020h1020v-1020h-1020z" />
</font>
</defs>
</svg>
