<?xml version="1.0" standalone="no"?>
<!DOCTYPE svg PUBLIC "-//W3C//DTD SVG 1.1//EN" "http://www.w3.org/Graphics/SVG/1.1/DTD/svg11.dtd" >
<svg xmlns="http://www.w3.org/2000/svg">
<metadata></metadata>
<defs>
<font id="clio_c_regularitalicregular" horiz-adv-x="948" >
<font-face units-per-em="2048" ascent="1536" descent="-512" />
<missing-glyph horiz-adv-x="389" />
<glyph horiz-adv-x="0" />
<glyph horiz-adv-x="682" />
<glyph unicode=" "  horiz-adv-x="389" />
<glyph unicode="&#x09;" horiz-adv-x="389" />
<glyph unicode="&#xa0;" horiz-adv-x="389" />
<glyph unicode="!" horiz-adv-x="430" d="M125 76q6 52 19.5 66t62.5 14q46 0 57.5 -14t5.5 -66q-5 -48 -19.5 -63t-62.5 -15t-58 14t-5 64zM152 311l112 1055h146l-113 -1055h-145z" />
<glyph unicode="&#x22;" horiz-adv-x="698" d="M190 979l105 418h164l-137 -418h-132zM438 979l125 418h168l-151 -418h-142z" />
<glyph unicode="#" horiz-adv-x="1077" d="M119 279l10 104h211l33 270h-213l14 115h211l29 281h114l-28 -281h196l31 281h111l-31 -281h213l-14 -115h-211l-31 -270h211l-10 -104h-213l-31 -283h-111l31 283h-197l-30 -283h-115l31 283h-211zM455 383h198l31 270h-197z" />
<glyph unicode="$" horiz-adv-x="866" d="M111 12l16 140q144 -19 324 -19q85 0 127 32t51 105q5 52 -21 91.5t-71.5 66t-101 50.5t-111 53.5t-100 66.5t-68 97t-15.5 139q17 140 102.5 212.5t213.5 77.5l18 176h141l-18 -178q179 -5 221 -16l-16 -137q-150 18 -334 18q-80 0 -120.5 -33.5t-47.5 -105.5 q-5 -50 21 -88.5t71 -65t101 -52t111 -55.5t99.5 -68t68 -97.5t15.5 -136.5q-17 -142 -102 -214t-215 -77l-18 -164h-140l19 166q-179 5 -221 16z" />
<glyph unicode="%" horiz-adv-x="1288" d="M174 104l944 1278l105 -86l-949 -1280zM175.5 943.5q0.5 50.5 8.5 121.5q8 73 17.5 122.5t24.5 86.5t32.5 57.5t47 33t61.5 16t82 3.5q46 0 76 -8.5t52 -29.5t30 -57t10 -91.5t-9 -132.5q-11 -94 -24.5 -150t-40.5 -96t-68.5 -55.5t-107.5 -15.5q-43 0 -71 4t-53.5 15.5 t-38.5 33t-21 57t-7.5 86zM299.5 886q11.5 -34 77.5 -34q51 4 64 13q25 18 37 105q5 34 11 95q12 90 9 138t-19.5 63.5t-58.5 15.5q-64 0 -81.5 -36.5t-33.5 -180.5l-2 -41q-15 -104 -3.5 -138zM760.5 178q0.5 50 7.5 121q10 88 23 143.5t31 92.5t48.5 55t66.5 24.5t95 6.5 q47 0 78 -9t53 -30t31 -58.5t9 -91.5t-9 -133q-19 -183 -67 -249t-175 -66q-43 0 -71 4t-53 15.5t-38.5 32.5t-21.5 56.5t-7.5 85.5zM879.5 153q1.5 -39 18.5 -53t63 -14q21 2 27.5 2.5t21 4t18 8t12.5 15.5t11.5 25t8.5 37.5t9 52t8 70.5q14 137 2 177t-73 40 q-64 0 -81.5 -37t-31.5 -180l-6 -41q-9 -68 -7.5 -107z" />
<glyph unicode="&#x26;" horiz-adv-x="999" d="M137 324l10 84q10 94 60 174.5t131 105.5q-52 33 -78.5 63t-40.5 81.5t-10 130.5l8 88q39 327 418 327q109 0 270 -28l-12 -119q-212 22 -287 22q-115 0 -170 -56.5t-65 -160.5l-11 -73q-22 -209 195 -209h172l12 102h135l-12 -102h92l-14 -133h-92l-66 -601 q-204 -43 -323 -43q-183 0 -258.5 85t-63.5 262zM291 332q-13 -118 42.5 -172t158.5 -54q50 0 165 21l56 494h-172q-106 0 -166.5 -47.5t-73.5 -163.5z" />
<glyph unicode="'" horiz-adv-x="434" d="M186 979l123 418h166l-151 -418h-138z" />
<glyph unicode="(" horiz-adv-x="507" d="M127 612q19 165 61 335.5t118 350t171 297.5l94 -84q-125 -212 -199 -454.5t-98 -444.5q-59 -530 97 -899l-109 -86q-101 177 -132 452t-3 533z" />
<glyph unicode=")" horiz-adv-x="509" d="M-2 -287q239 375 293 899q12 128 13 267.5t-27.5 313t-83.5 320.5l112 82q52 -90 86.5 -214t48 -256.5t13 -262.5t-14.5 -250q-18 -165 -59.5 -335.5t-118 -348t-172.5 -297.5z" />
<glyph unicode="*" horiz-adv-x="849" d="M186 1122l45 117l228 -92l30 278h115l-31 -278l248 90l23 -115l-248 -88l125 -221l-98 -82l-125 232l-174 -232l-82 82l172 221z" />
<glyph unicode="+" horiz-adv-x="942" d="M117 440l14 131h301l37 347h135l-39 -347h301l-14 -131h-301l-41 -362h-133l39 362h-299z" />
<glyph unicode="," horiz-adv-x="458" d="M72 -88q60 29 86 90q-41 4 -51 26t-5 81q8 68 27 86t88 18q68 0 84 -18t8 -86q-10 -96 -60.5 -158t-137.5 -113z" />
<glyph unicode="-" horiz-adv-x="714" d="M156 510l16 127h444l-14 -127h-446z" />
<glyph unicode="." horiz-adv-x="438" d="M100 106q8 67 28 86t89 19t85.5 -18.5t8.5 -86.5q-6 -67 -27 -87.5t-91 -20.5q-67 0 -83 20t-10 88z" />
<glyph unicode="/" horiz-adv-x="735" d="M18 -233l625 1611h150l-629 -1611h-146z" />
<glyph unicode="0" d="M156 362.5q4 79.5 18 198.5q14 121 28 202t36 150.5t50.5 109.5t72.5 68.5t99.5 39t133.5 10.5t131.5 -11.5t91 -40.5t57 -70t26.5 -110t3.5 -149.5t-16.5 -198.5t-27 -199.5t-37 -150t-52 -109t-73 -69.5t-100 -40t-133 -11q-79 0 -133 11t-91 40.5t-56.5 70t-26 110 t-2.5 149zM296 332q-2 -50 1 -80t11.5 -58t22 -42t35 -25t48.5 -14.5t65 -3.5t65.5 3.5t52 14.5t41 25t31 42t24 58t19 80t16.5 101t15 128q11 107 16 170t2.5 120.5t-12 85t-32.5 48.5t-54.5 27t-82.5 6q-43 0 -73.5 -6t-55.5 -17.5t-43 -37.5t-31.5 -56.5t-24 -84 t-19 -110.5t-18.5 -145q-8 -77 -12.5 -128t-6.5 -101z" />
<glyph unicode="1" horiz-adv-x="598" d="M139 971l17 151h391l-123 -1122h-154l115 971h-246z" />
<glyph unicode="2" horiz-adv-x="839" d="M123 4l18 139q81 102 177 219.5t143 175t94.5 121t66.5 104t23 77.5q7 80 -31 113.5t-131 33.5q-49 0 -140 -3t-130 -3l16 133l242 4q85 0 139.5 -9t104 -36t68 -85.5t8.5 -149.5q-7 -54 -36 -116t-84.5 -137.5t-104 -134.5t-130.5 -155t-127 -152h393l-14 -139h-565z " />
<glyph unicode="3" horiz-adv-x="866" d="M51 -258l15 125q35 0 101.5 -2t100.5 -2q148 0 219.5 49t83.5 168l9 76q13 112 -34.5 158t-150.5 46h-180l14 129h183q205 0 227 203l10 88q7 60 -3.5 100t-26.5 61t-58 31t-72 11.5t-94 1.5l-207 -4l15 127l200 4q84 0 134.5 -3.5t112.5 -21t93.5 -50t49.5 -93.5t8 -149 l-10 -103q-8 -76 -33.5 -127.5t-57.5 -78.5t-90 -60q72 -25 101.5 -102.5t19.5 -169.5l-8 -82q-12 -100 -44 -164.5t-92.5 -102t-142.5 -52.5t-204 -15q-63 0 -189 4z" />
<glyph unicode="4" horiz-adv-x="1019" d="M55 186l15 136l561 796h229l-88 -790h186l-14 -142h-186l-49 -426h-144l49 426h-559zM244 328h387l74 663z" />
<glyph unicode="5" horiz-adv-x="845" d="M82 -258l12 121h187q153 0 224.5 47t84.5 172l8 80q3 45 3.5 78.5t-9.5 57t-23.5 38.5t-38 23.5t-52.5 12t-68 3.5h-254l80 741h559l-15 -147h-418l-51 -465h115q126 0 201 -30.5t96 -79.5t26.5 -110.5t-8.5 -123.5v-4l-10 -84q-21 -188 -131.5 -260t-343.5 -72 q-43 0 -100 1t-74 1z" />
<glyph unicode="6" horiz-adv-x="983" d="M150 326q66 602 90 733q37 176 133 251.5t297 75.5q47 0 266 -16l-14 -135q-141 12 -269 12q-47 -1 -79 -4.5t-61.5 -15.5t-47.5 -25.5t-35.5 -45t-27.5 -63t-21 -90.5t-18.5 -117t-18.5 -153q115 41 248 41q189 0 256 -83.5t47 -252.5l-10 -98q-20 -170 -115 -263 t-285 -93q-196 0 -275.5 88t-59.5 254zM301 322q-13 -114 37.5 -157.5t161.5 -43.5q116 0 168.5 50t64.5 165l12 108q11 105 -24 149t-146 44q-144 0 -245 -43z" />
<glyph unicode="7" horiz-adv-x="802" d="M119 973l14 143h678l-377 -1358h-145l340 1215h-510z" />
<glyph unicode="8" horiz-adv-x="1007" d="M133 319l8 87q11 94 64.5 175t132.5 105q-51 34 -76.5 63t-38.5 81.5t-4 130.5l10 90q9 80 33.5 139.5t58.5 96t82.5 59t97.5 31t111 9.5q69 0 118.5 -6.5t98.5 -27t77.5 -55.5t42 -97t3.5 -147l-10 -90q-6 -58 -20 -101t-39 -74.5t-51 -52.5t-68 -47q74 -24 108 -105 t23 -175l-8 -86q-29 -183 -123.5 -262.5t-276.5 -82.5q-204 0 -290 75.5t-64 266.5zM281 328q-12 -108 37.5 -163.5t154.5 -58.5q121 0 186.5 54t77.5 172l8 78q24 211 -184 211h-31q-217 0 -241 -213zM365 961q-12 -110 34.5 -158.5t143.5 -48.5h28q204 0 226 209l8 75 q7 67 -1 110.5t-33 66.5t-57.5 31.5t-82.5 8.5q-49 0 -80 -3t-65 -15.5t-54 -35.5t-35.5 -64t-21.5 -101z" />
<glyph unicode="9" horiz-adv-x="940" d="M92 -244l14 135q141 -12 269 -12q47 1 79 4.5t61.5 15.5t47.5 25.5t35.5 45t27 63t20.5 90.5t18.5 117t17.5 153q-48 -18 -118.5 -29.5t-127.5 -11.5q-189 0 -256 83.5t-47 252.5l10 98q39 357 400 357q196 0 275 -87.5t61 -254.5q-70 -637 -91 -733 q-37 -177 -133.5 -252.5t-296.5 -75.5q-47 0 -266 16zM283 682q-13 -104 22.5 -148.5t147.5 -44.5q145 0 243 43l31 273q13 114 -37.5 157.5t-161.5 43.5q-116 0 -168.5 -50t-64.5 -165z" />
<glyph unicode=":" horiz-adv-x="485" d="M113 106q6 67 26.5 86t89.5 19t85 -18.5t8 -86.5q-6 -67 -26.5 -87.5t-90.5 -20.5q-69 0 -84.5 20t-7.5 88zM184 756q6 67 26.5 85.5t90.5 18.5q68 0 84 -18t10 -86q-8 -69 -28.5 -90t-90.5 -21q-69 0 -84.5 20.5t-7.5 90.5z" />
<glyph unicode=";" horiz-adv-x="487" d="M88 -88q60 29 86 90q-41 4 -50.5 26t-4.5 81q8 68 26.5 86t87.5 18t85 -18t8 -86q-10 -96 -60.5 -158t-138.5 -113zM190 756q6 67 26 85.5t89 18.5t85.5 -18t8.5 -86q-6 -68 -27 -89.5t-89 -21.5q-69 0 -85.5 21t-7.5 90z" />
<glyph unicode="&#x3c;" horiz-adv-x="1030" d="M111 444l12 115l831 342l-16 -149l-639 -250l580 -252l-17 -152z" />
<glyph unicode="=" horiz-adv-x="995" d="M145 268l15 142h696l-16 -142h-695zM180 598l17 141h696l-19 -141h-694z" />
<glyph unicode="&#x3e;" horiz-adv-x="1030" d="M121 96l16 154l639 252l-583 248l18 151l754 -344l-15 -115z" />
<glyph unicode="?" horiz-adv-x="847" d="M168 76q5 51 19 65.5t61 14.5q48 0 59.5 -14t5.5 -66q-6 -48 -20.5 -63t-63.5 -15q-46 0 -56.5 14.5t-4.5 63.5zM211 399l45 402h190q212 0 234 207l4 34q7 62 -2 103t-24 62.5t-56 32t-71 12t-95 1.5h-14h-211l14 131h199q87 0 140 -3.5t118 -21.5t98.5 -51t52.5 -96 t9 -153l-4 -51q-23 -196 -123 -270t-334 -74l-29 -265h-141z" />
<glyph unicode="@" horiz-adv-x="1333" d="M158 594q11 100 23 174.5t30.5 149.5t43 128t60 102t81.5 81t106.5 56t137 35t171.5 11q158 0 257 -33t152 -104t65 -182t-5 -267q-17 -152 -43.5 -252.5t-66.5 -156t-86.5 -77t-110.5 -21.5q-108 0 -160 104q-113 -49 -197 -49q-107 0 -140.5 78t-14.5 258 q11 95 30 162.5t53 119.5t87 77.5t127 25.5q106 0 241 -41q-15 -88 -88 -572q26 -47 74 -47q69 0 107 100t61 314q19 153 0 250t-102.5 141.5t-255.5 44.5q-62 0 -112.5 -5t-93 -17.5t-75 -27.5t-60 -42.5t-47.5 -54t-36.5 -70t-28 -83t-22 -100t-17.5 -114.5t-16 -133 q-12 -118 4 -196t65.5 -124t124 -64.5t187.5 -18.5h159l-16 -131h-199q-273 0 -379.5 129.5t-74.5 441.5zM580.5 468q12.5 -50 62.5 -50q85 0 162 39q12 72 35 216t34 216q-92 10 -129 10q-76 0 -112 -59t-51 -195q-14 -127 -1.5 -177z" />
<glyph unicode="A" horiz-adv-x="1126" d="M10 0l551 1364h236l254 -1364h-150l-70 346h-526l-137 -346h-158zM360 483h443l-144 729z" />
<glyph unicode="B" horiz-adv-x="1046" d="M131 0l150 1366h317q102 0 168 -10t130 -42q65 -30 91 -100q17 -45 17 -107v-7q0 -30 -3 -64l-12 -90q-6 -57 -19.5 -98t-38 -71t-49.5 -49.5t-67 -43.5q71 -23 99 -101q20 -55 20 -116q0 -26 -4 -53l-8 -84q-11 -98 -43 -162t-91.5 -101t-139 -52t-197.5 -15h-320z M295 125h178q146 0 217 48.5t84 166.5l8 76q3 24 3 48q0 72 -37 106q-48 44 -150 44h-250zM362 748h252q207 0 226 198l10 74q3 30 3 56q-1 94 -47 124q-60 38 -208 39h-180z" />
<glyph unicode="C" horiz-adv-x="1038" d="M141 374q0 22 1 44q3 82 14 186q14 126 26.5 213t31 170.5t39.5 136.5t52.5 101t68.5 74.5t90.5 46.5t116 27t146.5 7q107 0 324 -26l-15 -131q-260 22 -315 22q-51 0 -90.5 -3t-74 -15t-59 -21t-46.5 -37.5t-36 -48t-28.5 -67.5t-22 -81t-18 -104.5t-16.5 -122 t-17 -147.5q-10 -90 -13 -156q-1 -19 -1 -37v-12q0 -37 5 -69q8 -52 17 -86t37.5 -58t52.5 -36.5t75.5 -19t92.5 -8t117 -1.5q94 0 217 10l-12 -111q-201 -32 -354 -32q-64 0 -110.5 4t-92.5 15t-76.5 31t-57.5 52t-41 78.5t-22 109.5q-6 46 -6 102z" />
<glyph unicode="D" horiz-adv-x="1159" d="M131 0l150 1364l436 4q82 0 139 -11t105 -39.5t75 -77.5q26 -49 42 -126q14 -70 14 -166v-18q-2 -108 -17 -254q-16 -141 -35.5 -243t-48.5 -178.5t-64.5 -124.5t-87.5 -77.5t-111.5 -41t-141.5 -11.5h-455zM297 137l297 -2q59 3 95 10.5t72 28.5t57.5 55.5t42 95.5 t34 144.5t27.5 206.5q14 128 18 216q2 33 2 62q0 50 -4 90q-8 64 -22.5 100t-45.5 57q-32 21 -68 27q-31 5 -77 5h-16h-293z" />
<glyph unicode="E" horiz-adv-x="997" d="M131 0l150 1366h727l-15 -145h-577l-49 -451h526l-16 -149h-527l-53 -478h577l-16 -143h-727z" />
<glyph unicode="F" horiz-adv-x="983" d="M131 0l150 1364h737l-14 -141h-588l-51 -457h503l-14 -143h-504l-67 -623h-152z" />
<glyph unicode="G" horiz-adv-x="1050" d="M141 374q0 21 1 44q3 82 14 186q14 126 26.5 213t31 170.5t39.5 136.5t52.5 101t68.5 74.5t90.5 46.5t116 27t146.5 7q107 0 324 -26l-15 -131q-260 22 -315 22q-51 0 -90.5 -3t-74 -15t-59 -21t-46.5 -37.5t-36 -48t-28.5 -67.5t-22 -81t-18 -104.5t-16.5 -122 t-17 -147.5q-11 -102 -13 -174q-1 -16 -1 -31q0 -54 7 -95q9 -54 26.5 -87t51 -53.5t74 -29t101.5 -11.5q105 0 221 22l43 402h-200l12 110h348l-72 -633q-222 -36 -364 -36q-64 0 -110.5 4t-92.5 15t-76.5 31t-57.5 52t-41 78.5t-22 109.5q-6 46 -6 102z" />
<glyph unicode="H" horiz-adv-x="1189" d="M131 0l150 1366h151l-63 -598h565l65 598h152l-147 -1366h-154l68 631h-566l-67 -631h-154z" />
<glyph unicode="I" horiz-adv-x="450" d="M115 0l149 1364h150l-148 -1364h-151z" />
<glyph unicode="J" horiz-adv-x="544" d="M27 -16l14 127q33 0 49 0.5t43 2t40.5 5t33 10t29.5 17t21.5 25t18 35t9.5 46.5l121 1106h143l-121 -1100q-20 -167 -92 -226q-64 -53 -192 -53q-17 0 -35 1z" />
<glyph unicode="K" horiz-adv-x="1071" d="M131 0l150 1366h147l-68 -604h203l391 604h170l-434 -659l303 -707h-168l-270 627h-209l-67 -627h-148z" />
<glyph unicode="L" horiz-adv-x="917" d="M131 0l150 1364h151l-135 -1221h549l-15 -143h-700z" />
<glyph unicode="M" horiz-adv-x="1495" d="M131 0l150 1366h208l275 -899l475 899h215l-149 -1366h-142l127 1155l-469 -866h-153l-265 866l-127 -1155h-145z" />
<glyph unicode="N" horiz-adv-x="1224" d="M131 0l150 1366h198l434 -1155l127 1155h148l-148 -1366h-215l-426 1147l-125 -1147h-143z" />
<glyph unicode="O" horiz-adv-x="1144" d="M156 339q0 75 6 153t18 190q13 114 25.5 194.5t29.5 155.5t36.5 124t48.5 91.5t63 66.5t82 41.5t103.5 24t129.5 6.5q75 0 130.5 -6.5t100 -24.5t73 -42t48 -67.5t27.5 -91.5q9 -49 9 -124v-12q0 -70 -6 -143q-6 -80 -19 -193q-16 -152 -32.5 -251t-43.5 -183.5 t-60.5 -130.5t-89 -79.5t-124 -44.5t-168.5 -11q-75 0 -130.5 7t-99.5 25t-73 42.5t-48 68t-27.5 91.5t-8.5 123zM306 350q0 -35 4.5 -73t13 -58.5t22.5 -43t33 -32.5t45.5 -19t58.5 -12t74 -3q52 0 89.5 4t70.5 17.5t54.5 30.5t41.5 52.5t32 72.5t24.5 101.5t21.5 129.5 t20 165t16.5 164.5t7.5 129.5q1 22 1 40q0 36 -3 62q-4 38 -15.5 74t-29.5 53.5t-48 31.5t-67 18.5t-89 4.5q-42 0 -75 -3t-62 -12t-50 -19.5t-40 -33t-32 -43t-25 -59.5t-20 -73.5t-17 -92.5t-15.5 -109.5t-15.5 -132.5q-9 -79 -14 -131q-4 -52 -8 -109q-3 -50 -4 -83v-9z " />
<glyph unicode="P" horiz-adv-x="1130" d="M131 0l150 1364h479q87 0 152 -15t117 -51t75 -102q16 -45 16 -102q0 -28 -4 -58l-18 -166q-14 -124 -96.5 -216t-202.5 -109q-41 -6 -110 -7t-347 -1l-57 -537h-154zM358 672h318q56 0 96.5 6.5t81.5 26t66 61t32 104.5l19 164q2 17 2 33q0 42 -12 72q-16 42 -52.5 62 t-76 27t-93.5 7h-319z" />
<glyph unicode="Q" horiz-adv-x="1134" d="M147 356q0 133 23 326q17 153 33.5 251.5t43.5 183.5t61 132t89 80.5t123.5 45t167.5 11.5q75 0 130 -6.5t99.5 -24.5t73 -42.5t48 -67.5t28 -91.5t9.5 -123.5v-12q0 -69 -6 -143q-6 -80 -19 -193q-14 -124 -27 -210t-31.5 -163t-41.5 -126t-56.5 -88.5t-76.5 -61 t-101 -33.5l153 -78l-67 -137l-391 205q-137 15 -196.5 83.5t-67.5 216.5q-1 31 -1 66zM295 363q0 -20 1 -39q5 -127 57.5 -171t191.5 -44q42 0 74 2.5t61 10.5t50 18t40 30.5t32.5 42t26 58t21 73t18 92.5t16 111.5t15.5 134.5q9 80 14 134.5t9 111.5q3 50 3 84q0 4 -1 9 q0 36 -4.5 73.5t-13 59t-23 42.5t-33.5 31t-46 19t-58.5 11.5t-73.5 2.5q-53 0 -92 -4.5t-72 -20.5t-54.5 -32t-40.5 -55t-30 -73t-23 -103t-19 -127.5t-19 -162.5q-27 -197 -27 -319z" />
<glyph unicode="R" horiz-adv-x="1144" d="M131 0l150 1364h481q87 0 152 -15t117 -51t75 -102q16 -45 16 -102q0 -28 -4 -58l-18 -166q-10 -92 -49.5 -157.5t-114.5 -118.5l31 -594h-156l-29 545q-40 -6 -105 -7t-335 -1l-57 -537h-154zM358 672h320q56 0 96.5 6.5t81.5 26t66 61t32 104.5l19 164q2 17 2 33 q0 42 -12 72q-16 42 -52.5 62t-76 27t-93.5 7h-321z" />
<glyph unicode="S" horiz-adv-x="983" d="M137 -4l17 143q202 -18 372 -18q103 0 155 47.5t64 153.5q1 13 1 25q0 53 -24 95q-30 52 -82.5 88t-117.5 69.5t-130 71.5t-116 84q-52 45 -80 117q-21 53 -21 116q0 22 3 46q19 180 121.5 268.5t259.5 88.5q160 0 385 -17l-16 -143q-201 20 -371 20q-106 0 -159.5 -46.5 t-63.5 -149.5q-1 -13 -2 -25q0 -52 24 -94q30 -52 83 -87.5t118.5 -68t130 -70.5t116.5 -84.5t80 -120.5q19 -51 19 -114v-6q0 -24 -2 -49q-19 -178 -121.5 -267t-255.5 -89q-143 0 -387 16z" />
<glyph unicode="T" horiz-adv-x="1021" d="M164 1223l14 141h905l-14 -141h-375l-133 -1223h-155l135 1223h-377z" />
<glyph unicode="U" horiz-adv-x="1198" d="M169 342q0 25 1 54q2 65 7.5 131t15.5 155l73 680h156l-76 -680q-9 -79 -13.5 -131t-8.5 -109q-3 -50 -3 -83q1 -5 1 -9q0 -35 4 -73t13 -59t23.5 -42.5t34 -32t47 -19.5t60.5 -12t76 -3q54 0 93 4t73 17.5t56.5 30.5t43 52.5t33 73t25 101.5t21 129t19.5 165l76 680h154 l-76 -680q-12 -114 -24 -194.5t-29 -155t-36.5 -123t-49.5 -91t-65 -66t-85 -41t-108 -23.5t-136 -6q-61 0 -109.5 4.5t-89 15.5t-70.5 26t-53 41t-37.5 54.5t-23.5 72.5q-10 44 -12 90q-1 25 -1 56z" />
<glyph unicode="V" horiz-adv-x="1110" d="M156 1364h155l228 -1212l505 1212h150l-553 -1364h-233z" />
<glyph unicode="W" horiz-adv-x="1662" d="M176 1364h150l143 -1167l412 1165h145l145 -1165l404 1167h151l-466 -1364h-205l-133 1073l-377 -1073h-199z" />
<glyph unicode="X" horiz-adv-x="1036" d="M27 0l454 690l-291 674h168l228 -526l344 526h166l-434 -670l299 -694h-164l-240 555l-358 -555h-172z" />
<glyph unicode="Y" horiz-adv-x="1026" d="M137 1366h180l220 -715l381 715h178l-502 -893l-51 -473h-156l51 473z" />
<glyph unicode="Z" horiz-adv-x="1015" d="M63 0l15 145l784 1078h-651l18 145h818l-19 -154l-774 -1073h674l-17 -141h-848z" />
<glyph unicode="[" horiz-adv-x="538" d="M76 -291l217 1970h342l-14 -133h-201l-189 -1702h201l-14 -135h-342z" />
<glyph unicode="\" horiz-adv-x="761" d="M195 1376h149l272 -1609h-147z" />
<glyph unicode="]" horiz-adv-x="561" d="M0 -291l14 135h201l188 1702h-200l14 133h344l-217 -1970h-344z" />
<glyph unicode="^" horiz-adv-x="884" d="M150 825l333 574h138l206 -574h-137l-153 432l-242 -432h-145z" />
<glyph unicode="_" horiz-adv-x="1058" d="M90 -84l10 84h805l-12 -84h-803z" />
<glyph unicode="`" horiz-adv-x="606" d="M262 1440l113 63l127 -332l-105 -57z" />
<glyph unicode="a" horiz-adv-x="929" d="M100 322q0 89 21 266q33 253 102.5 357t220.5 104q87 0 218.5 -14t205.5 -42l-104 -991h-113l-14 64q-153 -76 -320 -76q-110 0 -163.5 80t-53.5 252zM260 326q0 -111 23 -160t77 -49q106 0 273 80q13 127 39 359.5t37 336.5q-97 20 -256 20h-13q-26 0 -48 -11t-36.5 -26 t-27 -44.5t-19.5 -52t-13.5 -63.5t-9 -64t-7.5 -68v-2q-19 -165 -19 -256z" />
<glyph unicode="b" horiz-adv-x="946" d="M113 6l155 1426h144l-47 -428q102 36 272 36q155 0 207 -104q35 -69 35 -201q0 -66 -9 -149q-11 -98 -21.5 -165t-27 -135.5t-37.5 -112t-51.5 -83t-71.5 -60.5t-95 -33.5t-124 -12.5q-157 0 -329 22zM268 127q51 -4 170 -4h15q53 0 91 9.5t65 40t42.5 57.5t29 92 t19.5 111.5t17 146.5q13 110 13 181t-32 108q-32 38 -102 38q-152 0 -244 -33z" />
<glyph unicode="c" horiz-adv-x="894" d="M128 285v31q2 64 11 143q11 95 20.5 161t23.5 129t30 103.5t40.5 77t53.5 56.5t70 35t89.5 20.5t113.5 5.5q35 0 131 -9.5t157 -19.5l-14 -129q-262 20 -285 20q-50 0 -85 -7t-62 -16.5t-45.5 -40t-31 -55t-23 -85.5t-16.5 -108t-17 -144q-7 -50 -9 -89q-1 -22 -1 -41 q0 -17 1 -31q2 -32 5 -55.5t13.5 -42.5t20 -31.5t30 -21t37 -13.5t47.5 -7.5t55.5 -3t66.5 -0.5q79 0 223 16l-12 -115q-158 -36 -326 -36q-50 0 -85.5 3t-71 11.5t-58.5 23.5t-44 40t-32 60q-11 36 -17 84q-4 36 -4 81z" />
<glyph unicode="d" horiz-adv-x="940" d="M132 325q0 88 13 201l9 62q32 253 100 357t219 104q82 0 264 -21l45 402h146l-158 -1428h-106q-3 11 -13 76q-169 -88 -309 -88q-133 0 -181 127q-29 76 -29 208zM284 315q2 -102 27 -146t82 -44q94 0 254 78l76 684q-20 5 -118.5 12.5t-117.5 7.5h-12q-28 0 -51 -11 t-39 -25.5t-29 -44t-20 -50.5t-14.5 -62.5t-10.5 -63t-8 -66.5q-19 -155 -19 -254v-15z" />
<glyph unicode="e" d="M125 289q0 71 14 225q13 110 26 183t34.5 138t50.5 102t73.5 64t102.5 37.5t139 10.5q197 0 267 -73q63 -66 63 -229v-38q-6 -104 -52 -161q-67 -80 -208 -81l-350 -2v-19q-11 -115 -11 -153q0 -67 19 -113q8 -20 28.5 -34t40 -20.5t53.5 -10t51 -4t50 -0.5q106 0 262 18 l-14 -113q-189 -34 -346 -34q-163 0 -228 68.5t-65 238.5zM303 592h346q109 0 109 117v21q0 110 -39 150q-43 44 -164 44q-45 0 -79 -7.5t-58.5 -17.5t-42 -34.5t-28 -44.5t-19.5 -63t-13.5 -73.5t-11.5 -91.5z" />
<glyph unicode="f" horiz-adv-x="702" d="M27 -401l6 86q126 24 141 159q1 9 7 71.5t32.5 312.5t71.5 665h-148l17 129h145l14 133q10 85 32 139t62 84.5t91.5 42t130.5 11.5q77 0 168 -11l-15 -118h-139q-32 0 -46 -0.5t-37.5 -3t-33.5 -7.5t-25 -15t-21.5 -25.5t-13 -38t-9.5 -52.5l-15 -139h228l-17 -129h-225 l-111 -1012q-10 -85 -30 -142.5t-51 -88.5t-65.5 -43.5t-80.5 -12.5q-27 0 -63 5z" />
<glyph unicode="g" horiz-adv-x="884" d="M113 -375q0 5 16 66t18 65q150 -32 273 -32q86 0 131 28t53 109q18 135 27 225q-79 -10 -180 -10q-69 0 -116 6t-89 23.5t-66 48t-37.5 80t-13.5 120.5q0 33 8 131q11 96 20.5 161t23.5 126.5t30 99.5t41 71.5t53.5 51t71.5 31t92 17.5t117 4q46 0 136.5 -12t158.5 -34 l-125 -1136q-9 -85 -32 -139t-64.5 -84.5t-94.5 -42t-133 -11.5q-146 0 -319 37zM283 369q0 -39 5 -66t19 -45t28.5 -27.5t46.5 -14.5t58.5 -6t77.5 -1q37 0 123 8q74 633 80 684q-129 10 -154 10q-122 0 -168 -31q-48 -33 -71 -137q-14 -63 -37 -256q-8 -63 -8 -118z" />
<glyph unicode="h" horiz-adv-x="985" d="M115 0l153 1415h146l-52 -457q228 80 355 80q110 0 157 -60q36 -46 36 -128q0 -25 -3 -53l-88 -797h-145l90 803v12q0 82 -80 82q-62 0 -157 -18.5t-177 -57.5l-90 -821h-145z" />
<glyph unicode="i" horiz-adv-x="423" d="M111 0l112 1022h152l-113 -1022h-151zM236 1247q0 15 2 35q8 60 23 75t75 15t73 -15q8 -9 8 -36q0 -16 -3 -39q-5 -56 -23 -74t-76 -18q-59 0 -71 16q-8 11 -8 41z" />
<glyph unicode="j" horiz-adv-x="444" d="M-41 -399l10 90q69 11 96.5 50t34.5 105l129 1178h150l-127 -1143q-9 -85 -29.5 -142.5t-52.5 -87.5t-68 -42t-84 -12q-30 0 -59 4zM242 1249q0 14 2 33q6 60 21.5 75t74.5 15q61 0 74 -15q9 -9 9 -37q0 -16 -3 -38q-5 -56 -22.5 -74t-75.5 -18q-59 0 -72 17q-8 11 -8 42 z" />
<glyph unicode="k" d="M115 0l153 1413h146l-82 -754h157l312 519h157l-346 -584l262 -594h-163l-234 522h-160l-57 -522h-145z" />
<glyph unicode="l" horiz-adv-x="466" d="M136 194q0 35 5 76l125 1141h150l-131 -1178q-2 -39 -2.5 -70t21 -53t69.5 -30l-11 -92q-29 -4 -49 -4q-38 0 -66 7.5t-53 26t-37.5 51t-18.5 82.5q-2 20 -2 43z" />
<glyph unicode="m" horiz-adv-x="1519" d="M115 0l112 1022h121l8 -68q200 86 361 86q106 0 166 -79q203 79 377 79q195 0 195 -194q0 -24 -3 -51l-86 -795h-149l88 801q1 9 1 17q0 75 -77 75q-48 0 -143 -15t-175 -40l-92 -838h-147l88 803v12q0 80 -76 80q-53 0 -151 -21t-181 -57l-88 -817h-149z" />
<glyph unicode="n" horiz-adv-x="987" d="M115 0l112 1024h121l4 -74q208 90 365 90q194 0 194 -192q0 -25 -2 -51l-88 -797h-149l90 803v12q0 80 -80 80q-60 0 -154.5 -19t-175.5 -57l-90 -819h-147z" />
<glyph unicode="o" horiz-adv-x="978" d="M127 299q0 91 16 213q12 111 26 186t36.5 138t52 100t75 63t103.5 35.5t139 9.5q124 0 193 -25t104.5 -86.5t35.5 -164t-15 -256.5q-12 -110 -25 -183t-35.5 -136.5t-52 -100.5t-75.5 -63.5t-105.5 -36.5t-142.5 -10q-162 0 -234 46t-89 164q-7 46 -7 107zM276 283 q0 -29 2 -47q4 -26 13.5 -51t23.5 -37.5t37 -22.5t51 -13t68 -3q55 0 91 5.5t65.5 25t46 44t30.5 75.5t22.5 105.5t18.5 147.5q10 96 14 152q2 30 2 58v17q0 16 -1 32q-4 51 -15 76.5t-36 44.5t-59.5 24.5t-88.5 5.5q-53 0 -88 -6t-63.5 -26t-45 -45.5t-30.5 -77t-22.5 -107 t-18.5 -148.5q-8 -69 -11.5 -114t-5.5 -90v-25z" />
<glyph unicode="p" horiz-adv-x="940" d="M68 -406l159 1428h107l10 -76q167 88 309 88q134 0 181 -126q29 -76 29 -208q0 -88 -13 -202l-6 -62q-33 -252 -102.5 -356.5t-219.5 -104.5q-78 0 -264 21l-45 -402h-145zM274 137q19 -5 116.5 -12.5t117.5 -7.5h12q33 0 58.5 12.5t43 38.5t29 52.5t20 69.5t12.5 72.5 t9 77.5q19 155 19 254q0 8 -1 15q-1 102 -26 146t-82 44q-95 0 -252 -78z" />
<glyph unicode="q" d="M123 284q0 69 10 156q11 98 21 165.5t26 135.5t37 111.5t52 82.5t72 60t95.5 33t124.5 12q154 0 330 -22l-160 -1424h-145l49 424q-102 -36 -273 -36q-154 0 -206 106q-33 68 -33 196zM274 268q0 -66 27 -104q28 -40 92 -41q159 0 258 35l80 729q-44 8 -184 8 q-52 0 -89 -9t-64 -39t-42.5 -55.5t-29 -90t-19.5 -110t-18 -145.5q-9 -99 -11 -170v-8z" />
<glyph unicode="r" horiz-adv-x="659" d="M115 0l112 1024h125l4 -70q158 71 322 88l-16 -143q-160 -16 -312 -84l-88 -815h-147z" />
<glyph unicode="s" horiz-adv-x="837" d="M119 10l14 135q129 -16 301 -16q77 0 115 28.5t47 94.5q1 8 1 16q-1 36 -21 66q-24 36 -66 60t-93.5 46.5t-102.5 49.5t-91.5 61.5t-62.5 90.5q-15 39 -15 84v6q0 18 2 38q14 135 98.5 203.5t211.5 68.5q87 0 166.5 -4t116.5 -8l36 -4l-14 -135q-137 16 -311 16 q-72 0 -108 -29.5t-42 -93.5q-1 -9 -1 -17q0 -29 14 -55q18 -32 51 -53.5t75.5 -44t87.5 -41t87 -47t74 -61.5q31 -33 47 -85q11 -35 11 -76q0 -18 -2 -38q-13 -135 -97.5 -203.5t-211.5 -68.5q-86 0 -165 4t-115 8z" />
<glyph unicode="t" horiz-adv-x="731" d="M135 903q1 24 7 64t8 57h215q5 46 15.5 136.5t14.5 127.5h140l-29 -264h221q-1 -24 -6.5 -64.5t-7.5 -56.5h-224q-67 -619 -67 -659q0 -79 30 -111.5t95 -32.5q46 0 100 11q-1 -16 -3 -40.5t-3.5 -42t-3.5 -28.5q-92 -18 -119 -18q-137 0 -187 57.5t-50 177.5 q0 80 12 182l57 504h-215z" />
<glyph unicode="u" horiz-adv-x="987" d="M130 174q0 23 3 49l88 797h150l-88 -801q-1 -11 -2 -20q-1 -31 15 -49q20 -24 62 -25q60 0 154.5 19t177.5 57l92 819h148l-115 -1024h-123l-2 74q-206 -88 -366 -88q-194 0 -194 192z" />
<glyph unicode="v" horiz-adv-x="921" d="M131 1024h154l164 -868l354 868h153l-426 -1024h-196z" />
<glyph unicode="w" horiz-adv-x="1384" d="M156 1024h149l74 -827l309 827h182l123 -827l260 827h148l-322 -1024h-196l-127 831l-303 -831h-199z" />
<glyph unicode="x" horiz-adv-x="819" d="M37 0l317 510l-196 512h153l133 -375l222 375h149l-307 -512l203 -510h-148l-149 369l-221 -369h-156z" />
<glyph unicode="y" horiz-adv-x="923" d="M86 -362l35 83q16 -4 41 -4q27 0 50.5 13.5t40 31.5t35 52t28 57.5t26.5 67t25 61.5h-37l-203 1024h166l158 -815l331 815h162l-506 -1223q-86 -207 -219 -207q-78 0 -133 44z" />
<glyph unicode="z" horiz-adv-x="811" d="M66 2l14 123l518 766h-424l14 135h603l-15 -129l-518 -758h444l-14 -137h-622z" />
<glyph unicode="{" horiz-adv-x="593" d="M88 645l12 100q85 61 119 116t47 157l39 373q8 75 24.5 123.5t52.5 88.5t99 58t158 18h49l-16 -131h-47q-53 0 -84 -7.5t-48.5 -29t-24.5 -46.5t-13 -74l-41 -373q-14 -116 -51.5 -189.5t-116.5 -134.5q64 -60 86 -134t10 -189l-39 -371q-8 -58 -3 -93.5t35.5 -51 t100.5 -15.5h49l-16 -131h-47q-94 0 -153.5 20t-85 58t-32.5 91.5t3 121.5l39 371q12 102 -10.5 156t-94.5 118z" />
<glyph unicode="|" horiz-adv-x="385" d="M61 -422l224 2030h102l-225 -2030h-101z" />
<glyph unicode="}" horiz-adv-x="593" d="M0 -291l12 131h49q53 0 84.5 7.5t49 29.5t24.5 48t12 75l41 371q12 115 51 189t119 134q-66 62 -88.5 136t-9.5 188l41 373q7 57 1.5 92t-37 50t-101.5 15h-47l14 131h49q95 0 154 -19t85.5 -56t33.5 -90.5t-2 -122.5l-41 -373q-12 -101 10.5 -156t93.5 -117l-12 -100 q-86 -62 -120 -116.5t-44 -157.5l-41 -371q-8 -73 -25 -122t-53 -90t-100 -60t-158 -19h-45z" />
<glyph unicode="~" horiz-adv-x="915" d="M147 549q110 99 193 102q46 3 140 -30t155 -35q57 0 149 73l54 -92q-38 -50 -100 -78t-115 -30q-39 -1 -76 6t-58.5 15t-55.5 22t-50 20q-73 19 -184 -69q-38 69 -52 96z" />
<glyph unicode="&#xa2;" horiz-adv-x="944" d="M157 460q0 74 11 173q13 116 25 192.5t31 145t43.5 108.5t62.5 71t87 45t118 19l18 162h137l-18 -164q133 -8 223 -24l-14 -131q-256 22 -283 22q-50 0 -85 -7t-62.5 -16.5t-46 -39t-31 -54.5t-23 -84.5t-16.5 -107t-17 -143.5q-9 -81 -10 -136.5t9.5 -95.5t27 -62.5 t50.5 -35.5t71.5 -17t97.5 -4q44 2 137.5 10t104.5 9l-12 -115q-98 -25 -240 -35l-16 -161h-138l17 161q-54 3 -93 12.5t-72 30.5t-52.5 56.5t-30.5 88.5t-11 127z" />
<glyph unicode="&#xa3;" horiz-adv-x="911" d="M66 0l14 125q83 4 113 50t45 185l34 322h-112l14 102h111l18 160q14 123 36 202.5t63 133.5t101.5 77t151.5 23q79 0 256 -37l-14 -110q-169 29 -252 29q-50 0 -85.5 -21.5t-55.5 -62t-30.5 -83.5t-16.5 -102q-1 -7 -3 -21.5t-3 -21.5l-17 -166h354l-12 -102h-354 l-37 -342q-1 -8 -3 -23.5t-3 -23.5q-7 -97 -51 -160h458l-12 -133h-708z" />
<glyph unicode="&#xa5;" horiz-adv-x="1052" d="M180 1360h156l231 -676l389 676h156l-481 -836h248l-13 -123h-643l13 123h241zM207 219l12 121h643l-12 -121h-256l-33 -219h-141l31 219h-244z" />
<glyph unicode="&#xa8;" horiz-adv-x="753" d="M246 1225q5 58 19.5 74t68.5 16t68 -16t8 -74q-6 -54 -22.5 -71t-72.5 -17q-53 0 -64 15.5t-5 72.5zM565 1225q6 59 20.5 74.5t67.5 15.5q56 0 69.5 -16t6.5 -74q-5 -54 -21.5 -71t-72.5 -17q-52 0 -63.5 16t-6.5 72z" />
<glyph unicode="&#xa9;" horiz-adv-x="1431" d="M119 678q21 193 116.5 352.5t251.5 254.5t342 95q140 0 254 -55.5t185.5 -150.5t103.5 -223.5t17 -272.5q-22 -192 -117.5 -350t-252.5 -253t-345 -95q-140 0 -253 55.5t-183.5 150t-102 222t-16.5 270.5zM236 678q-13 -122 12 -229t82.5 -186t150.5 -125t209 -46 q158 0 287.5 79t206.5 211t96 296q19 165 -29 298t-160 212.5t-270 79.5q-155 0 -283 -79t-205.5 -213t-96.5 -298zM498.5 533.5q0.5 47.5 7.5 109.5q9 86 18 140.5t24 103.5t34 75t50.5 45.5t71 26t97.5 6.5q84 0 198 -20l-12 -86q-184 14 -192 14q-47 0 -76 -9t-48 -26 t-30 -56.5t-18.5 -86t-16.5 -128.5v-3q-5 -48 -5.5 -82t1.5 -59.5t13.5 -41.5t23 -25.5t37 -14t47.5 -5.5t63 -1q52 0 150 12l-8 -78q-102 -25 -219 -25q-39 0 -65.5 2.5t-52.5 10.5t-42 23t-29 38.5t-17.5 58t-4 82z" />
<glyph unicode="&#xab;" horiz-adv-x="915" d="M117 504l286 407l101 -77l-232 -330l160 -330l-119 -80zM469 504l287 407l100 -77l-229 -330l157 -330l-118 -78z" />
<glyph unicode="&#xad;" horiz-adv-x="714" d="M156 510l16 127h444l-14 -127h-446z" />
<glyph unicode="&#xae;" horiz-adv-x="888" d="M195 1042q18 160 123.5 267.5t259.5 107.5q151 0 231 -107.5t65 -267.5q-18 -160 -121.5 -267t-256.5 -107q-154 0 -235 107t-66 267zM266 1042q-14 -131 49.5 -217t188.5 -86q123 0 205 86.5t96 216.5q14 129 -49 216.5t-187 87.5q-125 0 -207 -87t-96 -217zM414 872 l37 351h127q47 0 72.5 -20t21.5 -68l-6 -41q-6 -47 -41 -72l8 -150h-51l-7 136q-14 -2 -100 -2l-14 -134h-47zM479 1051h74q61 0 63 43l5 39q4 28 -10.5 36.5t-43.5 8.5h-73z" />
<glyph unicode="&#xb4;" horiz-adv-x="606" d="M244 1174l200 331l99 -63l-211 -326z" />
<glyph unicode="&#xb8;" horiz-adv-x="610" d="M180 -416l15 76q6 0 44.5 -3t55.5 -3q45 0 56.5 12t17.5 60q2 16 0.5 27t-12.5 16.5t-35 5.5l-97 -2q8 34 18 72t22.5 83.5t19.5 71.5h92q-26 -104 -37 -139q8 0 22 1t19 1q46 0 68 -32.5t16 -92.5q-10 -95 -47.5 -130.5t-108.5 -35.5q-27 0 -129 12z" />
<glyph unicode="&#xbb;" horiz-adv-x="917" d="M92 182l234 330l-160 330l119 78l198 -408l-288 -408zM446 182l232 330l-158 330l119 78l199 -408l-289 -410z" />
<glyph unicode="&#x2c6;" horiz-adv-x="763" d="M205 1163l297 232l239 -236l-71 -86l-185 174l-233 -172z" />
<glyph unicode="&#x2da;" horiz-adv-x="546" d="M240 1245q6 65 50.5 109.5t102.5 44.5q59 0 94 -44.5t29 -109.5q-8 -63 -53 -107t-105 -44q-58 0 -92 44t-26 107zM311 1245q-3 -32 13 -55t43 -23q30 0 53 23.5t26 54.5q3 34 -14 57t-47 23q-28 0 -48.5 -23t-25.5 -57z" />
<glyph unicode="&#x2dc;" horiz-adv-x="790" d="M238 1200q35 49 78.5 81.5t86.5 35.5q37 0 103 -36t100 -36q43 0 92 58q7 -7 19 -19.5t22.5 -23t20.5 -19.5q-33 -50 -76 -81.5t-88 -31.5q-36 0 -100 36t-101 36q-42 0 -100 -65q-10 11 -28.5 32.5t-28.5 32.5z" />
<glyph unicode="&#x401;" horiz-adv-x="1011" d="M131 0l150 1366h727l-15 -145h-577l-49 -451h526l-16 -149h-527l-53 -478h577l-16 -143h-727zM426 1569q5 60 19.5 76t68.5 16q56 0 69 -16t7 -76q-6 -53 -22.5 -69.5t-73.5 -16.5q-54 0 -65 15.5t-3 70.5zM748 1569q6 60 21 76t69 16t66.5 -16t6.5 -76q-5 -52 -22 -69 t-72 -17q-53 0 -64 15.5t-5 70.5z" />
<glyph unicode="&#x402;" horiz-adv-x="1169" d="M164 1223l14 141h905l-14 -141h-375l-41 -375q184 16 230 16q139 0 185.5 -90.5t21.5 -322.5l-3 -17q-16 -142 -43 -234t-66.5 -138.5t-81.5 -63t-103 -16.5q-25 0 -111 16q6 45 14 135q58 -14 78 -14q53 0 80 20.5t44.5 82t31.5 192.5q18 156 11 209q-15 93 -95 94 q-131 0 -209 -8l-76 -709h-155l135 1223h-377z" />
<glyph unicode="&#x403;" horiz-adv-x="919" d="M131 2l150 1362h700l-14 -145h-549l-133 -1217h-154zM537 1599l282 193l53 -111l-286 -184z" />
<glyph unicode="&#x404;" horiz-adv-x="1030" d="M153 399q0 117 19 287q18 173 47.5 294t69 201.5t99 126t129 63.5t167.5 18q211 0 373 -43l-27 -127q-160 34 -368 34q-64 0 -106.5 -11t-80 -40t-62.5 -84t-44.5 -139.5t-34.5 -210.5h555l-17 -137h-555q-12 -113 -16 -190t2 -136.5t20 -94t43 -56.5t66 -29.5t94 -7.5 t182.5 12.5t204.5 28.5l-8 -119q-202 -57 -399 -57q-97 0 -162 20.5t-109.5 67t-63 129.5t-18.5 200z" />
<glyph unicode="&#x405;" horiz-adv-x="987" d="M137 -4l17 143q202 -18 372 -18q103 0 155 47.5t64 153.5q7 67 -22.5 119.5t-82.5 89t-118 70t-130 71.5t-116.5 84t-79.5 117t-18 161q19 180 121.5 268.5t259.5 88.5q160 0 385 -17l-16 -143q-201 20 -371 20q-106 0 -159.5 -46.5t-63.5 -149.5q-7 -67 22.5 -119 t82.5 -87.5t118.5 -68t130 -70.5t116.5 -84.5t79.5 -120.5t17.5 -169q-19 -178 -121.5 -267t-255.5 -89q-143 0 -387 16z" />
<glyph unicode="&#x406;" horiz-adv-x="462" d="M125 0l149 1364h152l-150 -1364h-151z" />
<glyph unicode="&#x407;" horiz-adv-x="462" d="M125 0l149 1364h152l-150 -1364h-151zM139 1618q8 60 22.5 75t69.5 15t68 -15.5t6 -74.5q-5 -54 -21.5 -71t-72.5 -17q-54 0 -65.5 16t-6.5 72zM463 1618q6 59 21 74.5t69 15.5q55 0 67.5 -15t6.5 -75q-6 -55 -22 -71.5t-73 -16.5q-52 0 -63.5 16t-5.5 72z" />
<glyph unicode="&#x408;" horiz-adv-x="544" d="M27 -16l14 127q33 0 49 0.5t43 2t40.5 5t33 10t29.5 17t21.5 25t18 35t9.5 46.5l121 1106h143l-121 -1100q-20 -167 -92.5 -226.5t-226.5 -51.5z" />
<glyph unicode="&#x409;" horiz-adv-x="1677" d="M53 -14l10 92q30 5 51 16t32.5 24t19.5 35t10.5 38t5.5 45l123 1128h694l-59 -537q365 0 444 -8q120 -15 186.5 -103.5t51.5 -221.5l-18 -166q-8 -75 -35 -133t-65.5 -94.5t-92 -59.5t-110.5 -32t-125 -9h-480l133 1217h-389l-102 -945q-10 -86 -31.5 -144.5t-54 -89.5 t-68.5 -43.5t-84 -12.5q-18 0 -47 4zM862 129h320q54 0 95.5 7.5t82.5 27.5t66.5 62t31.5 104l19 164q6 51 -4.5 88t-31 58t-54.5 33t-67 15.5t-77 3.5h-317z" />
<glyph unicode="&#x40a;" horiz-adv-x="1753" d="M131 0l150 1366h151l-57 -541h489l60 539h153l-59 -537q251 0 334 -2.5t137 -11.5q109 -20 166 -107t43 -212l-19 -166q-11 -94 -47.5 -159.5t-96 -101.5t-128.5 -51.5t-156 -15.5h-477l76 686h-492l-73 -686h-154zM940 129h317q43 0 77.5 4t71 17t62 34t44.5 58.5 t24 87.5l18 164q7 63 -8.5 104.5t-53 61t-77 26t-96.5 6.5h-315z" />
<glyph unicode="&#x40b;" horiz-adv-x="1232" d="M164 1223l14 141h905l-14 -141h-375l-47 -435q204 70 324 70q110 0 157 -59.5t33 -182.5l-65 -616h-148l68 631q9 88 -74 88q-53 0 -141.5 -16t-167.5 -48l-72 -655h-155l135 1223h-377z" />
<glyph unicode="&#x40c;" horiz-adv-x="1081" d="M131 0l150 1366h147l-68 -604h203l391 604h170l-434 -659l303 -707h-168l-270 627h-209l-67 -627h-148zM584 1591l280 193l54 -111l-285 -184z" />
<glyph unicode="&#x40e;" horiz-adv-x="892" d="M119 -33l35 84q14 -4 39 -4q27 0 50.5 13.5t40 31.5t34.5 52t28 57.5t26.5 66.5t24.5 62h-37l-202 1024h166l159 -815l330 815h162l-506 -1223q-42 -106 -99 -156.5t-120 -50.5q-80 0 -131 43zM346 1604l57 84q33 -30 86 -58t109 -28q97 0 221 84l37 -82 q-25 -22 -59.5 -46t-96 -49.5t-114.5 -25.5q-76 0 -140.5 40.5t-99.5 80.5z" />
<glyph unicode="&#x40f;" horiz-adv-x="1214" d="M131 0l150 1362h151l-133 -1223h588l135 1223h152l-150 -1362h-371l-35 -307h-151l35 307h-371z" />
<glyph unicode="&#x410;" horiz-adv-x="1103" d="M-2 0l551 1364h233l256 -1364h-149l-70 346h-526l-137 -346h-158zM348 483h443l-144 729z" />
<glyph unicode="&#x411;" horiz-adv-x="1118" d="M131 0l150 1364h686l-15 -137h-534l-43 -400q277 0 344 -1t108 -7q118 -15 181.5 -104.5t48.5 -220.5l-19 -166q-8 -75 -35 -133t-65.5 -94.5t-92 -59.5t-111 -32t-126.5 -9h-477zM297 129h317q43 0 77.5 4t71 17t62 34t44.5 58.5t24 87.5l18 164q6 63 -9.5 104.5 t-52.5 61t-76.5 26t-96.5 6.5h-318z" />
<glyph unicode="&#x412;" horiz-adv-x="1050" d="M131 0l150 1366h317q102 0 168 -10t130.5 -41.5t90.5 -101t14 -177.5l-12 -90q-6 -57 -19.5 -98t-38 -71t-49.5 -49.5t-67 -43.5q70 -23 98.5 -101t16.5 -169l-8 -84q-11 -98 -43 -162t-91.5 -101t-139 -52t-197.5 -15h-320zM295 125h178q146 0 217 48.5t84 166.5l8 76 q13 110 -34.5 155t-149.5 45h-250zM362 745h252q207 0 226 201l10 74q16 142 -43.5 180.5t-208.5 38.5h-180z" />
<glyph unicode="&#x413;" horiz-adv-x="919" d="M131 0l150 1364h700l-14 -143h-551l-133 -1221h-152z" />
<glyph unicode="&#x414;" horiz-adv-x="1263" d="M-2 -293l45 422h107q71 100 115.5 187t72.5 201.5t37.5 178.5t28.5 229q1 7 1.5 11t1 9.5t1.5 10.5l43 408h731l-138 -1235h142l-47 -422h-148l33 293h-848l-33 -293h-145zM313 129h584l125 1106h-436q-9 -77 -20 -177t-15 -138q-28 -247 -52 -351q-51 -224 -186 -440z " />
<glyph unicode="&#x415;" horiz-adv-x="1011" d="M131 0l150 1366h727l-15 -145h-577l-49 -451h526l-16 -149h-527l-53 -478h577l-16 -143h-727z" />
<glyph unicode="&#x416;" horiz-adv-x="1390" d="M29 0l442 682l-285 684h164l260 -625h84l70 629h147l-71 -629h80l374 629h164l-418 -688l297 -682h-166l-260 606h-86l-65 -606h-146l66 606h-90l-395 -606h-166z" />
<glyph unicode="&#x417;" horiz-adv-x="888" d="M84 2l14 125q34 0 102 -2t103 -2q146 0 217 49t84 168l8 76q13 112 -34 158.5t-148 46.5h-182l14 129h180q208 0 230 202l10 88q7 60 -3.5 100t-27 61t-59 31t-72.5 11.5t-94 1.5l-205 -4l15 127l200 4q83 0 134 -3.5t113 -21t94 -50t50.5 -93.5t8.5 -149l-13 -103 q-18 -112 -57.5 -166t-122.5 -100q72 -25 101.5 -102.5t19.5 -169.5l-10 -82q-11 -100 -43 -164.5t-93.5 -102t-143.5 -52.5t-204 -15q-60 0 -186 4z" />
<glyph unicode="&#x418;" horiz-adv-x="1224" d="M131 0l150 1366h151l-127 -1151l684 1151h199l-148 -1366h-147l125 1147l-674 -1147h-213z" />
<glyph unicode="&#x419;" horiz-adv-x="1226" d="M131 0l150 1366h151l-127 -1151l684 1151h199l-148 -1366h-147l125 1147l-674 -1147h-213zM512 1604l57 84q34 -32 88 -59.5t113 -26.5q80 0 215 84l35 -82q-40 -38 -117 -79.5t-153 -41.5q-52 0 -106.5 25.5t-83.5 49.5t-48 46z" />
<glyph unicode="&#x41a;" horiz-adv-x="1058" d="M131 0l150 1366h147l-68 -604h203l391 604h170l-434 -659l303 -707h-168l-270 627h-209l-67 -627h-148z" />
<glyph unicode="&#x41b;" horiz-adv-x="1103" d="M53 -14l10 92q30 5 51.5 16.5t33 23t19.5 35.5t10.5 38t6.5 45l123 1126h764l-149 -1362h-152l133 1217h-463l-102 -945q-10 -86 -31.5 -144.5t-54 -89.5t-68.5 -43.5t-84 -12.5q-20 0 -47 4z" />
<glyph unicode="&#x41c;" horiz-adv-x="1488" d="M131 0l150 1366h208l275 -899l475 899h215l-149 -1366h-142l127 1155l-469 -866h-153l-265 866l-127 -1155h-145z" />
<glyph unicode="&#x41d;" horiz-adv-x="1189" d="M131 0l150 1366h151l-63 -598h565l65 598h152l-147 -1366h-154l68 631h-566l-67 -631h-154z" />
<glyph unicode="&#x41e;" horiz-adv-x="1138" d="M152 337.5q-1 73.5 4.5 153.5t17.5 191q16 150 32.5 248t43.5 183t61 132.5t88.5 82t123.5 46.5t167 12q73 0 127 -6.5t98.5 -23t74 -41t49.5 -66t29.5 -91.5t11 -124t-4.5 -156.5t-18 -195.5q-17 -151 -34.5 -251.5t-45.5 -183.5t-63 -130.5t-90.5 -79.5t-123 -43.5 t-165.5 -11.5q-73 0 -126.5 7t-97 25t-72.5 42.5t-48.5 67t-28.5 91.5t-10 122.5zM300.5 344q0.5 -36 5 -72.5t13 -57.5t23 -41.5t33 -30.5t45 -18t57.5 -10.5t72 -2.5q52 0 90 4t71 17.5t55.5 30.5t42 52t32 72.5t25 101t21 129t19.5 164.5q11 97 16.5 161.5t7.5 128.5 t-2.5 102.5t-16 74.5t-30 54t-48.5 32.5t-67 19.5t-89 5t-90 -4.5t-70.5 -19.5t-54 -32t-41 -54t-31.5 -74t-24 -102.5t-20 -128.5t-19 -163q-9 -80 -14 -134.5t-8.5 -111t-3 -92.5z" />
<glyph unicode="&#x41f;" horiz-adv-x="1083" d="M131 0l150 1362h761l-149 -1362h-150l131 1217h-460l-133 -1217h-150z" />
<glyph unicode="&#x420;" horiz-adv-x="1116" d="M131 0l150 1364h479q87 0 152 -15t117 -50.5t75 -102t12 -160.5l-18 -166q-14 -124 -96.5 -216t-202.5 -109q-41 -6 -110 -7t-347 -1l-57 -537h-154zM358 672h318q56 0 96.5 6.5t81.5 26t66 61t32 104.5l19 164q6 63 -10 105t-52.5 62t-76 27t-93.5 7h-319z" />
<glyph unicode="&#x421;" horiz-adv-x="1040" d="M148 417.5q3 82.5 14 186.5q14 126 26.5 213t30.5 170.5t39 136.5t52.5 101t69 74.5t91 46.5t116 27t146.5 7q107 0 324 -26l-17 -131q-260 22 -313 22q-51 0 -90.5 -3t-74 -14.5t-59.5 -21.5t-47 -37.5t-36 -48t-28 -67.5t-22.5 -81.5t-18.5 -104.5t-16 -122t-16 -147 q-10 -90 -13.5 -156t4 -118t16.5 -86t37.5 -58t52.5 -36.5t75.5 -19t93 -8t117.5 -1.5q95 0 218 10l-13 -111q-201 -32 -354 -32q-64 0 -110.5 4t-92.5 15t-76.5 31t-57.5 52t-41 78.5t-22 109.5t-5 145.5z" />
<glyph unicode="&#x422;" horiz-adv-x="1019" d="M164 1223l14 141h905l-14 -141h-375l-133 -1223h-155l135 1223h-377z" />
<glyph unicode="&#x423;" horiz-adv-x="897" d="M119 -29l35 84q14 -4 39 -4q27 0 50.5 13.5t40 31.5t34.5 52t28 57.5t26.5 66.5t24.5 62h-37l-202 1024h166l159 -815l330 815h162l-506 -1223q-42 -106 -99 -156.5t-120 -50.5q-80 0 -131 43z" />
<glyph unicode="&#x424;" horiz-adv-x="1464" d="M129.5 552.5q0.5 59.5 9.5 137.5q11 101 29 171t50.5 124.5t75.5 87t112 54t151 30t201 10.5l22 197h156l-21 -195q87 -2 151.5 -7t121 -16t94.5 -28t68 -43.5t46.5 -61t25 -83t7.5 -106.5t-10 -134q-12 -101 -29 -171t-49 -125.5t-74 -89t-109.5 -55.5t-149 -31 t-199.5 -11l-23 -207h-155l22 207q-88 1 -152.5 5.5t-122 15t-96 27t-70 43.5t-48.5 61.5t-26 84t-8.5 109zM265 593.5q-1 -40.5 5 -76t17.5 -58.5t35 -42t52 -29.5t74.5 -18t97 -10t124 -3.5l73 662q-97 -1 -158.5 -5.5t-116 -18t-85 -34.5t-55 -59t-36.5 -87.5t-20 -123.5 q-6 -56 -7 -96.5zM825 356q95 1 156.5 6t114.5 19t83 35.5t54 60.5t35.5 88.5t19.5 124.5q6 56 7 96.5t-5.5 75t-18 57.5t-35.5 41t-51.5 28t-73 17t-94 9.5t-118.5 3.5z" />
<glyph unicode="&#x425;" horiz-adv-x="1026" d="M25 0l452 690l-291 674h170l226 -526l346 526h166l-437 -670l299 -694h-163l-240 555l-358 -555h-170z" />
<glyph unicode="&#x426;" horiz-adv-x="1259" d="M131 0l150 1362h151l-133 -1221h590l133 1221h154l-136 -1221h136l-41 -362h-144l27 221h-887z" />
<glyph unicode="&#x427;" horiz-adv-x="976" d="M168 813l61 547h150l-62 -561q-4 -42 16 -65t62 -23q56 0 153 18.5t181 56.5l64 574h149l-151 -1362h-138l72 651q-192 -80 -363 -80q-218 0 -194 244z" />
<glyph unicode="&#x428;" horiz-adv-x="1677" d="M131 0l150 1364h151l-133 -1225h453l135 1225h153l-135 -1225h453l135 1225h152l-150 -1364h-1364z" />
<glyph unicode="&#x429;" horiz-adv-x="1724" d="M131 0l150 1364h151l-133 -1223h453l135 1223h153l-135 -1223h453l135 1223h154l-136 -1223h138l-41 -362h-144l25 221h-1358z" />
<glyph unicode="&#x42a;" horiz-adv-x="1193" d="M168 1223l14 141h330l-59 -537q277 0 345 -1t111 -7q114 -15 177 -106.5t49 -218.5l-19 -166q-8 -75 -34 -133t-64.5 -94.5t-92 -59.5t-110.5 -32t-125 -9h-479l135 1223h-178zM377 129h317q55 0 96.5 7.5t82.5 27.5t66.5 62t31.5 104l18 164q7 63 -8 104.5t-51.5 61 t-75.5 26t-96 6.5h-320z" />
<glyph unicode="&#x42b;" horiz-adv-x="1415" d="M131 0l150 1364h151l-59 -537q373 0 434 -6q128 -12 195.5 -102t52.5 -225l-19 -166q-8 -75 -35 -133t-65.5 -94.5t-92 -59.5t-110.5 -32t-125 -9h-477zM295 129h319q55 0 96.5 7.5t82.5 27.5t66.5 62t31.5 104l18 164q6 51 -4.5 88t-30 58t-53.5 33t-67 15.5t-78 3.5 h-318zM1108 0l149 1364h150l-150 -1364h-149z" />
<glyph unicode="&#x42c;" horiz-adv-x="1118" d="M131 0l150 1364h151l-59 -537q373 0 434 -6q128 -12 195.5 -102t52.5 -225l-19 -166q-8 -75 -35 -133t-65.5 -94.5t-92 -59.5t-110.5 -32t-125 -9h-477zM295 129h319q42 0 76 4t70.5 17t62 34t44.5 58.5t24 87.5l18 164q7 63 -8.5 104.5t-52.5 61t-76.5 26t-95.5 6.5 h-318z" />
<glyph unicode="&#x42d;" horiz-adv-x="1036" d="M86 39l16 119q77 -16 199.5 -28.5t177.5 -12.5q57 0 95.5 7.5t73 29.5t56.5 56.5t41.5 94t33 136.5t26.5 190h-555l16 137h555q9 106 10.5 180.5t-7 130t-24.5 88.5t-45.5 52.5t-65.5 26.5t-89 7q-200 0 -375 -34l-2 127q171 43 385 43q81 0 138.5 -12t105 -42.5 t75 -81.5t42.5 -129.5t14 -186t-16 -251.5q-24 -212 -59 -345t-95 -214.5t-140.5 -113t-203.5 -31.5q-190 0 -383 57z" />
<glyph unicode="&#x42e;" horiz-adv-x="1452" d="M131 0l150 1364h149l-65 -590h137q15 127 32.5 214t44.5 159.5t62 115t88 72t119 40.5t158 11q73 0 127 -6.5t98.5 -23.5t73.5 -41t49.5 -66t29.5 -91.5t10.5 -123.5t-4.5 -156.5t-18 -195.5q-17 -151 -34.5 -252t-45.5 -184t-63 -130t-90.5 -79.5t-123 -43.5t-165.5 -11 q-93 0 -157 11.5t-110.5 42.5t-71.5 76t-36 121t-7.5 168t17.5 226h-137l-67 -627h-150zM617 388.5q-2 -64.5 1.5 -101t15.5 -72t30 -52.5t47.5 -30.5t66 -17.5t88.5 -4q69 0 114.5 7.5t83.5 33.5t60 61.5t41.5 106t31.5 151t26 211.5q11 96 16.5 161.5t7 128.5t-3 102 t-16.5 74.5t-30.5 54.5t-48 33t-66.5 19t-89 5q-42 0 -74 -3t-61 -11.5t-50 -19t-40 -32.5t-32 -43t-25.5 -59t-21 -73.5t-17.5 -93t-15.5 -110.5t-15.5 -133q-11 -100 -16.5 -164.5t-7.5 -129z" />
<glyph unicode="&#x42f;" horiz-adv-x="1144" d="M125 0q30 115 91.5 338t70.5 256q-65 53 -89 118.5t-14 157.5l19 166q8 76 34.5 134t65 94t92.5 59t111.5 32t126.5 9h479l-149 -1364h-154l59 537q-263 0 -328.5 1t-109.5 7l-145 -545h-160zM332 870q-6 -51 4.5 -88t30 -58t53.5 -33t66.5 -15.5t76.5 -3.5h320l63 563 h-319q-55 0 -95.5 -7t-81 -27t-66 -62t-34.5 -105z" />
<glyph unicode="&#x430;" horiz-adv-x="927" d="M100 322q0 92 15 206l6 60q33 253 102.5 357t220.5 104q87 0 218.5 -14t205.5 -42l-104 -991h-113l-14 64q-153 -76 -320 -76q-110 0 -163.5 80t-53.5 252zM260 326q0 -111 23 -160t77 -49q106 0 273 80q13 127 39 359.5t37 336.5q-97 20 -256 20h-13q-26 0 -48 -11 t-36.5 -26t-27 -44.5t-19.5 -52t-13.5 -63.5t-9 -64t-7.5 -68v-2q-19 -165 -19 -256z" />
<glyph unicode="&#x431;" horiz-adv-x="962" d="M145.5 222.5q-12.5 123.5 10.5 318.5q6 63 18 125q16 131 44 239t62 186.5t80 140t92 101t105 68.5t110.5 44t117.5 26.5t118 16t118.5 12t113.5 16.5l-15 -140q-64 -12 -170.5 -23t-142.5 -16q-46 -7 -89 -19t-95 -38.5t-95.5 -63.5t-84 -96t-66.5 -133q61 55 182 55 q158 0 234 -55.5t88 -167t-7 -278.5q-12 -108 -25.5 -183t-36 -141t-52.5 -106.5t-75 -70t-104 -42t-139 -12.5q-146 0 -215 56.5t-81.5 180zM293 294.5q1 -95.5 38.5 -138.5t125.5 -43q43 0 76 8.5t58 23t44 43t31.5 58.5t23 80t17 96.5t14.5 118.5q14 125 16.5 207.5 t-41 123.5t-151.5 41q-39 0 -68.5 -7t-51.5 -18.5t-38.5 -35.5t-28 -49.5t-20.5 -69.5t-15.5 -85.5t-13.5 -106.5q-17 -151 -16 -246.5z" />
<glyph unicode="&#x432;" horiz-adv-x="847" d="M115 0l112 1022h248q61 0 103 -4t87 -19t70 -42t38.5 -75t6.5 -116l-6 -59q-7 -74 -33 -116t-77 -77q43 -29 58 -84.5t7 -118.5l-4 -55q-17 -149 -99 -202.5t-264 -53.5h-247zM272 129h16h60.5t52 1.5t47 3.5t38 6.5t34 11.5t25 17.5t21 24t12.5 31.5t8 41l8 53 q6 69 -24.5 98t-92.5 29h-170zM322 575h170q129 0 143 125l6 54q8 81 -23.5 108t-105.5 27h-154z" />
<glyph unicode="&#x433;" horiz-adv-x="747" d="M115 0l112 1022h541l-16 -143h-392l-94 -879h-151z" />
<glyph unicode="&#x434;" horiz-adv-x="995" d="M12 -209l37 336h88q85 127 115.5 236.5t50.5 293.5l41 363h561l-100 -893h102l-37 -336h-139l25 209h-582l-24 -209h-138zM289 127h379l84 764h-281l-22 -219q-15 -123 -25.5 -186t-44.5 -163.5t-90 -195.5z" />
<glyph unicode="&#x435;" d="M125 289q0 71 14 225q13 110 26 183t34.5 138t50.5 102t73.5 64t102.5 37.5t139 10.5q197 0 267.5 -73t62.5 -267q-6 -104 -52 -161q-67 -80 -208 -81l-350 -2v-19q-11 -115 -11 -153q0 -67 19 -113q8 -20 28.5 -34t40 -20.5t53.5 -10t51 -4t50 -0.5q106 0 262 18 l-14 -113q-189 -34 -346 -34q-163 0 -228 68.5t-65 238.5zM303 592h346q109 0 109 117q4 128 -39 171.5t-164 43.5q-45 0 -79 -7.5t-58.5 -17.5t-42 -34.5t-28 -44.5t-19.5 -63t-13.5 -73.5t-11.5 -91.5z" />
<glyph unicode="&#x436;" horiz-adv-x="1308" d="M2 0l393 475l-219 551h160l192 -498h105l65 502h146l-66 -502h86l307 492h160l-346 -545l258 -469h-164l-227 412h-88l-57 -418h-146l55 418h-102l-348 -418h-164z" />
<glyph unicode="&#x437;" horiz-adv-x="727" d="M80 0l10 117h156q100 0 149 32.5t56 110.5l6 55q9 73 -21.5 101t-99.5 28h-141l16 127h139q68 0 105.5 29t44.5 98l6 66q5 38 -1 64.5t-17.5 41t-36.5 22t-48.5 9t-62.5 0.5l-164 -2l14 115l156 4q66 0 104.5 -2.5t87 -15.5t72 -38t37.5 -72.5t6 -115.5l-8 -76 q-13 -80 -37 -117.5t-76 -68.5q43 -28 60.5 -83t9.5 -116l-4 -59q-18 -148 -101 -202t-261 -54q-28 0 -78 1t-78 1z" />
<glyph unicode="&#x438;" horiz-adv-x="976" d="M115 0l112 1022h146l-86 -770l458 770h175l-113 -1022h-141l79 766l-446 -766h-184z" />
<glyph unicode="&#x439;" horiz-adv-x="976" d="M115 0l112 1022h146l-86 -770l458 770h175l-113 -1022h-143l81 766l-446 -766h-184zM362 1245l58 82q30 -30 86 -58t115 -28q82 0 217 84l32 -80q-24 -22 -58 -46.5t-95 -50.5t-115 -26q-75 0 -141.5 42t-98.5 81z" />
<glyph unicode="&#x43a;" d="M115 0l137 1026h147l-65 -498h153l310 498h161l-348 -551l267 -475h-168l-234 416h-156l-57 -416h-147z" />
<glyph unicode="&#x43b;" horiz-adv-x="897" d="M63 -8l13 98q28 4 45 12.5t25 25t10.5 26.5t5.5 36l92 836h594l-113 -1026h-149l96 883h-297l-72 -666q-16 -131 -64.5 -181t-127.5 -50q-21 0 -58 6z" />
<glyph unicode="&#x43c;" horiz-adv-x="1169" d="M115 0l112 1022h179l192 -621l326 621h182l-113 -1022h-137l84 762l-301 -555h-133l-168 553l-84 -760h-139z" />
<glyph unicode="&#x43d;" d="M115 0l112 1022h146l-49 -430h374l47 430h148l-113 -1022h-145l49 455h-375l-49 -455h-145z" />
<glyph unicode="&#x43e;" horiz-adv-x="970" d="M132 196.5q-17 118.5 9 319.5q13 108 26 179.5t35 135t51 100.5t74 64.5t103.5 38t140.5 10.5q163 0 237 -48t91 -165t-10 -315q-12 -109 -25.5 -183t-36 -138t-52 -101.5t-75.5 -64t-105 -37t-142 -10.5q-160 0 -232 48t-89 166.5zM276.5 312q-1.5 -45 2 -72t12.5 -52.5 t23 -38.5t36.5 -23t51 -13.5t67.5 -3.5q46 0 78.5 5.5t58.5 16t44 34.5t31 50t23 75t17 97.5t16 128.5q8 69 12 114.5t5 90t-2 71.5t-12.5 52t-23.5 37.5t-37 22.5t-51.5 13t-68.5 3q-52 0 -87 -6t-63 -25.5t-44.5 -45t-30.5 -76t-22.5 -105.5t-18.5 -146q-8 -69 -11.5 -114 t-5 -90z" />
<glyph unicode="&#x43f;" horiz-adv-x="874" d="M115 0l112 1024h590l-112 -1024h-148l96 881h-297l-96 -881h-145z" />
<glyph unicode="&#x440;" horiz-adv-x="935" d="M68 -406l159 1428h107l10 -76q167 88 309 88q134 0 181.5 -126.5t15.5 -409.5l-6 -62q-33 -252 -102.5 -356.5t-219.5 -104.5q-78 0 -264 21l-45 -402h-145zM274 137q19 -5 116.5 -12.5t117.5 -7.5h12q33 0 58.5 12.5t43 38.5t29 52.5t20 69.5t12.5 72.5t9 77.5 q20 167 18.5 269t-26.5 146t-82 44q-95 0 -252 -78z" />
<glyph unicode="&#x441;" horiz-adv-x="892" d="M126 315.5q2 63.5 11 143.5q11 95 20.5 161t23.5 129t30 103.5t40.5 77t53.5 56.5t70 35t89.5 20.5t113.5 5.5q35 0 131 -9.5t157 -19.5l-14 -129q-262 20 -285 20q-50 0 -85 -7t-62 -16.5t-45.5 -40t-31 -55t-23 -85.5t-16.5 -108t-17 -144q-6 -50 -8.5 -89t-0.5 -71.5 t5 -56t13.5 -42.5t20 -31.5t30 -21t37 -13.5t47.5 -7.5t55.5 -3t66.5 -0.5q79 0 223 16l-12 -115q-158 -36 -326 -36q-50 0 -85.5 3t-71 11.5t-58.5 23.5t-44 40t-32 60t-17 83.5t-4 112z" />
<glyph unicode="&#x442;" horiz-adv-x="833" d="M129 885l14 139h725l-14 -139h-289l-96 -885h-150l97 885h-287z" />
<glyph unicode="&#x443;" horiz-adv-x="917" d="M86 -362l35 83q16 -4 41 -4q27 0 50.5 13.5t40 31.5t35 52t28 57.5t26.5 67t25 61.5h-37l-203 1024h166l158 -815l331 815h162l-506 -1223q-86 -207 -219 -207q-78 0 -133 44z" />
<glyph unicode="&#x444;" horiz-adv-x="1187" d="M140.5 360q1.5 56 9.5 125l4 39q19 166 54.5 253.5t95.5 122t165 34.5q53 0 129 -12l49 438h139l-47 -438q61 12 142 12q75 0 120 -19t73 -66t30.5 -126t-8.5 -199l-4 -39q-13 -113 -35 -192.5t-47 -124.5t-61 -70t-68.5 -32t-79.5 -7q-43 0 -158 7l-51 -474h-141l53 474 q-103 -7 -131 -7q-31 0 -49 1t-44.5 5t-41.5 11.5t-34.5 22.5t-29.5 36.5t-20 53.5t-12.5 73.5t-1 97.5zM285.5 275.5q2.5 -39.5 17.5 -57t35 -24t57 -6.5q1 0 123 5l66 595q-64 7 -111 7q-39 0 -67.5 -13t-46 -33.5t-30 -58t-18.5 -75t-12 -95.5q-10 -94 -13 -149.5 t-0.5 -95zM657 193q122 -5 127 -5q35 1 56.5 8.5t39.5 25.5t29.5 57.5t21 94.5t19.5 146q7 80 8 141.5t-24.5 98.5t-79.5 37q-65 0 -129 -9z" />
<glyph unicode="&#x445;" horiz-adv-x="788" d="M39 0l315 510l-194 512h151l133 -373l224 373h149l-309 -512l203 -510h-148l-149 369l-221 -369h-154z" />
<glyph unicode="&#x446;" horiz-adv-x="1001" d="M115 0l112 1024h148l-99 -889l390 2l98 887h147l-98 -887h98l-34 -297h-140l19 160h-641z" />
<glyph unicode="&#x447;" horiz-adv-x="794" d="M139 608l47 416h146l-47 -422q-3 -49 47 -49q40 0 101.5 11.5t115.5 35.5l49 424h143l-114 -1026h-135l51 467q-130 -53 -246 -53q-179 0 -158 196z" />
<glyph unicode="&#x448;" horiz-adv-x="1296" d="M115 0l112 1020h148l-99 -883h289l99 883h147l-98 -883h291l96 883h145l-112 -1020h-1018z" />
<glyph unicode="&#x449;" horiz-adv-x="1335" d="M115 0l112 1022h150l-98 -885h288l99 885h147l-98 -885h291l98 885h145l-98 -885h98l-32 -297h-140l19 160h-981z" />
<glyph unicode="&#x44a;" horiz-adv-x="950" d="M139 881l17 139h276l-43 -387h152q128 0 174 -10q81 -18 127.5 -86.5t36.5 -163.5l-13 -119q-8 -73 -37 -124t-74.5 -78.5t-98.5 -39.5t-119 -12h-363l94 881h-129zM334 129h209q77 0 125.5 26t58.5 101l12 117q3 33 -3.5 56.5t-20 37t-36 21t-44 10t-51.5 2.5h-209z" />
<glyph unicode="&#x44b;" horiz-adv-x="1159" d="M115 0l112 1026h150l-43 -389q250 0 313 -8q92 -13 140.5 -82t37.5 -172l-12 -119q-8 -74 -37.5 -125.5t-76 -79t-99.5 -39.5t-119 -12h-366zM276 129h211q28 0 49.5 2.5t46 10.5t41 21.5t29.5 37.5t17 57l12 117q4 41 -6 67.5t-34 39t-49.5 16.5t-62.5 4h-211zM877 0 l112 1026h144l-111 -1026h-145z" />
<glyph unicode="&#x44c;" horiz-adv-x="897" d="M115 0l112 1026h148l-43 -389q260 0 317 -8q89 -15 137 -85t37 -169l-12 -119q-8 -74 -37.5 -125.5t-76 -79t-99.5 -39.5t-119 -12h-364zM274 129h213q28 0 49.5 2.5t46 10.5t41 21.5t29.5 37.5t17 57l12 117q4 41 -6 67.5t-34.5 39t-50 16.5t-63.5 4h-211z" />
<glyph unicode="&#x44d;" horiz-adv-x="851" d="M82 31l18 121q63 -13 159 -23t134 -10q75 0 113.5 25t62 95.5t41.5 219.5h-405l14 135h406q6 70 7 120.5t-6 86.5t-17.5 57.5t-31.5 34t-44.5 16.5t-59.5 4q-139 0 -289 -26l-2 127q154 37 301 37q63 0 108.5 -9.5t82.5 -32.5t59 -62t33.5 -98.5t10.5 -141.5t-13 -191 q-24 -212 -67 -326t-116.5 -161t-199.5 -47q-138 0 -299 49z" />
<glyph unicode="&#x44e;" horiz-adv-x="1257" d="M115 0l112 1022h150l-47 -424h121q18 133 42.5 213.5t72.5 135.5t119.5 76t184.5 21q162 0 235.5 -48t90.5 -165t-10 -315q-12 -109 -25.5 -183t-35.5 -138t-52 -101.5t-75.5 -64t-104.5 -37t-141 -10.5q-92 0 -152 14.5t-100 48t-56 87.5t-19.5 133.5t9.5 185.5h-119 l-49 -451h-151zM571 258.5q3 -51.5 14 -77.5t35 -46.5t58.5 -26.5t87.5 -6q41 0 71.5 3.5t56 14t43 23.5t32.5 40t24.5 54t19 74t15.5 93t14 118q8 69 11.5 115t4 90.5t-3 71.5t-13.5 52t-24.5 38t-38 23t-52.5 13t-70 3q-40 0 -69 -3.5t-54 -14t-42 -23.5t-32 -39.5 t-24.5 -53.5t-18.5 -72.5t-15.5 -91t-14.5 -114.5q-10 -93 -14 -149.5t-1 -108z" />
<glyph unicode="&#x44f;" horiz-adv-x="921" d="M106 0l121 440q-46 41 -62.5 89.5t-8.5 119.5l14 121q8 74 37 125.5t75 79t99 39.5t121 12h366l-112 -1026h-150l43 389q-254 0 -287 4l-102 -393h-154zM299 649q-8 -77 33.5 -103t118.5 -24l213 2l41 373h-216q-74 0 -120 -26t-56 -103z" />
<glyph unicode="&#x451;" d="M125 289q0 71 14 225q13 110 26 183t34.5 138t50.5 102t73.5 64t102.5 37.5t139 10.5q197 0 267.5 -73t62.5 -267q-6 -104 -52 -161q-67 -80 -208 -81l-350 -2v-19q-11 -115 -11 -153q0 -67 19 -113q8 -20 28.5 -34t40 -20.5t53.5 -10t51 -4t50 -0.5q106 0 262 18 l-14 -113q-189 -34 -346 -34q-163 0 -228 68.5t-65 238.5zM303 592h346q109 0 109 117q4 128 -39 171.5t-164 43.5q-45 0 -79 -7.5t-58.5 -17.5t-42 -34.5t-28 -44.5t-19.5 -63t-13.5 -73.5t-11.5 -91.5zM340 1225q6 59 21 74.5t69 15.5t68 -16t8 -74q-6 -54 -22.5 -71 t-71.5 -17q-54 0 -65.5 16t-6.5 72zM662 1225q6 59 20 74.5t68 15.5q55 0 68.5 -16t6.5 -74q-5 -54 -21.5 -71t-72.5 -17q-53 0 -64 15.5t-5 72.5z" />
<glyph unicode="&#x452;" horiz-adv-x="985" d="M119 0l129 1186h-98l12 117h100l10 112h144l-10 -112h210l-12 -117h-211l-26 -228q232 80 354 80q110 0 157 -59.5t33 -181.5l-104 -924q-9 -86 -29 -144t-51 -88.5t-66 -42.5t-83 -12q-35 0 -64 4l10 91q71 11 101 50.5t37 104.5l104 969q9 94 -76 94q-61 0 -157.5 -19 t-178.5 -59l-90 -821h-145z" />
<glyph unicode="&#x453;" horiz-adv-x="735" d="M115 0l112 1022h541l-16 -143h-392l-94 -879h-151zM362 1217l283 190l51 -111l-282 -182z" />
<glyph unicode="&#x454;" horiz-adv-x="862" d="M127.5 298q-2.5 91 13.5 216q18 163 47.5 266t78.5 162t111 80.5t157 21.5q168 0 290 -34l-24 -127q-147 26 -285 26q-54 0 -85.5 -10.5t-58.5 -44.5t-43 -95.5t-30 -166.5h403l-14 -137h-403q-9 -90 -10 -146t5 -96.5t25 -60t45.5 -27.5t71.5 -8q39 0 136.5 9.5 t160.5 20.5l-8 -116q-164 -49 -310 -49q-75 0 -125 15t-85 51.5t-48 97.5t-15.5 152z" />
<glyph unicode="&#x455;" horiz-adv-x="837" d="M119 10l14 135q129 -16 301 -16q77 0 115 28.5t47 94.5q5 47 -19.5 82.5t-66.5 59.5t-93.5 46.5t-102.5 49.5t-91.5 61.5t-62 90.5t-13.5 128q14 135 98.5 203.5t211.5 68.5q87 0 166.5 -4t116.5 -8l36 -4l-14 -135q-137 16 -311 16q-72 0 -108 -29.5t-42 -93.5 q-5 -40 13 -72.5t51 -53.5t75.5 -43.5t87.5 -41t87 -47t74 -61.5t47.5 -84.5t8.5 -114.5q-13 -135 -97.5 -203.5t-211.5 -68.5q-86 0 -165 4t-115 8z" />
<glyph unicode="&#x456;" horiz-adv-x="423" d="M115 0l112 1022h150l-111 -1022h-151zM236 1227q8 68 23.5 85t74.5 17t71 -16.5t5 -85.5q-8 -62 -25 -81.5t-74 -19.5q-58 0 -69.5 18t-5.5 83z" />
<glyph unicode="&#x457;" horiz-adv-x="444" d="M88 1223q6 60 20.5 75t69.5 15t68 -15.5t6 -74.5q-5 -53 -21 -69.5t-71 -16.5q-54 0 -65.5 15.5t-6.5 70.5zM117 0l112 1022h150l-113 -1022h-149zM412 1223q5 59 19 74.5t69 15.5t68 -15.5t7 -74.5q-6 -54 -22 -70t-72 -16q-53 0 -64 15.5t-5 70.5z" />
<glyph unicode="&#x458;" horiz-adv-x="444" d="M-41 -399l10 90q69 11 96.5 50t34.5 105l129 1178h150l-127 -1143q-9 -85 -29.5 -142.5t-52.5 -87.5t-68 -42t-84 -12q-30 0 -59 4zM246 1270q6 68 22 85t74 17q59 0 71 -16.5t5 -85.5q-6 -62 -23 -81.5t-73 -19.5q-58 0 -71 18.5t-5 82.5z" />
<glyph unicode="&#x459;" horiz-adv-x="1308" d="M63 -6l13 96q27 4 44 12.5t25 24t10.5 27t4.5 34.5l92 840h541l-43 -391q219 2 294 -6q99 -11 155.5 -79.5t43.5 -174.5l-12 -121q-8 -74 -37 -125.5t-75.5 -79t-99.5 -39.5t-120 -12h-367l99 885h-248l-74 -668q-16 -130 -63.5 -180.5t-126.5 -50.5q-19 0 -56 8z M692 129h215q36 0 63 4.5t54.5 17t44.5 40t21 67.5l12 119q4 40 -5.5 66t-34 38.5t-50.5 16.5t-64 4h-213z" />
<glyph unicode="&#x45a;" horiz-adv-x="1349" d="M115 2l112 1024h148l-45 -393h315l45 391h148l-43 -389h147q133 0 162 -4q91 -12 140.5 -82.5t39.5 -171.5l-12 -119q-8 -74 -36.5 -125.5t-74.5 -79t-99 -39.5t-122 -12h-362l53 494h-316l-53 -494h-147zM737 133h211q37 0 62.5 4t52.5 16t43.5 38t21.5 67l13 119 q4 41 -5.5 67t-33.5 38t-49 16t-62 4h-211z" />
<glyph unicode="&#x45b;" horiz-adv-x="985" d="M115 0l131 1188h-96l12 117h96l10 110h146l-13 -110h220l-13 -117h-219l-27 -230q232 80 357 80q215 0 188 -241l-88 -797h-145l90 805q6 94 -78 94q-63 0 -158.5 -18.5t-177.5 -57.5l-90 -823h-145z" />
<glyph unicode="&#x45c;" horiz-adv-x="944" d="M115 0l137 1026h147l-65 -498h153l310 498h161l-348 -551l267 -475h-168l-234 416h-156l-57 -416h-147zM530 1219l281 190l51 -109l-282 -184z" />
<glyph unicode="&#x45e;" horiz-adv-x="911" d="M86 -362l35 83q16 -4 41 -4q27 0 50.5 13.5t40 31.5t35 52t28 57.5t26.5 67t25 61.5h-37l-203 1024h166l158 -815l331 815h162l-506 -1223q-86 -207 -219 -207q-78 0 -133 44zM338 1253l57 82q33 -31 85.5 -58.5t107.5 -27.5q97 0 221 84l37 -80q-41 -39 -117 -81 t-151 -42q-78 0 -144.5 42t-95.5 81z" />
<glyph unicode="&#x45f;" horiz-adv-x="970" d="M115 0l112 1028h148l-99 -889h392l96 889h149l-112 -1028h-271l-24 -221h-148l27 221h-270z" />
<glyph unicode="&#x2000;" horiz-adv-x="896" />
<glyph unicode="&#x2001;" horiz-adv-x="1792" />
<glyph unicode="&#x2002;" horiz-adv-x="896" />
<glyph unicode="&#x2003;" horiz-adv-x="1792" />
<glyph unicode="&#x2004;" horiz-adv-x="597" />
<glyph unicode="&#x2005;" horiz-adv-x="448" />
<glyph unicode="&#x2006;" horiz-adv-x="298" />
<glyph unicode="&#x2007;" horiz-adv-x="298" />
<glyph unicode="&#x2008;" horiz-adv-x="224" />
<glyph unicode="&#x2009;" horiz-adv-x="358" />
<glyph unicode="&#x200a;" horiz-adv-x="99" />
<glyph unicode="&#x2010;" horiz-adv-x="714" d="M156 510l16 127h444l-14 -127h-446z" />
<glyph unicode="&#x2011;" horiz-adv-x="714" d="M156 510l16 127h444l-14 -127h-446z" />
<glyph unicode="&#x2012;" horiz-adv-x="714" d="M156 510l16 127h444l-14 -127h-446z" />
<glyph unicode="&#x2013;" horiz-adv-x="899" d="M156 510l16 129h647l-14 -129h-649z" />
<glyph unicode="&#x2014;" horiz-adv-x="1153" d="M156 510l16 129h895l-14 -129h-897z" />
<glyph unicode="&#x2018;" horiz-adv-x="430" d="M197 1092q5 50 21.5 91t44.5 73t58.5 56t73.5 50l39 -74q-60 -31 -86 -88q44 -6 54 -27.5t4 -80.5q-8 -67 -27.5 -85t-89.5 -18q-68 0 -83 17.5t-9 85.5z" />
<glyph unicode="&#x2019;" horiz-adv-x="413" d="M201 1087q58 28 84 89q-42 4 -52 25.5t-4 80.5q8 69 26.5 86.5t88.5 17.5q69 0 85 -18t7 -86q-10 -96 -59.5 -156t-140.5 -114z" />
<glyph unicode="&#x201a;" horiz-adv-x="446" d="M74 -88q57 31 86 90q-42 4 -52.5 26t-5.5 81q8 68 27 86t88 18q70 0 86 -18t8 -86q-10 -96 -59.5 -156.5t-140.5 -114.5z" />
<glyph unicode="&#x201c;" horiz-adv-x="737" d="M197 1094q10 95 60 155.5t140 112.5l37 -74q-62 -32 -86 -88q44 -4 54 -25.5t4 -80.5q-8 -69 -27 -87t-90 -18q-68 0 -83 18t-9 87zM496 1094q10 95 59.5 155.5t138.5 112.5l39 -74q-62 -32 -86 -88q43 -4 53 -25t5 -81q-8 -68 -27.5 -86.5t-89.5 -18.5q-68 0 -83 18 t-9 87z" />
<glyph unicode="&#x201d;" horiz-adv-x="720" d="M197 1083q61 30 88 88q-44 6 -54 28t-4 81q8 67 27 84.5t88 17.5t85 -17.5t7 -84.5q-10 -96 -59.5 -156t-141.5 -114zM496 1083q60 31 86 88q-42 6 -52.5 28t-5.5 81q9 68 27.5 85t87.5 17q71 0 87 -17.5t7 -84.5q-10 -96 -59.5 -156t-141.5 -114z" />
<glyph unicode="&#x201e;" horiz-adv-x="751" d="M74 -88q57 31 86 90q-42 4 -52.5 26t-5.5 81q8 68 27 86t88 18q70 0 86 -18t8 -86q-10 -96 -59.5 -156.5t-140.5 -114.5zM369 -88q57 31 86 90q-42 4 -52.5 26t-5.5 81q8 68 27 86t88 18q70 0 86 -18t8 -86q-10 -96 -59.5 -156.5t-140.5 -114.5z" />
<glyph unicode="&#x2026;" horiz-adv-x="1255" d="M100 109q8 68 27 86t88 18t85.5 -18t8.5 -86q-6 -69 -26 -90t-90 -21q-68 0 -83.5 20.5t-9.5 90.5zM514 109q8 67 28 85.5t89 18.5q68 0 84 -18t10 -86q-8 -69 -28.5 -90t-90.5 -21q-68 0 -83 20.5t-9 90.5zM922 109q6 67 25.5 85.5t90.5 18.5q69 0 85 -18t10 -86 q-8 -69 -28.5 -90t-90.5 -21t-85 20.5t-7 90.5z" />
<glyph unicode="&#x202f;" horiz-adv-x="358" />
<glyph unicode="&#x2039;" horiz-adv-x="552" d="M117 504l289 407l100 -77l-230 -330l156 -330l-117 -78z" />
<glyph unicode="&#x203a;" horiz-adv-x="552" d="M92 174l232 330l-160 330l121 77l198 -407l-290 -408z" />
<glyph unicode="&#x205f;" horiz-adv-x="448" />
<glyph unicode="&#x20ac;" horiz-adv-x="1157" d="M113 539l8 94h137l8 69h-135l8 95h140q16 121 35 204.5t49 152t68 109.5t96 68.5t129.5 38t170.5 10.5q107 0 324 -26l-16 -131q-260 22 -316 22q-73 0 -124 -7.5t-91.5 -29.5t-65.5 -51.5t-45.5 -84t-33 -116.5t-25.5 -159h500l-8 -95h-500l-10 -69h499l-8 -94h-499 q-7 -79 -8 -137.5t8 -103.5t19.5 -75t39 -51t52.5 -32t74.5 -17t90.5 -7t113 -1q94 0 217 10l-13 -111q-201 -32 -354 -32q-49 0 -86.5 2t-76 8t-66.5 16t-55.5 26.5t-46 39.5t-34.5 54t-24.5 71t-13.5 90.5t-3.5 112.5t7.5 137h-135z" />
<glyph unicode="&#x2122;" horiz-adv-x="980" d="M244 1296l8 78h295l-8 -78h-107l-39 -346h-80l39 346h-108zM582 950l49 424h84l71 -203l121 203h82l-47 -424h-74l27 264l-131 -190l-74 188l-31 -262h-77z" />
<glyph unicode="&#x25fc;" horiz-adv-x="1020" d="M0 0v1020h1020v-1020h-1020z" />
</font>
</defs>
</svg>
