<?xml version="1.0" standalone="no"?>
<!DOCTYPE svg PUBLIC "-//W3C//DTD SVG 1.1//EN" "http://www.w3.org/Graphics/SVG/1.1/DTD/svg11.dtd" >
<svg xmlns="http://www.w3.org/2000/svg">
<metadata></metadata>
<defs>
<font id="clio_c_regularregular" horiz-adv-x="929" >
<font-face units-per-em="2048" ascent="1536" descent="-512" />
<missing-glyph horiz-adv-x="389" />
<glyph horiz-adv-x="0" />
<glyph horiz-adv-x="682" />
<glyph unicode=" "  horiz-adv-x="389" />
<glyph unicode="&#x09;" horiz-adv-x="389" />
<glyph unicode="&#xa0;" horiz-adv-x="389" />
<glyph unicode="!" horiz-adv-x="411" d="M119 76q0 52 11.5 66t59.5 14q47 0 60.5 -14t13.5 -66q0 -48 -13 -63t-61 -15t-59.5 14.5t-11.5 63.5zM119 311v1053h145v-1053h-145z" />
<glyph unicode="&#x22;" horiz-adv-x="679" d="M82 979l59 418h164l-92 -418h-131zM332 979l80 418h168l-109 -418h-139z" />
<glyph unicode="#" horiz-adv-x="1058" d="M88 279v104h213v270h-213v115h213v281h113v-281h198v281h111v-281h211v-115h-211v-270h211v-104h-211v-283h-111v283h-198v-283h-113v283h-213zM414 383h198v270h-198v-270z" />
<glyph unicode="$" horiz-adv-x="866" d="M51 834q0 140 77.5 212.5t205.5 77.5v176h139v-178q192 -6 223 -16v-137q-154 18 -336 18q-79 0 -115 -33.5t-36 -105.5q0 -50 30.5 -88.5t78.5 -65t106.5 -52t117.5 -55.5t107 -68t78.5 -97.5t30.5 -136.5q0 -141 -78 -213.5t-207 -77.5v-164h-139v166q-181 5 -223 16 v140q147 -19 327 -19q85 0 122.5 32t37.5 105q0 52 -30 91.5t-78.5 66t-106.5 50.5t-116.5 53.5t-107 66.5t-78.5 97t-30 139z" />
<glyph unicode="%" horiz-adv-x="1269" d="M68 1065q0 74 3.5 123t14.5 86t26 57.5t43 33t59 16t81 3.5q77 0 117.5 -26t60 -94.5t19.5 -198.5q0 -184 -40 -250.5t-167 -66.5q-52 0 -84 6t-60 24t-42.5 53.5t-22.5 92t-8 141.5zM156 94q447 706 811 1288l112 -86q-86 -137 -367.5 -584t-437.5 -696zM190 1024 q0 -42 0.5 -61.5t3.5 -44t8 -33.5t16 -18.5t26 -12t39 -2.5q51 4 63 13q24 18 27 103q2 35 2 97q0 138 -17 177.5t-77 39.5q-64 0 -77.5 -36.5t-13.5 -180.5v-41zM737 299q0 88 7 143.5t20.5 92.5t42.5 55t64 24.5t94 6.5q78 0 119 -27t60 -96t19 -199q0 -183 -41 -249 t-168 -66q-65 0 -101.5 9.5t-65.5 42.5t-39.5 95.5t-10.5 167.5zM858 212q0 -15 1.5 -37.5t3.5 -31t6.5 -22t11 -17.5t16.5 -9.5t22.5 -7t30.5 -1.5q18 1 22.5 1.5t18 3t16 4.5t11.5 8t10 13t6 19.5t5.5 26.5t2.5 35.5t2 45.5v58q0 137 -17.5 177t-78.5 40 q-63 0 -76.5 -36.5t-13.5 -180.5v-41v-48z" />
<glyph unicode="&#x26;" horiz-adv-x="980" d="M102 324v84q0 95 41 175t119 105q-55 34 -85 63.5t-50 81t-25 130.5v88q0 327 381 327q108 0 275 -28v-119q-215 22 -289 22q-116 0 -164.5 -56.5t-48.5 -160.5v-73q0 -209 215 -209h174v102h135v-102h92v-133h-92v-601q-201 -43 -317 -43q-184 0 -268.5 85t-92.5 262z M256 332q0 -118 61 -172t164 -54q53 0 164 21v494h-174q-105 0 -160 -48t-55 -163v-78z" />
<glyph unicode="'" horiz-adv-x="415" d="M80 979l76 418h166l-105 -418h-137z" />
<glyph unicode="(" horiz-adv-x="489" d="M61 612q0 259 60.5 534t181.5 449l103 -84q-103 -212 -150 -454.5t-47 -444.5q0 -535 194 -899l-100 -86q-120 177 -181 452.5t-61 532.5z" />
<glyph unicode=")" horiz-adv-x="491" d="M27 1513l104 82q120 -175 181 -449.5t61 -533.5q0 -258 -61 -531.5t-181 -449.5l-102 82q196 368 196 899q0 202 -47.5 444.5t-150.5 456.5z" />
<glyph unicode="*" horiz-adv-x="831" d="M63 1122l33 117l238 -92v278h115v-278l237 90l35 -115l-240 -88l152 -221l-90 -82l-150 232l-147 -232l-92 82l147 221z" />
<glyph unicode="+" horiz-adv-x="923" d="M68 440v131h301v347h135v-347h299v-131h-299v-362h-135v362h-301z" />
<glyph unicode="," horiz-adv-x="440" d="M82 -88q60 31 76 90q-41 4 -53.5 26.5t-12.5 80.5q0 68 17 86t86 18t86.5 -18t17.5 -86q0 -96 -44 -158.5t-126 -112.5z" />
<glyph unicode="-" horiz-adv-x="696" d="M100 510v127h447v-127h-447z" />
<glyph unicode="." horiz-adv-x="419" d="M90 106q0 67 18 86t87 19t87.5 -18.5t18.5 -86.5q0 -67 -18 -87.5t-88 -20.5q-69 0 -87 20t-18 88z" />
<glyph unicode="/" horiz-adv-x="716" d="M45 -233l447 1611h149l-451 -1611h-145z" />
<glyph unicode="0" horiz-adv-x="968" d="M113 561q0 121 5 202.5t19.5 150.5t38.5 109t65 68.5t95.5 39t132.5 10.5q67 0 116 -9t87.5 -27.5t64.5 -52t43.5 -75.5t27 -106.5t13.5 -136.5t4 -173t-4 -173.5t-13.5 -137t-27.5 -106.5t-43.5 -75t-64.5 -51t-88 -27t-115 -9q-79 0 -134.5 11t-96 40.5t-64.5 70 t-38 110t-18.5 149t-4.5 198.5zM254 561q0 -103 2 -165.5t10.5 -118.5t21.5 -84t38.5 -49.5t58.5 -28t84 -6.5t84 6.5t58 28t38 49t21 84.5t10 118.5t2 165.5q0 105 -2.5 169.5t-11 121t-21.5 85t-38.5 49t-57.5 26.5t-82 6q-38 0 -65.5 -3.5t-50.5 -15t-38 -26t-26.5 -42.5 t-18 -58.5t-10.5 -80.5t-5 -102t-1 -129z" />
<glyph unicode="1" horiz-adv-x="610" d="M27 973v143l397 4v-1120h-154v973h-243z" />
<glyph unicode="2" horiz-adv-x="821" d="M106 981v133l242 4q67 0 113 -5t94.5 -21.5t77 -46t47 -81.5t18.5 -126q0 -54 -22.5 -116.5t-69 -137t-89 -135t-112.5 -155t-110 -151.5h393v-139h-565l4 139q69 102 152.5 219.5t123.5 175t80.5 121t55 104t14.5 77.5q0 80 -42.5 113.5t-135.5 33.5q-49 0 -139 -3 t-130 -3z" />
<glyph unicode="3" horiz-adv-x="874" d="M82 -133q34 0 101.5 -2t101.5 -2q148 0 213 49t65 168v76q0 112 -52 158t-153 46h-182v129h182q205 0 205 203v88q0 60 -15 100t-33.5 61t-61.5 31t-73.5 11.5t-94.5 1.5l-203 -4v127l201 4q58 0 96 -1.5t88 -8.5t82 -19.5t66.5 -35.5t54 -56.5t32.5 -83t13 -112.5v-103 q0 -76 -19.5 -127t-49 -79t-83.5 -60q52 -17 87.5 -61.5t50 -98t14.5 -112.5v-82q0 -100 -25 -164.5t-82 -102t-137.5 -52.5t-202.5 -15q-64 0 -186 4v125z" />
<glyph unicode="4" horiz-adv-x="1013" d="M35 186v136l471 796h231v-790h187v-142h-187v-426h-143v426h-559zM209 328h387v663z" />
<glyph unicode="5" horiz-adv-x="849" d="M111 -137h186q153 0 219 47t66 172v80q0 67 -11.5 109t-39 65t-64.5 31t-98 8h-254v741h557v-147h-416v-465h115q102 0 172.5 -22t105.5 -50t53 -82.5t20.5 -89.5t2.5 -101v-3v-84q0 -96 -26 -160.5t-82.5 -102.5t-136 -53.5t-195.5 -15.5q-42 0 -98.5 1t-75.5 1v121z " />
<glyph unicode="6" horiz-adv-x="964" d="M117 324q0 665 10 739q22 170 111 248t280 78q34 0 266 -17v-127q-141 12 -266 12q-48 -1 -80 -4.5t-61 -16t-45.5 -26t-31 -46t-21 -65t-11 -93.5t-5.5 -120.5t-1 -156.5q49 19 119 31t127 12q190 0 266 -82.5t76 -251.5v-100q0 -169 -85.5 -261.5t-277.5 -92.5 q-194 0 -282 87t-88 253zM262 319q0 -116 56 -161t169 -45q121 0 169.5 52t48.5 169v110q0 107 -41.5 153t-157.5 46q-146 0 -244 -45v-279z" />
<glyph unicode="7" horiz-adv-x="784" d="M10 973v143h680l-227 -1358h-146l205 1215h-512z" />
<glyph unicode="8" horiz-adv-x="989" d="M98 319v87q0 93 44 174.5t120 105.5q-53 34 -81.5 63t-47 81.5t-18.5 130.5v90q0 80 18 139.5t48 96t75.5 59t93 31t109.5 9.5q69 0 119 -6.5t102 -27t84.5 -55.5t53 -97t20.5 -147v-90q0 -77 -19.5 -129.5t-48.5 -81.5t-82 -64q77 -23 120.5 -104t43.5 -176v-86 q-9 -183 -94.5 -262.5t-265.5 -82.5q-205 0 -299.5 75.5t-94.5 266.5zM246 328q0 -216 217 -222q120 0 179.5 54t59.5 172v78q0 113 -55 162t-155 49h-29q-217 0 -217 -213v-80zM260 961q0 -207 199 -207h28q99 0 151 49.5t52 159.5v75q0 128 -47.5 172.5t-150.5 44.5 q-49 0 -79 -3t-62.5 -15.5t-50 -35.5t-29 -64t-11.5 -101v-75z" />
<glyph unicode="9" horiz-adv-x="948" d="M59 690v98q0 355 361 355q196 0 284.5 -87t88.5 -253q0 -632 -11 -740q-19 -169 -109 -247t-282 -78q-44 0 -268 16v129q164 -14 268 -14q48 2 80 5.5t61 16t45.5 26.5t31 46.5t21 65t11 93.5t5.5 120.5t1 156.5q-49 -21 -119.5 -33t-128.5 -12q-188 0 -264 83.5 t-76 252.5zM205 684q0 -108 40.5 -153.5t155.5 -45.5q148 0 246 43v279q0 118 -56.5 162.5t-170.5 44.5q-120 0 -167.5 -51.5t-47.5 -169.5v-109z" />
<glyph unicode=":" horiz-adv-x="466" d="M100 106q0 67 18.5 86t88.5 19q68 0 86 -18.5t18 -86.5t-17.5 -88t-86.5 -20t-88 20t-19 88zM100 756q0 67 18.5 85.5t88.5 18.5q69 0 86.5 -18t17.5 -86q0 -69 -17.5 -90t-86.5 -21t-88 21t-19 90z" />
<glyph unicode=";" horiz-adv-x="468" d="M100 -88q58 31 74 90q-41 4 -53 26t-12 81q0 67 17 85.5t85 18.5q69 0 86.5 -18t17.5 -86q0 -96 -44 -158.5t-126 -112.5zM106 756q0 67 18.5 85.5t86.5 18.5q69 0 87.5 -18t18.5 -86q0 -69 -18 -90t-88 -21q-68 0 -86.5 21t-18.5 90z" />
<glyph unicode="&#x3c;" horiz-adv-x="1011" d="M63 444v115l793 342v-149l-612 -250l610 -252v-152z" />
<glyph unicode="=" horiz-adv-x="976" d="M117 268v142h694v-142h-694zM117 598v141h694v-141h-694z" />
<glyph unicode="&#x3e;" horiz-adv-x="1011" d="M111 750v151l792 -344v-115l-790 -346v154l608 252z" />
<glyph unicode="?" horiz-adv-x="829" d="M68 1257v132h198q47 0 79.5 -1t74.5 -4.5t71 -10t63 -18t56.5 -28.5t45.5 -41.5t36 -56t21 -73.5t8 -93v-51q0 -196 -91 -270t-327 -74v-265h-139v402h190q102 0 155.5 48.5t53.5 158.5v35q0 62 -13.5 102.5t-30.5 62t-58.5 32t-71 12t-94.5 1.5h-16h-211zM160 76 q0 52 12 66t59 14q48 0 61 -14t13 -66q0 -48 -12.5 -63t-61.5 -15q-46 0 -58.5 14.5t-12.5 63.5z" />
<glyph unicode="@" horiz-adv-x="1314" d="M96 594q0 115 5 197.5t19.5 164.5t41 137t69 103.5t103 76t143.5 43t191 15.5q158 0 260.5 -32t163 -106t84.5 -180t24 -268q0 -152 -15.5 -252.5t-49.5 -156t-78 -77t-109 -21.5q-109 0 -172 104q-107 -49 -192 -49q-106 0 -147.5 78t-41.5 258q0 193 55.5 289t198.5 96 q107 0 244 -41q-4 -88 -12.5 -279t-12.5 -293q33 -47 80 -47q69 0 96 100t27 314q0 82 -6 140t-22 110t-44 84.5t-73 56.5t-109 34.5t-151 10.5q-88 0 -153 -12t-112.5 -32.5t-78.5 -63t-50 -86t-28 -120.5t-12 -148t-3 -185q0 -118 24.5 -196t78 -124t130 -64.5 t189.5 -18.5h160l-2 -131h-199q-273 0 -393.5 129.5t-120.5 441.5zM514 645q0 -130 17 -178.5t67 -48.5q86 0 160 39q3 72 10 216t10 216q-92 10 -129 10q-76 0 -105.5 -59t-29.5 -195z" />
<glyph unicode="A" horiz-adv-x="1107" d="M10 0l404 1364h233l404 -1364h-150l-106 346h-527l-100 -346h-158zM309 483h443l-226 729z" />
<glyph unicode="B" horiz-adv-x="1028" d="M131 0v1366h320q56 0 97.5 -2.5t89.5 -10.5t82 -22t67.5 -39t54 -59t33 -84t12.5 -113v-90q0 -108 -34 -161t-114 -101q49 -16 84 -60.5t49.5 -98t14.5 -111.5v-84q0 -98 -25 -162t-81 -101t-134 -52t-196 -15h-320zM283 125h178q146 0 211 48.5t65 166.5v76 q0 110 -52 154t-153 44h-249v-489zM283 748h249q205 0 205 198v74q0 51 -8 88t-26 61t-38.5 38t-56 21t-66.5 9t-81 2h-178v-491z" />
<glyph unicode="C" horiz-adv-x="1019" d="M90 604q0 126 3 213t12 170.5t24 136.5t41.5 101t61.5 74.5t86 46.5t113.5 27t146.5 7q102 0 323 -26v-131q-262 22 -317 22q-64 0 -110 -4.5t-82.5 -24t-60 -35.5t-40 -63t-25 -81.5t-13 -116t-5 -141.5t-0.5 -181q0 -120 7 -199.5t32 -135t50 -84t85 -43.5t111 -18 t153 -3q92 0 215 10v-111q-197 -32 -350 -32q-64 0 -111 4t-94.5 15t-80 31t-63.5 52t-50 78.5t-34 109.5t-21.5 145.5t-6.5 186.5z" />
<glyph unicode="D" horiz-adv-x="1140" d="M131 0v1364l434 4q82 0 140 -11t109.5 -39.5t84.5 -77.5t57 -126t34.5 -184.5t10.5 -253.5q0 -141 -8.5 -243t-29.5 -178.5t-51 -124.5t-78.5 -77.5t-107 -41t-140.5 -11.5h-455zM283 137l297 -2q59 3 94.5 10.5t69 28.5t51 55.5t31 95.5t18 144.5t4.5 206.5 q0 127 -5.5 215.5t-20 152t-33.5 100.5t-53 58q-34 20 -70 26q-31 5 -77 5h-16h-290v-1096z" />
<glyph unicode="E" horiz-adv-x="978" d="M131 0v1366h727v-145h-575v-451h526v-149h-526v-478h575v-143h-727z" />
<glyph unicode="F" horiz-adv-x="964" d="M131 0v1364h737v-141h-585v-457h501v-143h-501v-623h-152z" />
<glyph unicode="G" horiz-adv-x="1032" d="M90 604q0 126 3 213t12 170.5t24 136.5t41.5 101t61.5 74.5t86 46.5t113.5 27t146.5 7q102 0 323 -26v-131q-262 22 -317 22q-64 0 -110 -4.5t-82.5 -24t-60 -35.5t-40 -63t-25 -81.5t-13 -116t-5 -141.5t-0.5 -181q0 -102 6 -174.5t21 -126t36 -86.5t57 -53.5t77 -29 t102 -11.5q107 0 217 22v402h-201v110h348v-633q-222 -36 -360 -36q-64 0 -111 4t-94.5 15t-80 31t-63.5 52t-50 78.5t-34 109.5t-21.5 145.5t-6.5 186.5z" />
<glyph unicode="H" horiz-adv-x="1171" d="M131 0v1366h154v-598h565v598h154v-1366h-154v631h-565v-631h-154z" />
<glyph unicode="I" horiz-adv-x="432" d="M115 0v1364h151v-1364h-151z" />
<glyph unicode="J" horiz-adv-x="534" d="M29 -16v127q34 0 50 0.5t43 2t40 5t31.5 10t27.5 17t18.5 25t13 35t3.5 46.5v1106h143v-1100q0 -167 -66 -226q-58 -53 -185 -53q-17 0 -35 1z" />
<glyph unicode="K" horiz-adv-x="1052" d="M131 0v1366h148v-604h202l324 604h170l-361 -659l379 -707h-168l-338 627h-208v-627h-148z" />
<glyph unicode="L" horiz-adv-x="899" d="M131 0v1364h152v-1221h548v-143h-700z" />
<glyph unicode="M" horiz-adv-x="1476" d="M131 0v1366h209l375 -899l375 899h215v-1366h-142v1155l-372 -866h-156l-359 866v-1155h-145z" />
<glyph unicode="N" horiz-adv-x="1206" d="M131 0v1366h199l563 -1155v1155h147v-1366h-215l-551 1147v-1147h-143z" />
<glyph unicode="O" horiz-adv-x="1126" d="M106 682q0 114 3 195t12 155.5t23 123.5t38 91.5t55.5 66.5t77.5 41.5t101 24t129 6.5q75 0 131.5 -6.5t102.5 -24.5t77.5 -42t56 -67.5t38 -92t22 -123.5t11.5 -155t3 -193q0 -114 -3 -194.5t-11.5 -155.5t-22.5 -123t-38.5 -90.5t-55.5 -66t-78 -41t-102.5 -23.5 t-130.5 -6t-131 7t-101.5 25t-77 42.5t-55.5 68t-38 92t-22 122.5t-11 153t-3 190zM258 682q0 -134 2 -207.5t12 -148.5t27 -108.5t50.5 -63t79.5 -37.5t116 -8q52 0 89.5 4t69 17.5t52 30.5t36.5 52.5t24 73t13.5 101.5t7 129t1.5 165t-1.5 165t-6.5 129.5t-13.5 102 t-24 73.5t-36 53.5t-52 31.5t-69 18.5t-90.5 4.5q-42 0 -74.5 -3t-60.5 -12t-48 -19.5t-36.5 -33t-27 -43t-18.5 -59.5t-12 -73t-6.5 -93t-3 -110t-0.5 -132z" />
<glyph unicode="P" horiz-adv-x="1073" d="M131 0v1364h444q69 0 124.5 -9t106.5 -32t85.5 -59t55 -94t20.5 -134v-166q0 -123 -72.5 -215.5t-189.5 -109.5q-42 -6 -97 -7t-323 -1v-537h-154zM285 672h282q44 0 77 3.5t68.5 15.5t57.5 33t36.5 58t14.5 88v164q0 51 -14.5 88.5t-37.5 58.5t-58 33.5t-68 16.5t-76 4 h-282v-563z" />
<glyph unicode="Q" horiz-adv-x="1116" d="M96 682q0 114 3 195t12 155.5t23 123.5t38 91.5t55.5 66.5t77.5 41.5t101 24t129 6.5q75 0 131.5 -6.5t102.5 -24.5t77.5 -42t56 -67.5t38 -92t22 -123.5t11.5 -155t3 -193q0 -125 -3.5 -210.5t-14 -163t-28 -126t-47 -88t-70 -61t-97.5 -33.5l162 -78l-52 -137l-413 205 q-61 7 -106 23t-79 41t-57 67t-38.5 91t-23.5 123.5t-11 154t-3 192.5zM248 682q0 -101 1 -160.5t5.5 -126.5t12 -102t22.5 -73t35 -54.5t51 -32t69 -20t91 -4.5q41 0 72.5 2.5t59.5 10.5t48 18t37 30.5t28 42t19.5 58t13 73t7.5 92.5t4 111.5t1 134.5q0 100 -1.5 164.5 t-6.5 129.5t-13 102.5t-23.5 73.5t-35.5 53.5t-51.5 31.5t-69 18.5t-89.5 4.5q-53 0 -91.5 -4.5t-69.5 -20t-51 -32t-35 -55.5t-22 -73.5t-11.5 -103t-5.5 -127.5t-1 -162z" />
<glyph unicode="R" horiz-adv-x="1087" d="M131 0v1364h444q69 0 124.5 -9t106.5 -32t85.5 -59t55 -94t20.5 -134v-166q0 -92 -31 -158t-100 -118l94 -594h-156l-88 545q-40 -6 -90.5 -7t-310.5 -1v-537h-154zM285 672h282q44 0 77 3.5t68.5 15.5t57.5 33t36.5 58t14.5 88v164q0 51 -14.5 88.5t-37.5 58.5t-58 33.5 t-68 16.5t-76 4h-282v-563z" />
<glyph unicode="S" horiz-adv-x="964" d="M63 1034q0 180 93.5 268.5t249.5 88.5q162 0 387 -17v-143q-205 20 -375 20q-105 0 -153 -47t-48 -149q0 -53 22 -96.5t59.5 -74.5t86 -58.5t102 -53.5t107.5 -53t102.5 -63t86 -79t59.5 -104.5t22 -136.5q0 -179 -92 -267.5t-246 -88.5q-137 0 -389 16v143 q205 -18 377 -18q103 0 150 47.5t47 153.5q0 53 -22 96.5t-59.5 75.5t-86.5 60t-102.5 54t-107 54t-102.5 63t-86.5 77t-59.5 101.5t-22 130.5z" />
<glyph unicode="T" horiz-adv-x="1003" d="M29 1223v141h905v-141h-373v-1223h-155v1223h-377z" />
<glyph unicode="U" horiz-adv-x="1179" d="M119 682v680h153v-680q0 -79 0.5 -131t3.5 -109t7 -92t12.5 -73t19.5 -58.5t28 -42.5t38 -32.5t49.5 -19.5t62 -12t76.5 -3q54 0 92 4t70.5 17.5t53.5 31t37.5 52t25 72.5t14 101.5t7 129.5t1.5 165v680h154v-680q0 -114 -3 -194.5t-12 -155t-23.5 -123t-39.5 -91 t-57.5 -66t-80.5 -41t-105 -23.5t-134 -6t-134.5 7t-104.5 25t-79.5 42.5t-57 68t-38 91.5t-22 123t-11.5 153t-3 190z" />
<glyph unicode="V" horiz-adv-x="1091" d="M6 1364h156l360 -1212l373 1212h149l-403 -1364h-233z" />
<glyph unicode="W" horiz-adv-x="1644" d="M27 1364h149l275 -1167l280 1165h146l274 -1165l276 1167h150l-317 -1364h-205l-252 1073l-258 -1073h-199z" />
<glyph unicode="X" horiz-adv-x="1017" d="M27 0l379 690l-365 674h170l283 -526l288 526h166l-362 -670l375 -694h-164l-301 555l-297 -555h-172z" />
<glyph unicode="Y" horiz-adv-x="1007" d="M-10 1366h178l297 -715l303 715h178l-403 -893v-473h-156v473z" />
<glyph unicode="Z" horiz-adv-x="997" d="M63 0v145l664 1078h-649v145h817v-154l-655 -1073h671v-141h-848z" />
<glyph unicode="[" horiz-adv-x="520" d="M109 -291v1970h342v-133h-201v-1702h201v-135h-342z" />
<glyph unicode="\" horiz-adv-x="743" d="M45 1376h148l448 -1609h-145z" />
<glyph unicode="]" horiz-adv-x="542" d="M33 -156h200v1702h-200v133h344v-1970h-344v135z" />
<glyph unicode="^" horiz-adv-x="866" d="M59 825l271 574h139l268 -574h-139l-201 432l-192 -432h-146z" />
<glyph unicode="_" horiz-adv-x="1040" d="M100 0h805v-84h-805v84z" />
<glyph unicode="`" horiz-adv-x="587" d="M102 1440l107 63l164 -332l-97 -57z" />
<glyph unicode="a" horiz-adv-x="911" d="M63 311q0 66 17 114.5t45 77.5t72.5 46.5t90 24t107.5 8.5h221v192q0 45 -9.5 72.5t-33 41t-50 17.5t-72.5 4q-102 0 -308 -30q-2 5 -12 65t-10 66q188 37 354 37q78 0 129 -11t89 -41.5t54.5 -85.5t16.5 -141v-768h-127l-14 84q-192 -104 -318 -104q-65 0 -113 25.5 t-75.5 72t-40.5 104.5t-13 129zM209 303q0 -86 25 -133t92 -47q37 0 86.5 15.5t125 47.5t78.5 33v242q-69 0 -109 -0.5t-87.5 -3t-72.5 -6.5t-53 -12t-40.5 -19t-24.5 -28t-16 -38.5t-4 -50.5z" />
<glyph unicode="b" horiz-adv-x="927" d="M113 6v1426h141v-428q99 36 270 36q153 0 217 -103.5t64 -350.5q0 -85 -2 -146t-8.5 -123.5t-18 -104.5t-30 -82.5t-45 -65t-63.5 -44t-85 -28t-109 -8.5q-155 0 -331 22zM256 127q49 -4 170 -4h14q40 0 70.5 5.5t53 22.5t37.5 31.5t25 51t15.5 60.5t8 81t3 92.5 t0.5 112.5q0 51 -1 85t-4.5 72t-10 61t-18 46t-28 35.5t-40.5 20t-55 7.5q-150 0 -240 -33v-747z" />
<glyph unicode="c" horiz-adv-x="876" d="M90 459q0 76 1.5 131.5t5.5 110.5t10.5 93t18 75t26 61t36.5 45.5t48 34t61 21.5t75.5 12.5t92.5 3.5q36 0 133.5 -9.5t157.5 -19.5v-129q-262 20 -287 20q-58 0 -95.5 -6t-64 -31t-39.5 -49t-20.5 -88t-8.5 -117t-1 -165q0 -62 2.5 -108t12 -82t18.5 -59.5t30 -40.5 t39 -25.5t54 -13.5t65 -6t82 -1q77 0 221 16v-115q-63 -15 -155.5 -25.5t-164.5 -10.5q-67 0 -111.5 5.5t-88 23t-69.5 49.5t-47 85t-29.5 130t-8.5 184z" />
<glyph unicode="d" horiz-adv-x="921" d="M88 526v62q6 253 63.5 357t206.5 104q82 0 267 -21v402h145v-1428h-106q-4 12 -10.5 38t-10.5 38q-159 -88 -299 -88q-133 0 -194.5 127t-61.5 409zM240 584q0 -261 28 -360t111 -99q99 0 246 78v684q-19 5 -118.5 12.5t-119.5 7.5h-10q-29 0 -51 -11t-36 -25.5 t-24 -43.5t-15 -51t-7.5 -62t-3 -63t-0.5 -67z" />
<glyph unicode="e" d="M90 514q0 110 4.5 183t19 138t39 102t66 64t98.5 37.5t138 10.5q80 0 136 -10t98 -36.5t66.5 -63.5t40 -101t20.5 -138.5t5 -185.5v-47h-24q-94 0 -282 -1t-282 -1q3 -129 11 -186t35 -101q14 -23 39.5 -37.5t63.5 -20t60.5 -6.5t63.5 -1q92 0 258 16v-113 q-189 -34 -342 -34q-85 0 -142 18t-95 53t-58.5 101.5t-28.5 149.5t-8 210zM236 594h442q-2 74 -5 119.5t-12.5 86t-23.5 61t-40 36t-59 20.5t-83 5q-62 0 -102 -14.5t-62 -29t-34 -67.5t-14.5 -81.5t-5.5 -118.5q-1 -11 -1 -17z" />
<glyph unicode="f" horiz-adv-x="684" d="M41 893v129h145v133q0 85 16 139t53 84.5t87.5 42t128.5 11.5q81 0 168 -11v-118h-139h-40t-33.5 -2t-30.5 -5.5t-23 -10t-19.5 -17t-12.5 -25t-9 -35t-2 -47.5v-139h227v-129h-227v-893h-144v893h-145z" />
<glyph unicode="g" horiz-adv-x="1009" d="M84 702q0 93 14.5 154t51.5 103.5t98.5 61t157.5 19.5l505 2v-112q-18 -3 -57 -8.5t-57 -8.5q30 -70 30 -211q0 -186 -67 -261.5t-207 -75.5h-215q-29 0 -41 -9t-12 -37q0 -66 22 -85t105 -19q19 0 67.5 2t73.5 2q58 0 102.5 -4.5t93.5 -20.5t80.5 -44t52.5 -78t21 -119 q0 -174 -89.5 -254t-242.5 -80q-142 0 -378 16v140q198 -17 366 -17q103 0 149 40t46 141q0 56 -26.5 87.5t-64 40.5t-96.5 9q-24 0 -76.5 -2t-78.5 -2q-58 0 -102 9t-84 32.5t-61.5 71t-21.5 116.5q0 77 33 121q-51 37 -71.5 103t-20.5 177zM221 702q0 -49 4 -82t16 -57 t27.5 -37.5t44 -21t59.5 -10t81 -2.5h57q101 0 140.5 51.5t39.5 171.5q0 65 -8 103t-31 59.5t-55.5 28.5t-89.5 7h-92q-63 -4 -94.5 -11t-57 -29t-33.5 -61.5t-8 -109.5z" />
<glyph unicode="h" horiz-adv-x="966" d="M115 0v1415h143v-457q217 80 344 80q110 0 163.5 -59.5t53.5 -181.5v-797h-145v803q0 94 -88 94q-61 0 -154.5 -18.5t-171.5 -57.5v-821h-145z" />
<glyph unicode="i" horiz-adv-x="405" d="M98 1282q0 60 13 75t73 15q61 0 75.5 -15t14.5 -75q0 -57 -15.5 -74.5t-74.5 -17.5t-72.5 16.5t-13.5 75.5zM111 0v1022h151v-1022h-151z" />
<glyph unicode="j" horiz-adv-x="425" d="M2 -309q69 11 93 50t24 105v1178h147v-1143q0 -85 -14.5 -142.5t-43 -87.5t-63 -42t-82.5 -12q-32 0 -61 4v90zM102 1282q0 60 14 75t74 15t75.5 -15t15.5 -75q0 -56 -16.5 -74t-74.5 -18q-59 0 -73.5 17t-14.5 75z" />
<glyph unicode="k" d="M115 0v1413h145v-754h158l254 519h157l-282 -584l327 -594h-163l-291 522h-160v-522h-145z" />
<glyph unicode="l" horiz-adv-x="448" d="M113 270v1141h149v-1178q0 -29 1 -44t6 -37t15.5 -34t30.5 -22.5t50 -15.5v-92q-29 -4 -50 -4q-48 0 -82.5 12.5t-62.5 43t-42.5 88t-14.5 142.5z" />
<glyph unicode="m" horiz-adv-x="1501" d="M115 0v1022h121l14 -68q193 86 352 86q106 0 176 -79q193 79 367 79q221 0 221 -245v-795h-149v801q0 92 -84 92q-49 0 -143 -15t-171 -40v-838h-147v803q0 92 -86 92q-53 0 -149 -21t-173 -57v-817h-149z" />
<glyph unicode="n" horiz-adv-x="968" d="M115 0v1024h121l12 -74q198 90 354 90q219 0 219 -243v-797h-149v803q0 44 -22.5 68t-65.5 24q-59 0 -152 -19t-170 -57v-819h-147z" />
<glyph unicode="o" horiz-adv-x="960" d="M88 512q0 133 9 217.5t31 150t65.5 99t106.5 49.5t161 16q83 0 141 -10t101 -37t68.5 -64t40.5 -100.5t20.5 -137.5t5.5 -183t-5.5 -183t-20.5 -137t-40.5 -100t-69 -63.5t-101 -36.5t-140.5 -10t-140.5 10t-100 37t-67.5 63.5t-40 100.5t-20 137t-5 182zM238 512 q0 -69 1 -114t5 -90t10.5 -71.5t18.5 -51.5t27.5 -37.5t39.5 -22.5t52.5 -13t68.5 -3q55 0 90.5 5.5t62.5 25t41 44t22.5 75.5t10.5 105.5t2 147.5q0 94 -2.5 151t-11.5 108t-23 76.5t-41 44.5t-62 24.5t-89 5.5q-53 0 -88 -6t-61 -26t-39.5 -45.5t-22 -77t-10.5 -107 t-2 -148.5z" />
<glyph unicode="p" horiz-adv-x="921" d="M115 -406v1428h106l21 -76q156 88 299 88q133 0 194.5 -127t61.5 -409v-62q-6 -252 -64 -356.5t-209 -104.5q-78 0 -264 21v-402h-145zM260 137q19 -5 118.5 -12.5t119.5 -7.5h10q29 0 51 11t36 25.5t24 43.5t15 51t7.5 62t3 63t0.5 67q0 259 -28.5 359t-110.5 100 q-99 0 -246 -78v-684z" />
<glyph unicode="q" d="M84 440q0 86 2 146.5t8.5 123t17.5 104.5t30 82.5t45.5 64.5t63.5 43.5t85 27.5t110 8q156 0 332 -22v-1424h-145v424q-97 -36 -266 -36q-154 0 -218.5 106t-64.5 352zM238 446q0 -56 1.5 -93t6 -77.5t14 -65t24.5 -46t39 -31.5t56 -10q160 0 256 35v729q-44 8 -184 8 q-53 0 -89 -9.5t-60 -38.5t-37 -55.5t-19 -90t-7 -110.5t-1 -145z" />
<glyph unicode="r" horiz-adv-x="641" d="M115 0v1024h125l10 -70q156 72 313 88v-143q-65 -6 -148.5 -29t-152.5 -55v-815h-147z" />
<glyph unicode="s" horiz-adv-x="819" d="M63 770q0 135 76.5 203.5t202.5 68.5q87 0 167.5 -4t117.5 -8l37 -4v-135q-140 16 -312 16q-73 0 -106 -29t-33 -94q0 -45 28 -80.5t72.5 -59.5t98.5 -46.5t108 -50.5t98.5 -62.5t72.5 -90.5t28 -128q0 -135 -77 -203.5t-204 -68.5q-86 0 -165.5 4t-116.5 8l-37 4v135 q129 -16 303 -16q77 0 111 28.5t34 94.5q0 47 -28 82.5t-72 59.5t-98 46.5t-108 49.5t-98 61.5t-72 90.5t-28 128z" />
<glyph unicode="t" horiz-adv-x="712" d="M35 903v121h215v264h143v-264h223v-121h-223v-584q0 -124 32.5 -171.5t113.5 -47.5q52 0 79 2q4 0 10 1t7 1q0 -14 1 -54.5t1 -55.5q-59 -12 -113 -12q-44 0 -79 6.5t-62 16.5t-47.5 29.5t-34.5 38t-23.5 49.5t-15 56.5t-8.5 66.5t-3.5 73t-0.5 81v504h-215z" />
<glyph unicode="u" horiz-adv-x="968" d="M109 223v797h149v-801q0 -94 88 -94q60 0 152.5 19t171.5 57v819h147v-1024h-123l-12 74q-194 -88 -354 -88q-105 0 -162 59.5t-57 181.5z" />
<glyph unicode="v" horiz-adv-x="903" d="M18 1024h154l260 -868l258 868h154l-314 -1024h-196z" />
<glyph unicode="w" horiz-adv-x="1366" d="M45 1024h148l165 -827l217 827h183l215 -827l168 827h147l-209 -1024h-196l-217 831l-213 -831h-199z" />
<glyph unicode="x" horiz-adv-x="800" d="M37 0l262 510l-254 512h154l176 -375l178 375h149l-249 -512l258 -510h-148l-188 369l-182 -369h-156z" />
<glyph unicode="y" horiz-adv-x="905" d="M18 1024h156l258 -868l260 868h152l-436 -1427h-142l121 403h-53z" />
<glyph unicode="z" horiz-adv-x="792" d="M66 2v123l436 766h-426v135h602v-129l-434 -758h444v-137h-622z" />
<glyph unicode="{" horiz-adv-x="575" d="M18 645v100q78 63 107 117.5t29 155.5v373q0 75 11 123.5t42.5 88.5t92 58t155.5 18h49v-131h-49q-53 0 -83.5 -7.5t-45.5 -29t-19 -46.5t-4 -74v-373q0 -115 -30.5 -188.5t-102.5 -135.5q72 -60 102.5 -134.5t30.5 -188.5v-371q0 -50 4 -75.5t19 -47.5t45.5 -29.5 t83.5 -7.5h49v-131h-49q-76 0 -130.5 13.5t-87 36.5t-51.5 61.5t-25.5 80t-6.5 99.5v371q0 101 -28.5 155t-107.5 119z" />
<glyph unicode="|" horiz-adv-x="366" d="M109 -422v2030h102v-2030h-102z" />
<glyph unicode="}" horiz-adv-x="575" d="M31 -160h49q53 0 83 7.5t45 29.5t19 47.5t4 75.5v371q0 115 31 189t105 134q-74 62 -105 136t-31 188v373q0 33 -1.5 52t-6.5 39.5t-14.5 30.5t-26.5 19t-42 12.5t-60 3.5h-49v131h49q95 0 155.5 -18t92 -58t42.5 -88.5t11 -123.5v-373q0 -102 28 -156.5t107 -116.5v-100 q-79 -62 -107 -116.5t-28 -157.5v-371q0 -58 -6.5 -99.5t-25.5 -80t-51.5 -61.5t-87 -36.5t-130.5 -13.5h-49v131z" />
<glyph unicode="~" horiz-adv-x="897" d="M88 549q96 99 178 102q47 3 146 -30t159 -35q56 0 142 73l61 -92q-31 -50 -90 -78t-111 -30q-50 -1 -89 7.5t-93.5 30.5t-64.5 25q-75 19 -176 -69q-7 11 -29.5 45t-32.5 51z" />
<glyph unicode="&#xa2;" horiz-adv-x="925" d="M100 633q0 87 2 148.5t7.5 121t15 99t25.5 76t38 58.5t53 39.5t70 26t90 12.5v162h138v-164q136 -8 225 -24v-131q-260 22 -285 22q-44 0 -75.5 -3t-56.5 -16.5t-41 -25t-27.5 -43.5t-17.5 -57t-9 -81t-3.5 -99t-0.5 -127q0 -81 5.5 -136.5t20.5 -95.5t34 -62.5 t54.5 -35.5t74 -17t98.5 -4q43 2 129 9.5t110 9.5v-115q-94 -25 -235 -35v-161h-138v161q-83 4 -135.5 25t-92 74.5t-56.5 147.5t-17 241z" />
<glyph unicode="&#xa3;" horiz-adv-x="892" d="M66 0v125q82 4 107.5 50t25.5 185v322h-113v102h113v160q0 243 65 339.5t242 96.5q77 0 258 -37v-110q-179 29 -258 29q-49 0 -82 -21.5t-48.5 -62t-21.5 -83.5t-6 -102v-43v-166h354v-102h-354v-342v-47q0 -100 -33 -160h459v-133h-708z" />
<glyph unicode="&#xa5;" horiz-adv-x="1058" d="M43 1427h154l307 -675l315 675h154l-389 -835h250v-123h-644v123h242zM193 287v121h645v-121h-258v-287h-142v287h-245z" />
<glyph unicode="&#xa8;" horiz-adv-x="735" d="M111 1225q0 59 12.5 74.5t66.5 15.5t69 -16t15 -74q0 -54 -14.5 -71t-69.5 -17q-54 0 -66.5 16t-12.5 72zM432 1225q0 59 12.5 74.5t65.5 15.5q55 0 70.5 -16t15.5 -74q0 -54 -15 -71t-71 -17q-52 0 -65 16t-13 72z" />
<glyph unicode="&#xa9;" horiz-adv-x="1413" d="M45 678q0 144 46 272.5t127 223.5t200.5 150.5t259.5 55.5q187 0 333.5 -95t225 -254.5t78.5 -352.5q0 -191 -78.5 -350t-225 -253.5t-333.5 -94.5q-140 0 -259.5 55.5t-200.5 150t-127 222t-46 270.5zM162 678q0 -163 62.5 -296t182 -211.5t275.5 -78.5 q157 0 277.5 78.5t183.5 211.5t63 296q0 164 -63 297.5t-183.5 213t-277.5 79.5q-156 0 -275.5 -79.5t-182 -213t-62.5 -297.5zM434 643q0 86 3 140.5t12.5 103.5t26 75t46 45.5t69 26t97.5 6.5q85 0 199 -20v-86q-187 14 -197 14q-23 0 -41 -1.5t-33 -7t-26 -10 t-19.5 -18.5t-14 -22.5t-9.5 -32t-6 -39t-3 -50t-1 -58v-70.5q0 -57 3 -94t14.5 -63.5t23.5 -40t39.5 -21t52.5 -9t73 -1.5q50 0 148 12v-78q-98 -25 -217 -25q-55 0 -89.5 6t-66 24.5t-48.5 54t-26.5 94t-9.5 145.5z" />
<glyph unicode="&#xab;" horiz-adv-x="897" d="M61 504l242 407l111 -77l-197 -330l197 -330l-111 -80zM414 504l241 407l111 -77l-195 -330l195 -330l-111 -78z" />
<glyph unicode="&#xad;" horiz-adv-x="696" d="M100 510v127h447v-127h-447z" />
<glyph unicode="&#xae;" horiz-adv-x="870" d="M82 1042q0 160 93 267.5t247 107.5q153 0 245.5 -107.5t92.5 -267.5t-92.5 -267t-245.5 -107q-154 0 -247 107t-93 267zM152 1042q0 -131 72.5 -217t197.5 -86q124 0 196 86.5t72 216.5q0 129 -72.5 216.5t-195.5 87.5q-125 0 -197.5 -87t-72.5 -217zM317 872v351h125 q103 0 103 -88v-41q0 -46 -33 -72l25 -150h-50l-22 136q-14 -2 -100 -2v-134h-48zM365 1051h73q60 0 60 43v39q0 28 -15.5 36.5t-44.5 8.5h-73v-127z" />
<glyph unicode="&#xb4;" horiz-adv-x="587" d="M115 1174l164 331l104 -63l-172 -326z" />
<glyph unicode="&#xb8;" horiz-adv-x="591" d="M227 -416l6 76q4 0 43.5 -3t57.5 -3q44 0 54.5 12.5t10.5 59.5q0 28 -9 38.5t-42 10.5l-98 -2q6 38 17.5 113.5t17.5 113.5h92q-3 -23 -9.5 -69t-9.5 -70q7 0 20 1t19 1q46 0 71.5 -32.5t25.5 -92.5q0 -95 -33 -130.5t-103 -35.5q-25 0 -131 12z" />
<glyph unicode="&#xbb;" horiz-adv-x="899" d="M74 182l196 330l-196 330l110 78l244 -408l-244 -408zM428 182l195 330l-195 330l111 78l243 -408l-243 -410z" />
<glyph unicode="&#x2c6;" horiz-adv-x="745" d="M78 1163l270 232l266 -236l-63 -86l-203 174l-213 -172z" />
<glyph unicode="&#x2da;" horiz-adv-x="528" d="M102 1245q0 65 40 109.5t98 44.5q61 0 100 -44.5t39 -109.5q0 -63 -39.5 -107t-99.5 -44q-59 0 -98.5 43.5t-39.5 107.5zM174 1245q0 -31 19.5 -54.5t46.5 -23.5q30 0 49.5 23t19.5 55q0 34 -19.5 57t-49.5 23q-28 0 -47 -23t-19 -57z" />
<glyph unicode="&#x2dc;" horiz-adv-x="772" d="M106 1200q28 48 69 81t85 36q38 0 106 -36t103 -36q43 0 86 58q12 -10 33.5 -31t34.5 -31q-27 -51 -66 -82t-86 -31q-36 0 -102 36t-103 36q-45 0 -96 -65q-11 11 -31.5 32t-32.5 33z" />
<glyph unicode="&#x401;" horiz-adv-x="993" d="M131 0v1366h727v-145h-575v-451h526v-149h-526v-478h575v-143h-727zM252 1569q0 60 13 76t67 16q55 0 69.5 -16t14.5 -76q0 -53 -13.5 -69.5t-70.5 -16.5q-54 0 -67 15.5t-13 70.5zM575 1569q0 61 12 76.5t66 15.5q56 0 71 -16t15 -76q0 -52 -15 -69t-71 -17 q-53 0 -65.5 15.5t-12.5 70.5z" />
<glyph unicode="&#x402;" horiz-adv-x="1150" d="M29 1223v141h905v-141h-373v-375q180 16 227 16q139 0 195.5 -91t56.5 -322v-17q0 -114 -11.5 -196t-31 -131.5t-52 -77.5t-66.5 -37.5t-82 -9.5q-27 0 -113 16v135q58 -14 78 -14q53 0 78 20.5t36 82t11 192.5q0 157 -14 211q-24 92 -105 92q-131 0 -207 -8v-709h-155 v1223h-377z" />
<glyph unicode="&#x403;" horiz-adv-x="901" d="M131 2v1362h700v-145h-546v-1217h-154zM360 1599l263 193l65 -111l-266 -184z" />
<glyph unicode="&#x404;" horiz-adv-x="1011" d="M96 686q0 145 10 252t33.5 185.5t56.5 129.5t83.5 81.5t110 42.5t140.5 12q211 0 379 -43l-14 -127q-162 34 -371 34q-53 0 -90 -7t-69.5 -26.5t-52 -53t-34.5 -88t-21.5 -130t-8.5 -180.5h555v-137h-555q1 -113 5.5 -190t17.5 -136.5t31 -94t49.5 -56.5t69.5 -29.5 t95 -7.5q56 0 180 12.5t201 28.5l4 -119q-196 -57 -391 -57q-98 0 -165 20.5t-117 67t-78 129.5t-41 200t-13 287z" />
<glyph unicode="&#x405;" horiz-adv-x="968" d="M63 1034q0 180 93.5 268.5t249.5 88.5q162 0 387 -17v-143q-205 20 -375 20q-105 0 -153 -47t-48 -149q0 -53 22 -96.5t59.5 -74.5t86 -58.5t102 -53.5t107.5 -53t102.5 -63t86 -79t59.5 -104.5t22 -136.5q0 -179 -92 -267.5t-246 -88.5q-137 0 -389 16v143 q205 -18 377 -18q103 0 150 47.5t47 153.5q0 67 -35.5 119.5t-93 89t-126.5 70t-138 71.5t-126.5 84t-93 117t-35.5 161z" />
<glyph unicode="&#x406;" horiz-adv-x="444" d="M125 0v1364h151v-1364h-151z" />
<glyph unicode="&#x407;" horiz-adv-x="444" d="M-37 1618q0 59 13.5 74.5t68.5 15.5t69.5 -15.5t14.5 -74.5q0 -54 -14.5 -71t-69.5 -17q-54 0 -68 16t-14 72zM125 0v1364h151v-1364h-151zM285 1618q0 59 13.5 74.5t66.5 15.5q56 0 71 -15.5t15 -74.5q0 -54 -14.5 -71t-71.5 -17q-53 0 -66.5 16t-13.5 72z" />
<glyph unicode="&#x408;" horiz-adv-x="530" d="M29 -16v127q34 0 50 0.5t43 2t40 5t31.5 10t27.5 17t18.5 25t13 35t3.5 46.5v1106h143v-1100q0 -167 -66 -226.5t-220 -51.5z" />
<glyph unicode="&#x409;" horiz-adv-x="1658" d="M55 -14v92q29 5 49 16t30 23.5t15 35.5t6 38.5t1 44.5v1128h694v-537q365 0 444 -8q123 -15 199 -103.5t76 -221.5v-166q0 -75 -20.5 -133t-55 -94.5t-85.5 -59.5t-107.5 -32t-124.5 -9h-480v1217h-389v-945q0 -86 -14.5 -144.5t-43 -89.5t-63.5 -43.5t-84 -12.5 q-18 0 -47 4zM850 129h319q54 0 94.5 7.5t79 27.5t59.5 62t21 104v164q0 63 -20.5 104.5t-59.5 61t-78.5 26t-95.5 6.5h-319v-563z" />
<glyph unicode="&#x40a;" horiz-adv-x="1734" d="M131 0v1366h154v-541h489v539h154v-537q250 0 333.5 -2.5t139.5 -11.5q110 -20 177 -107.5t67 -211.5v-166q0 -94 -30 -160t-86 -101.5t-123.5 -51t-154.5 -15.5h-477v686h-489v-686h-154zM928 129h315q55 0 96 7.5t80.5 27.5t60.5 62t21 104v164q0 63 -20.5 104.5 t-60 61t-80 26t-97.5 6.5h-315v-563z" />
<glyph unicode="&#x40b;" horiz-adv-x="1214" d="M29 1223v141h905v-141h-373v-435q196 70 316 70q111 0 165 -59.5t54 -182.5v-616h-148v631q0 43 -22.5 65.5t-63.5 22.5q-53 0 -139.5 -16t-161.5 -48v-655h-155v1223h-377z" />
<glyph unicode="&#x40c;" horiz-adv-x="1062" d="M131 0v1366h148v-604h202l324 604h170l-361 -659l379 -707h-168l-338 627h-208v-627h-148zM410 1591l260 193l63 -111l-264 -184z" />
<glyph unicode="&#x40e;" horiz-adv-x="874" d="M10 1366h154l260 -807l260 807h154l-439 -1366h-139l117 406h-51zM170 1604l47 84q37 -31 93 -58.5t112 -27.5q89 0 213 84l43 -82q-36 -38 -107 -79.5t-147 -41.5q-77 0 -147.5 41t-106.5 80z" />
<glyph unicode="&#x40f;" horiz-adv-x="1196" d="M131 0v1362h154v-1223h587v1223h152v-1362h-371v-307h-151v307h-371z" />
<glyph unicode="&#x410;" horiz-adv-x="1085" d="M-2 0l401 1364h236l403 -1364h-149l-107 346h-526l-100 -346h-158zM297 483h442l-225 729z" />
<glyph unicode="&#x411;" horiz-adv-x="1099" d="M131 0v1364h688v-137h-534v-400q277 0 344 -1t108 -7q119 -15 193 -104.5t74 -220.5v-166q0 -75 -20.5 -133t-55.5 -94.5t-86.5 -59.5t-108 -32t-125.5 -9h-477zM285 129h315q55 0 95.5 7.5t79.5 27.5t60 62t21 104v164q0 51 -14.5 88t-37 58t-57.5 33t-68.5 15.5 t-78.5 3.5h-315v-563z" />
<glyph unicode="&#x412;" horiz-adv-x="1032" d="M131 0v1366h320q56 0 97.5 -2.5t89.5 -10.5t82 -22t67.5 -39t54 -59t33 -84t12.5 -113v-90q0 -108 -34 -161t-114 -101q49 -16 84 -60.5t49.5 -98t14.5 -111.5v-84q0 -98 -25 -162t-81 -101t-134 -52t-196 -15h-320zM283 125h178q146 0 211 48.5t65 166.5v76 q0 110 -52.5 155t-152.5 45h-249v-491zM283 745h249q205 0 205 201v74q0 51 -8 88t-26 61t-38.5 38t-56 21t-66.5 9t-81 2h-178v-494z" />
<glyph unicode="&#x413;" horiz-adv-x="901" d="M131 0v1364h700v-143h-548v-1221h-152z" />
<glyph unicode="&#x414;" horiz-adv-x="1245" d="M29 129h108q36 60 62.5 119.5t44 107t29.5 113t18 106.5t8.5 120t3 120.5t0.5 140.5v408h729v-1235h139v-422h-147v293h-848v-293h-147v422zM301 129h584v1106h-434v-315q0 -116 -0.5 -163t-8 -144t-22 -159t-44.5 -150t-75 -175z" />
<glyph unicode="&#x415;" horiz-adv-x="993" d="M131 0v1366h727v-145h-575v-451h526v-149h-526v-478h575v-143h-727z" />
<glyph unicode="&#x416;" horiz-adv-x="1372" d="M27 1366h166l335 -625h86v629h146v-629h78l325 625h164l-360 -684l370 -682h-166l-327 606h-84v-606h-146v606h-90l-329 -606h-166l368 682z" />
<glyph unicode="&#x417;" horiz-adv-x="870" d="M84 2v125q35 0 103 -2t102 -2q148 0 213 49t65 168v76q0 112 -53 158.5t-154 46.5h-180v129h180q207 0 207 202v88q0 60 -15 100t-33.5 61t-61.5 31t-73.5 11.5t-94.5 1.5l-205 -4v127l201 4q58 0 96.5 -1.5t88.5 -8.5t82.5 -19.5t67 -35.5t54 -56.5t32.5 -83t13 -112.5 v-103q-4 -77 -23 -127t-47.5 -79t-81.5 -60q75 -25 113.5 -102.5t38.5 -169.5v-82q0 -100 -25 -164.5t-82 -102t-137.5 -52.5t-202.5 -15q-62 0 -188 4z" />
<glyph unicode="&#x418;" horiz-adv-x="1206" d="M131 0v1366h154v-1151l555 1151h200v-1366h-147v1147l-549 -1147h-213z" />
<glyph unicode="&#x419;" horiz-adv-x="1208" d="M131 0v1366h154v-1151l555 1151h200v-1366h-147v1147l-549 -1147h-213zM336 1604l47 84q38 -32 95.5 -59.5t115.5 -26.5q84 0 205 84l43 -82q-32 -36 -105 -78.5t-149 -42.5t-146 41t-106 80z" />
<glyph unicode="&#x41a;" horiz-adv-x="1040" d="M131 0v1366h148v-604h202l324 604h170l-361 -659l379 -707h-168l-338 627h-208v-627h-148z" />
<glyph unicode="&#x41b;" horiz-adv-x="1085" d="M55 -14v92q30 5 50 16t30.5 23.5t15.5 35.5t6 38.5t1 44.5v1126h764v-1362h-152v1217h-463v-945q0 -86 -14.5 -144.5t-43 -89.5t-63 -43.5t-82.5 -12.5q-22 0 -49 4z" />
<glyph unicode="&#x41c;" horiz-adv-x="1470" d="M131 0v1366h209l375 -899l375 899h215v-1366h-142v1155l-372 -866h-156l-359 866v-1155h-145z" />
<glyph unicode="&#x41d;" horiz-adv-x="1171" d="M131 0v1366h154v-598h565v598h154v-1366h-154v631h-565v-631h-154z" />
<glyph unicode="&#x41e;" horiz-adv-x="1120" d="M100 682q0 112 3 192t12 154t23 123.5t38 92.5t55.5 67.5t77.5 42.5t101 25t129 7q98 0 164.5 -11.5t118 -44t81 -80t48.5 -131t25.5 -185t6.5 -252.5q0 -113 -3.5 -195t-13 -155.5t-24.5 -123t-40 -91t-56.5 -65.5t-78 -41t-101 -23t-127.5 -6t-128 7t-100.5 25 t-77 42.5t-56 67t-39 91.5t-23.5 122.5t-12 153.5t-3 191zM252 682q0 -100 1.5 -164.5t6.5 -128.5t13 -101.5t23.5 -72.5t35.5 -52t51 -30.5t67.5 -17.5t88.5 -4t89 4t68.5 17.5t52 30.5t36.5 52t24 72.5t13.5 101t7 129t1.5 164.5q0 97 -1.5 162t-7 128.5t-14 102t-24 74 t-36 54t-51.5 33t-68.5 19.5t-89.5 5t-90 -4.5t-69 -19.5t-50.5 -32t-35 -54t-23 -73.5t-12.5 -103t-6 -128.5t-1 -163z" />
<glyph unicode="&#x41f;" horiz-adv-x="1064" d="M131 0v1362h762v-1362h-150v1217h-462v-1217h-150z" />
<glyph unicode="&#x420;" horiz-adv-x="1062" d="M131 0v1364h444q69 0 124.5 -9t106.5 -32t85.5 -59t55 -94t20.5 -134v-166q0 -123 -72.5 -215.5t-189.5 -109.5q-42 -6 -97 -7t-323 -1v-537h-154zM285 672h282q44 0 77 3.5t68.5 15.5t57.5 33t36.5 58t14.5 88v164q0 51 -14.5 88.5t-37.5 58.5t-58 33.5t-68 16.5t-76 4 h-282v-563z" />
<glyph unicode="&#x421;" horiz-adv-x="1021" d="M96 604q0 126 3 213t12 170.5t24 136.5t41.5 101t61 74.5t85.5 46.5t113 27t146 7q104 0 325 -26v-131q-262 22 -317 22q-64 0 -110 -4.5t-82.5 -24t-60 -35.5t-40 -63t-25 -81.5t-13 -116t-5 -141.5t-0.5 -181q0 -90 4 -156t17.5 -118t26 -86t43.5 -58t56.5 -36.5 t77.5 -19t93.5 -8t117.5 -1.5q94 0 217 10v-111q-197 -32 -350 -32q-64 0 -111 4t-94.5 15t-80 31t-63.5 52t-50 78.5t-34 109.5t-21.5 145.5t-6.5 186.5z" />
<glyph unicode="&#x422;" horiz-adv-x="1001" d="M29 1223v141h905v-141h-373v-1223h-155v1223h-377z" />
<glyph unicode="&#x423;" horiz-adv-x="878" d="M10 1366h156l260 -807l260 807h152l-439 -1366h-139l119 406h-53z" />
<glyph unicode="&#x424;" horiz-adv-x="1445" d="M63 690q0 101 10 171t37 124.5t66.5 87t106.5 54t148 30t200 10.5v197h155v-195q117 -2 196.5 -10.5t145.5 -30t104.5 -54t65 -87t36 -125t9.5 -172.5q0 -101 -9.5 -171.5t-35 -125.5t-64 -88.5t-104 -55.5t-146 -31t-198.5 -11v-207h-155v207q-118 2 -197.5 9.5 t-147.5 28t-107 53t-67 87.5t-38.5 128t-10.5 177zM197 690q0 -75 6 -124.5t26 -88.5t47.5 -60.5t80 -35.5t115 -19t159.5 -6v662q-96 -1 -157 -5.5t-114 -18t-81 -34.5t-48.5 -59t-27 -87.5t-6.5 -123.5zM786 356q95 1 156 6t112.5 19t79 35.5t47 60.5t25.5 88.5t6 124.5 t-6.5 124t-26.5 87.5t-47.5 59t-79.5 34t-111.5 18t-154.5 5.5v-662z" />
<glyph unicode="&#x425;" horiz-adv-x="1007" d="M25 0l376 690l-364 674h170l282 -526l289 526h166l-362 -670l374 -694h-163l-301 555l-297 -555h-170z" />
<glyph unicode="&#x426;" horiz-adv-x="1241" d="M131 0v1362h154v-1221h589v1221h152v-1221h135v-362h-143v221h-887z" />
<glyph unicode="&#x427;" horiz-adv-x="958" d="M80 813v547h149v-561q0 -42 23 -65t65 -23q57 0 152 18.5t174 56.5v574h150v-1362h-138l-2 651q-183 -80 -352 -80q-221 0 -221 244z" />
<glyph unicode="&#x428;" horiz-adv-x="1658" d="M131 0v1364h154v-1225h452v1225h154v-1225h452v1225h152v-1364h-1364z" />
<glyph unicode="&#x429;" horiz-adv-x="1705" d="M131 0v1364h154v-1223h452v1223h154v-1223h452v1223h154v-1223h135v-362h-143v221h-1358z" />
<glyph unicode="&#x42a;" horiz-adv-x="1175" d="M33 1223v141h329v-537q278 0 346 -1t111 -7q117 -15 189.5 -106.5t72.5 -218.5v-166q0 -75 -20 -133t-54.5 -94.5t-85.5 -59.5t-107 -32t-124 -9h-479v1223h-178zM362 129h320q55 0 95.5 7.5t79 27.5t59 62t20.5 104v164q0 63 -20 104.5t-58.5 61t-78.5 26t-97 6.5h-320 v-563z" />
<glyph unicode="&#x42b;" horiz-adv-x="1396" d="M131 0v1364h152v-537q371 0 434 -6q129 -12 206.5 -102t77.5 -225v-166q0 -75 -20.5 -133t-55 -94.5t-85.5 -59.5t-107.5 -32t-124.5 -9h-477zM283 129h317q55 0 95.5 7.5t79.5 27.5t60 62t21 104v164q0 51 -14.5 88t-37 58t-57.5 33t-68.5 15.5t-78.5 3.5h-317v-563z M1108 0v1364h149v-1364h-149z" />
<glyph unicode="&#x42c;" horiz-adv-x="1099" d="M131 0v1364h152v-537q371 0 434 -6q129 -12 206.5 -102t77.5 -225v-166q0 -75 -20.5 -133t-55 -94.5t-85.5 -59.5t-107.5 -32t-124.5 -9h-477zM283 129h317q54 0 94.5 7.5t80 27.5t60.5 62t21 104v164q0 63 -20.5 104.5t-60 61t-79 26t-96.5 6.5h-317v-563z" />
<glyph unicode="&#x42d;" horiz-adv-x="1017" d="M76 1346q165 43 379 43q97 0 164.5 -18t122 -63.5t85.5 -126t47.5 -201.5t16.5 -294q0 -212 -20 -345t-70.5 -214.5t-127.5 -113t-200 -31.5q-192 0 -391 57l4 119q79 -16 203 -28.5t180 -12.5q48 0 82.5 6t64 19.5t48.5 40t33.5 63t22.5 93.5t12 126t5 166h-555v137h555 q-2 126 -13 210.5t-29.5 140t-52 84t-74.5 39.5t-105 11q-200 0 -373 -34z" />
<glyph unicode="&#x42e;" horiz-adv-x="1433" d="M131 0v1364h150v-590h135q2 127 9.5 214t26.5 159.5t49 115t80 72t115 40.5t158 11q98 0 164.5 -11.5t118 -44t81 -80t48.5 -131t25.5 -185t6.5 -252.5t-6.5 -252t-25.5 -184t-48.5 -130t-81.5 -79.5t-118 -43.5t-164 -11q-94 0 -159.5 11.5t-115.5 42.5t-80 76t-49 121 t-26 168t-8 226h-135v-627h-150zM567 682q0 -100 1.5 -164.5t6.5 -128.5t13 -101.5t24 -72.5t35.5 -52t51 -30.5t68.5 -17.5t89 -4q51 0 88 4t68.5 17.5t51.5 31t36.5 51.5t25 72.5t14.5 101t7.5 129t1.5 164.5q0 96 -1.5 161.5t-7 128.5t-14.5 102t-25 74.5t-36.5 54.5 t-51.5 33t-68.5 19t-88.5 5q-42 0 -74 -3t-60 -12t-48 -19t-37 -32t-27.5 -43t-19 -59t-12.5 -73.5t-7 -93t-3.5 -110.5t-0.5 -133z" />
<glyph unicode="&#x42f;" horiz-adv-x="1093" d="M90 870v166q0 76 20.5 134t55 94t85.5 59t107 32t125 9h445v-1364h-154v537q-260 0 -310.5 1t-90.5 7l-88 -545h-158l96 594q-69 53 -101 118.5t-32 157.5zM236 870q0 -63 20 -104.5t58.5 -61t78.5 -26t96 -6.5h285v563h-285q-54 0 -94 -7t-79 -27t-59.5 -62t-20.5 -105 v-164z" />
<glyph unicode="&#x430;" horiz-adv-x="909" d="M63 311q0 66 17 114.5t45 77.5t72.5 46.5t90 24t107.5 8.5h221v192q0 45 -9.5 72.5t-33 41t-50 17.5t-72.5 4q-102 0 -308 -30q-2 5 -12 65t-10 66q188 37 354 37q78 0 129 -11t89 -41.5t54.5 -85.5t16.5 -141v-768h-127l-14 84q-192 -104 -318 -104q-65 0 -113 25.5 t-75.5 72t-40.5 104.5t-13 129zM209 303q0 -86 25 -133t92 -47q37 0 86.5 15.5t125 47.5t78.5 33v242q-69 0 -109 -0.5t-87.5 -3t-72.5 -6.5t-53 -12t-40.5 -19t-24.5 -28t-16 -38.5t-4 -50.5z" />
<glyph unicode="&#x431;" horiz-adv-x="944" d="M98 541q0 84 2 125q1 131 17 239t42 186.5t65.5 140t81 101t97.5 68.5t106 44t115 26.5t116.5 16t117 12t111.5 16.5v-140q-63 -12 -168.5 -23t-141.5 -16q-45 -7 -87 -19t-91 -38.5t-88.5 -63.5t-74 -96t-52.5 -133q58 55 178 55q96 0 163 -21t107.5 -58t63 -102.5 t30 -138t7.5 -181.5q0 -108 -5.5 -183t-20.5 -141t-40.5 -106.5t-67.5 -70t-99.5 -42t-137.5 -12.5q-89 0 -149.5 21t-99.5 60t-60 110t-29 154.5t-8 209.5zM250 541q0 -85 2 -138.5t9 -107t19.5 -83.5t34.5 -55t54 -34.5t77 -9.5q38 0 67 5.5t51.5 19.5t38.5 31t26.5 46.5 t17 58.5t10 74.5t4.5 87.5t1 105q0 175 -9 226q-16 94 -82 125q-46 21 -125 21q-45 0 -77 -8t-54 -29t-34.5 -46.5t-19.5 -72t-9 -93.5t-2 -123z" />
<glyph unicode="&#x432;" horiz-adv-x="829" d="M115 0v1022h247q61 0 103.5 -4t89.5 -19t75 -42t47 -75t19 -116v-59q0 -75 -20.5 -117t-67.5 -76q44 -29 66 -84.5t22 -118.5v-55q0 -149 -76 -202.5t-258 -53.5h-247zM260 129h16h60.5t51.5 1.5t46.5 3.5t37 6.5t32.5 11.5t23.5 17.5t18.5 24t9 31.5t4 41v53 q0 127 -129 127h-170v-317zM260 575h170q129 0 129 125v54q0 81 -34.5 108t-110.5 27h-154v-314z" />
<glyph unicode="&#x433;" horiz-adv-x="729" d="M115 0v1022h540v-143h-389v-879h-151z" />
<glyph unicode="&#x434;" horiz-adv-x="976" d="M37 127h86q71 126 89.5 235t18.5 295v363h562v-893h100v-336h-137v209h-582v-209h-137v336zM276 127h377v764h-278v-219q0 -87 -2 -139t-11 -124.5t-30 -140.5t-56 -141z" />
<glyph unicode="&#x435;" d="M88 514q0 110 4.5 183t19 138t39 102t66 64t98.5 37.5t138 10.5q80 0 136 -10t98 -36.5t66.5 -63.5t40 -101t20.5 -138.5t5 -185.5v-47h-24q-94 0 -282 -1t-282 -1q3 -131 10.5 -187.5t34.5 -99.5q14 -23 39.5 -37.5t64 -20t61.5 -6.5t65 -1q90 0 256 16v-113 q-189 -34 -342 -34q-85 0 -142 18t-95 53t-58.5 101.5t-28.5 149.5t-8 210zM233 594h443q-2 74 -5 119.5t-12.5 86t-23.5 61t-40 36t-59 20.5t-83 5q-62 0 -102 -12.5t-63 -34t-34 -63.5t-14.5 -86.5t-6.5 -117.5v-5v-4.5v-4.5z" />
<glyph unicode="&#x436;" horiz-adv-x="1290" d="M2 0l328 475l-312 551h158l281 -498h104v498h146v-498h86l282 498h158l-313 -551l323 -469h-164l-284 412h-88v-418h-146v418h-104l-291 -418h-164z" />
<glyph unicode="&#x437;" horiz-adv-x="708" d="M80 0v117h153q100 0 145.5 32.5t45.5 110.5v55q0 73 -33.5 101t-103.5 28h-140v127h140q69 0 103 29t34 98v66q0 48 -11.5 77t-38.5 41.5t-55 16t-77 2.5l-162 -2v115l153 4q46 0 75 -1t68.5 -6t64 -14.5t51.5 -27.5t42 -43.5t25 -64t10 -87.5v-76q-6 -81 -25.5 -118.5 t-66.5 -67.5q47 -27 69.5 -82t22.5 -117v-59q0 -148 -76.5 -202t-254.5 -54q-28 0 -79 1t-79 1z" />
<glyph unicode="&#x438;" horiz-adv-x="958" d="M115 0v1022h145v-770l375 770h172v-1022h-141l-2 766l-365 -766h-184z" />
<glyph unicode="&#x439;" horiz-adv-x="958" d="M115 0v1022h145v-770l375 770h172v-1022h-143v766l-365 -766h-184zM227 1245l47 82q35 -31 93 -58.5t118 -27.5q84 0 205 84l43 -80q-33 -38 -104.5 -80.5t-149.5 -42.5q-76 0 -147 42t-105 81z" />
<glyph unicode="&#x43a;" d="M115 0v1026h147v-498h154l280 498h162l-313 -551l332 -475h-168l-291 416h-156v-416h-147z" />
<glyph unicode="&#x43b;" horiz-adv-x="878" d="M66 -8v98q22 3 37 10.5t22.5 15t11 22t4 23.5t0.5 29v836h594v-1026h-149v883h-297v-666q0 -130 -43 -180.5t-123 -50.5q-22 0 -57 6z" />
<glyph unicode="&#x43c;" horiz-adv-x="1150" d="M115 0v1022h178l260 -621l258 621h182v-1022h-137v762l-240 -555h-131l-231 553v-760h-139z" />
<glyph unicode="&#x43d;" d="M115 0v1022h145v-430h375v430h145v-1022h-145v455h-375v-455h-145z" />
<glyph unicode="&#x43e;" horiz-adv-x="952" d="M86 516q0 107 5 179t20 135.5t40.5 100.5t67.5 64.5t99.5 38t138.5 10.5q83 0 141.5 -10.5t101 -38t68 -64.5t41 -100.5t20.5 -135.5t5 -179q0 -93 -4 -159.5t-14 -126t-28.5 -98t-46 -69.5t-68.5 -47.5t-93 -25t-123 -8.5q-81 0 -138.5 10.5t-99.5 38t-67.5 65 t-40.5 101.5t-20 137.5t-5 181.5zM238 516q0 -69 1 -114t5 -90t10 -72t18 -52.5t27.5 -38.5t38.5 -23t51.5 -13.5t67.5 -3.5q40 0 69.5 3.5t53.5 14t40 23t28 38.5t18 52t10 72t5 90.5t1 113.5q0 93 -2 147.5t-10.5 105.5t-22 76t-40 44.5t-61.5 25t-89 5.5 q-39 0 -67.5 -3.5t-51.5 -13.5t-38.5 -23t-27.5 -38t-18 -51.5t-10 -71.5t-5 -90t-1 -113z" />
<glyph unicode="&#x43f;" horiz-adv-x="856" d="M115 0v1024h590v-1024h-148v881h-297v-881h-145z" />
<glyph unicode="&#x440;" horiz-adv-x="917" d="M115 -406v1428h106l21 -76q156 88 299 88q133 0 194.5 -127t61.5 -409v-62q-6 -252 -64 -356.5t-209 -104.5q-78 0 -264 21v-402h-145zM260 137q19 -5 118.5 -12.5t119.5 -7.5h10q29 0 51 11t36 25.5t24 43.5t15 51t7.5 62t3 63t0.5 67q0 259 -28.5 359t-110.5 100 q-99 0 -246 -78v-684z" />
<glyph unicode="&#x441;" horiz-adv-x="874" d="M88 459q0 76 1.5 131.5t5.5 110.5t10.5 93t18 75t26 61t36.5 45.5t48 34t61 21.5t75.5 12.5t92.5 3.5q36 0 134 -9.5t157 -19.5v-129q-262 20 -285 20q-59 0 -96.5 -6t-64.5 -31t-40 -49t-20.5 -88t-8.5 -117t-1 -165q0 -62 2.5 -108t12 -82t18.5 -59.5t30 -40.5 t39 -25.5t54.5 -13.5t66 -6t82.5 -1q73 0 221 16v-115q-155 -36 -322 -36q-67 0 -111.5 5.5t-88 23t-69.5 49.5t-47 85t-29.5 130t-8.5 184z" />
<glyph unicode="&#x442;" horiz-adv-x="815" d="M31 885v139h725v-139h-287v-885h-150v885h-288z" />
<glyph unicode="&#x443;" horiz-adv-x="899" d="M18 1024h156l258 -868l260 868h152l-436 -1427h-142l121 403h-53z" />
<glyph unicode="&#x444;" horiz-adv-x="1169" d="M96 485v39q0 165 26.5 253t83 122.5t161.5 34.5q52 0 131 -12v438h139v-438q64 12 143 12q98 0 152.5 -36.5t80 -124.5t25.5 -249v-39q0 -113 -13 -192.5t-32.5 -124.5t-53.5 -70t-65.5 -32t-78.5 -7q-43 0 -158 7v-474h-139v474q-103 -7 -131 -7q-31 0 -49 1t-45 5 t-43 11.5t-37 22.5t-33.5 36.5t-26 53.5t-21 73.5t-12 97.5t-4.5 125zM242 520q0 -94 3.5 -149.5t10.5 -95t23.5 -57t37.5 -24t58 -6.5q6 0 123 5v595q-64 7 -111 7q-40 0 -67 -13t-42.5 -33.5t-23.5 -58.5t-10 -74.5t-2 -95.5zM637 193q123 -5 127 -5q59 1 84 25t35 90 t10 217q0 54 -2 89.5t-9 74.5t-20.5 61.5t-37.5 37t-58 14.5q-65 0 -129 -9v-595z" />
<glyph unicode="&#x445;" horiz-adv-x="770" d="M39 0l260 510l-252 512h152l176 -373l180 373h150l-252 -512l258 -510h-148l-188 369l-182 -369h-154z" />
<glyph unicode="&#x446;" horiz-adv-x="983" d="M115 0v1024h147v-889l389 2v887h148v-887h96v-297h-139v160h-641z" />
<glyph unicode="&#x447;" horiz-adv-x="776" d="M74 608v416h145v-422q0 -49 51 -49q40 0 102 11.5t113 35.5v424h144v-1026h-135l-2 467q-121 -53 -240 -53q-178 0 -178 196z" />
<glyph unicode="&#x448;" horiz-adv-x="1277" d="M115 0v1020h147v-883h289v883h147v-883h289v883h146v-1020h-1018z" />
<glyph unicode="&#x449;" horiz-adv-x="1316" d="M115 0v1022h149v-885h289v885h147v-885h291v885h146v-885h98v-297h-139v160h-981z" />
<glyph unicode="&#x44a;" horiz-adv-x="931" d="M45 881v139h277v-387h149q130 0 176 -10q84 -17 137.5 -85.5t53.5 -164.5v-119q0 -73 -23 -124t-66 -78.5t-94.5 -39.5t-117.5 -12h-363v881h-129zM322 129h208q36 0 62.5 4.5t52.5 17t39.5 39t13.5 66.5v117q0 41 -13.5 67.5t-39 38.5t-52 16.5t-63.5 4.5h-208v-371z " />
<glyph unicode="&#x44b;" horiz-adv-x="1140" d="M115 0v1026h149v-389q251 0 316 -8q94 -13 149 -82t55 -172v-119q0 -74 -23.5 -125.5t-66.5 -79t-95 -39.5t-118 -12h-366zM264 129h211q28 0 49.5 2.5t44 10.5t38 21.5t25 37.5t9.5 57v117q0 41 -13 67.5t-38.5 38.5t-51.5 16.5t-63 4.5h-211v-373zM877 0v1026h145 v-1026h-145z" />
<glyph unicode="&#x44c;" horiz-adv-x="878" d="M115 0v1026h147v-389q261 0 318 -8q92 -15 147 -85t55 -169v-119q0 -74 -23.5 -125.5t-66.5 -79t-95 -39.5t-118 -12h-364zM262 129h211q28 0 50 2.5t45 10.5t38.5 21.5t25 37.5t9.5 57v117q0 33 -9.5 56.5t-24 37t-37.5 21t-45 10t-52 2.5h-211v-373z" />
<glyph unicode="&#x44d;" horiz-adv-x="833" d="M72 1014q151 37 297 37q76 0 128.5 -14t95 -48.5t67 -96t37 -153.5t12.5 -223q0 -212 -30.5 -326t-99 -161t-194.5 -47q-141 0 -305 49l2 121q65 -13 162.5 -23t134.5 -10q58 0 90 11.5t53.5 50t29 102t9.5 176.5h-405v135h405q-4 139 -24 207.5t-55.5 90t-106.5 21.5 q-139 0 -289 -26z" />
<glyph unicode="&#x44e;" horiz-adv-x="1239" d="M115 0v1022h151v-424h119q3 106 13.5 176.5t34.5 125.5t66.5 85t104 44.5t152.5 14.5q70 0 122.5 -8.5t93 -25.5t67.5 -48t45.5 -69t28 -97t13.5 -124t4 -156q0 -110 -5 -183.5t-20.5 -137.5t-40.5 -101.5t-68 -64t-100.5 -37t-139.5 -10.5q-92 0 -154 15.5t-104.5 46.5 t-66 89t-34 132t-12.5 186h-119v-451h-151zM530 516q0 -94 2 -150t10.5 -108t22.5 -77.5t40.5 -46t61.5 -26.5t89 -6q41 0 70.5 3.5t54 14t40.5 23.5t28.5 39.5t19 54t10.5 74.5t5 93.5t1 117.5q0 79 -2 129.5t-7 98.5t-15.5 74.5t-26.5 49.5t-41.5 33t-57.5 15.5t-79 5.5 q-53 0 -88.5 -6.5t-62 -26.5t-40.5 -46t-22.5 -78t-10.5 -107t-2 -148z" />
<glyph unicode="&#x44f;" horiz-adv-x="903" d="M84 649v121q0 74 23 125.5t66.5 79t95.5 39.5t120 12h367v-1026h-150v389q-251 0 -284 4l-62 -393h-154l72 440q-50 42 -72 90.5t-22 118.5zM229 649q0 -41 13 -67.5t37.5 -39t51 -17t62.5 -3.5l213 2v373h-213q-36 0 -61.5 -4.5t-50.5 -17.5t-38 -39.5t-14 -67.5v-119z " />
<glyph unicode="&#x451;" d="M88 514q0 110 4.5 183t19 138t39 102t66 64t98.5 37.5t138 10.5q80 0 136 -10t98 -36.5t66.5 -63.5t40 -101t20.5 -138.5t5 -185.5v-47h-24q-94 0 -282 -1t-282 -1q3 -131 10.5 -187.5t34.5 -99.5q14 -23 39.5 -37.5t64 -20t61.5 -6.5t65 -1q90 0 256 16v-113 q-189 -34 -342 -34q-85 0 -142 18t-95 53t-58.5 101.5t-28.5 149.5t-8 210zM207 1225q0 59 12 74.5t66 15.5q56 0 71 -16t15 -74q0 -54 -15 -71t-71 -17q-53 0 -65.5 15.5t-12.5 72.5zM233 594h443q-2 74 -5 119.5t-12.5 86t-23.5 61t-40 36t-59 20.5t-83 5 q-62 0 -102 -12.5t-63 -34t-34 -63.5t-14.5 -86.5t-6.5 -117.5v-5v-4.5v-4.5zM526 1225q0 59 13 74.5t67 15.5t69 -16t15 -74q0 -54 -14 -71t-70 -17q-54 0 -67 16t-13 72z" />
<glyph unicode="&#x452;" horiz-adv-x="966" d="M18 1186v117h101v112h143v-112h211v-117h-211v-228q69 25 114.5 39.5t110.5 27.5t119 13q110 0 163.5 -59.5t53.5 -181.5l-2 -924q0 -86 -13.5 -144t-41 -88.5t-61 -42.5t-82.5 -12q-33 0 -62 4v91q69 11 94 50.5t25 104.5l-2 969q0 94 -86 94q-61 0 -155.5 -19 t-172.5 -59v-821h-145v1186h-101z" />
<glyph unicode="&#x453;" horiz-adv-x="716" d="M115 0v1022h540v-143h-389v-879h-151zM229 1217l260 190l66 -111l-264 -182z" />
<glyph unicode="&#x454;" horiz-adv-x="843" d="M86 514q0 163 17.5 266t60 162t102 80.5t154.5 21.5q167 0 295 -34l-10 -127q-153 26 -289 26q-42 0 -69 -6.5t-50 -25t-35 -54.5t-19.5 -91.5t-9.5 -139.5h404v-137h-404q2 -148 17.5 -217.5t51 -95t110.5 -25.5q39 0 135 9.5t158 20.5l4 -116q-161 -49 -303 -49 q-125 0 -192.5 46.5t-97.5 160t-30 325.5z" />
<glyph unicode="&#x455;" horiz-adv-x="819" d="M63 770q0 135 76.5 203.5t202.5 68.5q87 0 167.5 -4t117.5 -8l37 -4v-135q-140 16 -312 16q-73 0 -106 -29t-33 -94q0 -45 28 -80.5t72.5 -59.5t98.5 -46.5t108 -50.5t98.5 -62.5t72.5 -90.5t28 -128q0 -135 -77 -203.5t-204 -68.5q-86 0 -165.5 4t-116.5 8l-37 4v135 q129 -16 303 -16q77 0 111 28.5t34 94.5q0 47 -28 82.5t-72 59.5t-98 46.5t-108 49.5t-98 61.5t-72 90.5t-28 128z" />
<glyph unicode="&#x456;" horiz-adv-x="405" d="M100 1227q0 68 14.5 85t73.5 17q58 0 72 -16.5t14 -85.5q0 -62 -15 -81.5t-71 -19.5q-58 0 -73 18.5t-15 82.5zM115 0v1022h151v-1022h-151z" />
<glyph unicode="&#x457;" horiz-adv-x="425" d="M-47 1223q0 59 13.5 74.5t68.5 15.5t69.5 -15.5t14.5 -74.5q0 -53 -14.5 -69.5t-69.5 -16.5q-54 0 -68 16t-14 70zM117 0v1022h149v-1022h-149zM276 1223q0 60 13 75t67 15q55 0 69.5 -15.5t14.5 -74.5q0 -53 -14.5 -69.5t-69.5 -16.5q-54 0 -67 15.5t-13 70.5z" />
<glyph unicode="&#x458;" horiz-adv-x="425" d="M2 -309q69 11 93 50t24 105v1178h147v-1143q0 -85 -14.5 -142.5t-43 -87.5t-63 -42t-82.5 -12q-32 0 -61 4v90zM104 1270q0 68 14.5 85t74.5 17q57 0 71.5 -16.5t14.5 -85.5q0 -62 -15 -81.5t-71 -19.5q-58 0 -73.5 19t-15.5 82z" />
<glyph unicode="&#x459;" horiz-adv-x="1290" d="M66 -6v96q21 3 35.5 10.5t22 15t11 22t4 23t0.5 27.5v840h541v-391q218 2 297 -6q100 -11 163.5 -79t63.5 -175v-121q0 -74 -23.5 -125.5t-67 -79t-95.5 -39.5t-119 -12h-367v885h-247v-668q0 -129 -42.5 -180t-121.5 -51q-20 0 -55 8zM680 129h213q37 0 63.5 4.5 t52 17.5t39 39.5t13.5 67.5v119q0 40 -13 66t-38 38.5t-51.5 16.5t-65.5 4h-213v-373z" />
<glyph unicode="&#x45a;" horiz-adv-x="1331" d="M115 2v1024h147v-393h316v391h147v-389h147q131 0 164 -4q91 -12 149 -82.5t58 -171.5v-119q0 -74 -22.5 -125.5t-65 -79t-94.5 -39.5t-121 -12h-362v494h-316v-494h-147zM725 133h211q37 0 62 4t50.5 16t38.5 38t13 67v119q0 41 -12.5 67t-38 38t-51 16t-62.5 4h-211 v-369z" />
<glyph unicode="&#x45b;" horiz-adv-x="966" d="M18 1188v117h97v110h143v-110h219v-117h-219v-230q69 25 114.5 39.5t111 27.5t120.5 13q215 0 215 -241v-797h-145v805q0 94 -86 94q-62 0 -156 -18.5t-172 -57.5v-823h-145v1188h-97z" />
<glyph unicode="&#x45c;" horiz-adv-x="925" d="M115 0v1026h147v-498h154l280 498h162l-313 -551l332 -475h-168l-291 416h-156v-416h-147zM375 1268l260 190l63 -108l-264 -185z" />
<glyph unicode="&#x45e;" horiz-adv-x="892" d="M18 1024h156l258 -868l260 868h152l-436 -1427h-142l121 403h-53zM199 1253l49 82q38 -31 93 -58.5t110 -27.5q95 0 213 84l45 -80q-23 -23 -54.5 -47t-90 -50t-111.5 -26q-76 0 -146 41.5t-108 81.5z" />
<glyph unicode="&#x45f;" horiz-adv-x="952" d="M115 0v1028h147v-889h391v889h148v-1028h-271v-221h-145v221h-270z" />
<glyph unicode="&#x2000;" horiz-adv-x="896" />
<glyph unicode="&#x2001;" horiz-adv-x="1792" />
<glyph unicode="&#x2002;" horiz-adv-x="896" />
<glyph unicode="&#x2003;" horiz-adv-x="1792" />
<glyph unicode="&#x2004;" horiz-adv-x="597" />
<glyph unicode="&#x2005;" horiz-adv-x="448" />
<glyph unicode="&#x2006;" horiz-adv-x="298" />
<glyph unicode="&#x2007;" horiz-adv-x="298" />
<glyph unicode="&#x2008;" horiz-adv-x="224" />
<glyph unicode="&#x2009;" horiz-adv-x="358" />
<glyph unicode="&#x200a;" horiz-adv-x="99" />
<glyph unicode="&#x2010;" horiz-adv-x="696" d="M100 510v127h447v-127h-447z" />
<glyph unicode="&#x2011;" horiz-adv-x="696" d="M100 510v127h447v-127h-447z" />
<glyph unicode="&#x2012;" horiz-adv-x="696" d="M100 510v127h447v-127h-447z" />
<glyph unicode="&#x2013;" horiz-adv-x="880" d="M100 510v129h650v-129h-650z" />
<glyph unicode="&#x2014;" horiz-adv-x="1134" d="M100 510v129h897v-129h-897z" />
<glyph unicode="&#x2018;" horiz-adv-x="411" d="M78 1092q0 96 43 156t127 114l45 -74q-56 -30 -76 -88q44 -6 56 -27.5t12 -80.5q0 -67 -17.5 -85t-87.5 -18q-68 0 -85 17.5t-17 85.5z" />
<glyph unicode="&#x2019;" horiz-adv-x="395" d="M82 1087q54 28 74 89q-43 4 -55.5 26t-12.5 80q0 68 17.5 86t87.5 18q69 0 86.5 -18t17.5 -86q0 -96 -43 -156t-129 -114z" />
<glyph unicode="&#x201a;" horiz-adv-x="428" d="M84 -88q57 33 76 90q-43 4 -55.5 26.5t-12.5 80.5q0 68 17 86t86 18q70 0 88 -18t18 -86q0 -66 -23.5 -118.5t-58 -85t-90.5 -67.5z" />
<glyph unicode="&#x201c;" horiz-adv-x="718" d="M78 1094q0 65 23.5 117t58 84.5t88.5 66.5l45 -74q-58 -31 -76 -88q44 -4 56 -25.5t12 -80.5q0 -69 -17 -87t-88 -18q-68 0 -85 18t-17 87zM377 1094q0 95 43 155.5t125 112.5l47 -74q-61 -33 -76 -88q44 -4 56 -25.5t12 -80.5q0 -68 -17.5 -86.5t-87.5 -18.5 q-68 0 -85 18t-17 87z" />
<glyph unicode="&#x201d;" horiz-adv-x="702" d="M80 1083q56 30 76 88q-44 6 -57 28.5t-13 80.5q0 66 18.5 84t88.5 18q69 0 85.5 -17t16.5 -85q0 -96 -43 -156t-129 -114zM377 1083q56 30 76 88q-43 6 -55.5 28.5t-12.5 80.5q0 67 17 84.5t85 17.5q71 0 89 -17.5t18 -84.5q0 -96 -43 -156t-129 -114z" />
<glyph unicode="&#x201e;" horiz-adv-x="733" d="M84 -88q57 33 76 90q-43 4 -55.5 26.5t-12.5 80.5q0 68 17 86t86 18q70 0 88 -18t18 -86q0 -66 -23.5 -118.5t-58 -85t-90.5 -67.5zM379 -88q57 33 76 90q-43 4 -55.5 26.5t-12.5 80.5q0 68 16.5 86t85.5 18q70 0 88.5 -18t18.5 -86q0 -66 -23.5 -118.5t-58 -85 t-90.5 -67.5z" />
<glyph unicode="&#x2026;" horiz-adv-x="1236" d="M90 109q0 67 17.5 85.5t85.5 18.5q69 0 87.5 -18t18.5 -86q0 -69 -17.5 -90t-88.5 -21q-67 0 -85 20.5t-18 90.5zM504 109q0 67 17.5 85.5t86.5 18.5t87 -18t18 -86q0 -69 -18 -90t-87 -21q-68 0 -86 20.5t-18 90.5zM911 109q0 68 17.5 86t87.5 18q69 0 86.5 -18 t17.5 -86q0 -69 -17.5 -90t-86.5 -21q-70 0 -87.5 20.5t-17.5 90.5z" />
<glyph unicode="&#x202f;" horiz-adv-x="358" />
<glyph unicode="&#x2039;" horiz-adv-x="534" d="M61 504l244 407l109 -77l-193 -330l193 -330l-109 -78z" />
<glyph unicode="&#x203a;" horiz-adv-x="534" d="M74 174l194 330l-194 330l110 77l244 -407l-244 -408z" />
<glyph unicode="&#x205f;" horiz-adv-x="448" />
<glyph unicode="&#x20ac;" horiz-adv-x="1138" d="M53 539v94h137v69h-137v95h140q3 121 12.5 204.5t32 152t56 109.5t88 68.5t125 38t169.5 10.5q104 0 325 -26v-131q-262 22 -317 22q-74 0 -124.5 -7.5t-88.5 -29.5t-60 -51.5t-36 -84t-19.5 -116.5t-7.5 -159h500v-95h-500v-69h500v-94h-500q2 -79 7.5 -137.5t20 -103.5 t28 -75t44.5 -51t56.5 -32t76.5 -17t90.5 -7t112.5 -1q94 0 217 10v-111q-197 -32 -350 -32q-62 0 -107.5 3.5t-91.5 13.5t-78.5 28t-63.5 47t-50.5 70t-35.5 97.5t-24 130.5t-10 167h-137z" />
<glyph unicode="&#x2122;" horiz-adv-x="962" d="M100 1296v78h295v-78h-106v-346h-78v346h-111zM479 950v424h84l94 -203l99 203h82v-424h-74v264l-113 -190l-94 188v-262h-78z" />
<glyph unicode="&#x25fc;" horiz-adv-x="1020" d="M0 0v1020h1020v-1020h-1020z" />
</font>
</defs>
</svg>
